G75*
%MOIN*%
%OFA0B0*%
%FSLAX25Y25*%
%IPPOS*%
%LPD*%
%AMOC8*
5,1,8,0,0,1.08239X$1,22.5*
%
%ADD10R,0.08000X0.08000*%
%ADD11C,0.08000*%
%ADD12C,0.07600*%
%ADD13R,0.07600X0.07600*%
%ADD14C,0.05600*%
%ADD15C,0.07400*%
%ADD16C,0.06299*%
%ADD17C,0.06000*%
%ADD18OC8,0.06600*%
%ADD19C,0.04362*%
%ADD20R,0.04362X0.04362*%
%ADD21C,0.02978*%
%ADD22C,0.01000*%
%ADD23C,0.03000*%
%ADD24C,0.02000*%
D10*
X0166457Y0021300D03*
X0221457Y0021300D03*
D11*
X0241143Y0021300D03*
X0186143Y0021300D03*
D12*
X0081300Y0071457D03*
X0336300Y0091143D03*
D13*
X0336300Y0071457D03*
X0081300Y0091143D03*
D14*
X0376300Y0122363D03*
X0376300Y0130237D03*
X0376300Y0167363D03*
X0376300Y0175237D03*
X0376300Y0212363D03*
X0376300Y0220237D03*
D15*
X0031300Y0216300D03*
X0021300Y0216300D03*
X0021300Y0226300D03*
X0031300Y0226300D03*
X0031300Y0236300D03*
X0021300Y0236300D03*
X0021300Y0246300D03*
X0031300Y0246300D03*
X0031300Y0256300D03*
X0021300Y0256300D03*
X0021300Y0206300D03*
X0031300Y0206300D03*
X0031300Y0196300D03*
X0021300Y0196300D03*
X0021300Y0186300D03*
X0031300Y0186300D03*
X0031300Y0176300D03*
X0021300Y0176300D03*
X0021300Y0166300D03*
X0031300Y0166300D03*
X0031300Y0156300D03*
X0021300Y0156300D03*
X0021300Y0146300D03*
X0031300Y0146300D03*
X0031300Y0136300D03*
X0021300Y0136300D03*
X0021300Y0126300D03*
X0031300Y0126300D03*
X0031300Y0116300D03*
X0021300Y0116300D03*
X0021300Y0106300D03*
X0031300Y0106300D03*
X0031300Y0096300D03*
X0021300Y0096300D03*
X0021300Y0086300D03*
X0031300Y0086300D03*
X0031300Y0076300D03*
X0021300Y0076300D03*
X0021300Y0066300D03*
X0031300Y0066300D03*
D16*
X0074489Y0031300D03*
X0082363Y0031300D03*
X0090237Y0031300D03*
X0098111Y0031300D03*
X0119489Y0031300D03*
X0127363Y0031300D03*
X0135237Y0031300D03*
X0143111Y0031300D03*
X0144174Y0286300D03*
X0136300Y0286300D03*
X0128426Y0286300D03*
X0109174Y0286300D03*
X0101300Y0286300D03*
X0093426Y0286300D03*
X0074174Y0286300D03*
X0066300Y0286300D03*
X0058426Y0286300D03*
X0163426Y0286300D03*
X0171300Y0286300D03*
X0179174Y0286300D03*
X0198426Y0286300D03*
X0206300Y0286300D03*
X0214174Y0286300D03*
X0233426Y0286300D03*
X0241300Y0286300D03*
X0249174Y0286300D03*
X0268426Y0286300D03*
X0276300Y0286300D03*
X0284174Y0286300D03*
X0303426Y0286300D03*
X0311300Y0286300D03*
X0319174Y0286300D03*
X0338426Y0286300D03*
X0346300Y0286300D03*
X0354174Y0286300D03*
X0373426Y0286300D03*
X0381300Y0286300D03*
X0389174Y0286300D03*
D17*
X0334300Y0231300D02*
X0328300Y0231300D01*
X0328300Y0221300D02*
X0334300Y0221300D01*
X0334300Y0211300D02*
X0328300Y0211300D01*
X0328300Y0186300D02*
X0334300Y0186300D01*
X0334300Y0176300D02*
X0328300Y0176300D01*
X0328300Y0166300D02*
X0334300Y0166300D01*
X0334300Y0141300D02*
X0328300Y0141300D01*
X0328300Y0131300D02*
X0334300Y0131300D01*
X0334300Y0121300D02*
X0328300Y0121300D01*
D18*
X0211300Y0126300D03*
X0201300Y0126300D03*
X0201300Y0146300D03*
X0211300Y0146300D03*
X0061300Y0156300D03*
X0061300Y0166300D03*
X0061300Y0176300D03*
X0061300Y0186300D03*
X0061300Y0201300D03*
X0061300Y0211300D03*
D19*
X0111300Y0136300D03*
X0121300Y0136300D03*
X0131300Y0136300D03*
X0141300Y0136300D03*
X0151300Y0136300D03*
X0161300Y0136300D03*
X0171300Y0136300D03*
X0181300Y0136300D03*
X0231300Y0136300D03*
X0241300Y0136300D03*
X0251300Y0136300D03*
X0261300Y0136300D03*
X0271300Y0136300D03*
X0281300Y0136300D03*
X0291300Y0136300D03*
X0301300Y0136300D03*
X0291300Y0081300D03*
X0281300Y0081300D03*
X0271300Y0081300D03*
X0261300Y0081300D03*
X0251300Y0081300D03*
X0231300Y0081300D03*
X0171300Y0081300D03*
X0161300Y0081300D03*
X0151300Y0081300D03*
X0141300Y0081300D03*
X0131300Y0081300D03*
X0111300Y0081300D03*
D20*
X0121300Y0081300D03*
X0181300Y0081300D03*
X0241300Y0081300D03*
X0301300Y0081300D03*
X0221300Y0181300D03*
X0221300Y0191300D03*
X0221300Y0201300D03*
X0221300Y0211300D03*
X0221300Y0221300D03*
X0221300Y0231300D03*
X0221300Y0241300D03*
X0211300Y0241300D03*
X0201300Y0241300D03*
X0191300Y0241300D03*
X0181300Y0241300D03*
X0171300Y0241300D03*
X0161300Y0241300D03*
X0151300Y0241300D03*
X0141300Y0241300D03*
X0131300Y0241300D03*
X0121300Y0241300D03*
X0111300Y0241300D03*
X0101300Y0241300D03*
X0091300Y0241300D03*
X0091300Y0181300D03*
X0101300Y0181300D03*
X0111300Y0181300D03*
X0121300Y0181300D03*
X0131300Y0181300D03*
X0141300Y0181300D03*
X0151300Y0181300D03*
X0161300Y0181300D03*
X0171300Y0181300D03*
X0181300Y0181300D03*
X0191300Y0181300D03*
X0201300Y0181300D03*
X0211300Y0181300D03*
D21*
X0161300Y0126300D03*
X0151300Y0126300D03*
X0146300Y0111300D03*
X0131300Y0106300D03*
D22*
X0151300Y0126300D01*
X0161300Y0126300D02*
X0146300Y0111300D01*
D23*
X0141300Y0056300D02*
X0061300Y0056300D01*
X0056300Y0061300D01*
X0056300Y0126300D01*
X0081300Y0151300D01*
X0081300Y0231300D01*
X0091300Y0241300D01*
X0161300Y0156300D02*
X0261300Y0156300D01*
X0271300Y0146300D01*
X0271300Y0136300D01*
X0281300Y0136300D02*
X0281300Y0146300D01*
X0271300Y0156300D01*
X0261300Y0156300D01*
X0221300Y0136300D02*
X0221300Y0091300D01*
X0216300Y0091300D01*
X0191300Y0066300D01*
X0126300Y0066300D01*
X0111300Y0081300D01*
X0101457Y0091143D01*
X0081300Y0091143D01*
X0141300Y0056300D02*
X0151300Y0046300D01*
X0151300Y0016300D01*
X0156300Y0011300D01*
X0211457Y0011300D01*
X0221457Y0021300D01*
X0191300Y0066300D02*
X0166457Y0041457D01*
X0166457Y0021300D01*
X0231300Y0081300D02*
X0241143Y0071457D01*
X0336300Y0071457D01*
X0231300Y0081300D02*
X0221300Y0091300D01*
X0201300Y0126300D02*
X0201300Y0146300D01*
X0211300Y0146300D02*
X0221300Y0136300D01*
X0161300Y0136300D02*
X0161300Y0146300D01*
X0156300Y0151300D01*
X0161300Y0156300D01*
X0156300Y0151300D02*
X0141300Y0151300D01*
X0151300Y0141300D01*
X0151300Y0136300D01*
X0141300Y0151300D02*
X0081300Y0151300D01*
D24*
X0091300Y0241300D02*
X0091300Y0261300D01*
X0106300Y0276300D01*
X0131300Y0276300D01*
X0128426Y0279174D01*
X0128426Y0286300D01*
X0131300Y0276300D02*
X0166300Y0276300D01*
X0163426Y0279174D01*
X0163426Y0286300D01*
X0166300Y0276300D02*
X0201300Y0276300D01*
X0198426Y0279174D01*
X0198426Y0286300D01*
X0201300Y0276300D02*
X0236300Y0276300D01*
X0271300Y0276300D01*
X0268426Y0279174D01*
X0268426Y0286300D01*
X0271300Y0276300D02*
X0306300Y0276300D01*
X0303426Y0279174D01*
X0303426Y0286300D01*
X0306300Y0276300D02*
X0341300Y0276300D01*
X0338426Y0279174D01*
X0338426Y0286300D01*
X0341300Y0276300D02*
X0366300Y0276300D01*
X0373426Y0283426D01*
X0373426Y0286300D01*
X0236300Y0276300D02*
X0233426Y0279174D01*
X0233426Y0286300D01*
X0106300Y0276300D02*
X0096300Y0276300D01*
X0093426Y0279174D01*
X0093426Y0286300D01*
X0096300Y0276300D02*
X0061300Y0276300D01*
X0058426Y0279174D01*
X0058426Y0286300D01*
M02*
