%
M48
M72
T01C0.0138
T02C0.0236
T03C0.0276
T04C0.0315
T05C0.0320
T06C0.0354
T07C0.0400
T08C0.0460
T09C0.1570
%
T01
X13130Y10630
X14630Y11130
X15130Y12630
X16130Y12630
T02
X16130Y13630
X15130Y13630
X14130Y13630
X13130Y13630
X12130Y13630
X11130Y13630
X11130Y18130
X12130Y18130
X13130Y18130
X14130Y18130
X15130Y18130
X16130Y18130
X17130Y18130
X18130Y18130
X19130Y18130
X20130Y18130
X21130Y18130
X22130Y18130
X22130Y19130
X22130Y20130
X22130Y21130
X22130Y22130
X22130Y23130
X22130Y24130
X21130Y24130
X20130Y24130
X19130Y24130
X18130Y24130
X17130Y24130
X16130Y24130
X15130Y24130
X14130Y24130
X13130Y24130
X12130Y24130
X11130Y24130
X10130Y24130
X9130Y24130
X9130Y18130
X10130Y18130
X17130Y13630
X18130Y13630
X23130Y13630
X24130Y13630
X25130Y13630
X26130Y13630
X27130Y13630
X28130Y13630
X29130Y13630
X30130Y13630
X30130Y8130
X29130Y8130
X28130Y8130
X27130Y8130
X26130Y8130
X25130Y8130
X24130Y8130
X23130Y8130
X18130Y8130
X17130Y8130
X16130Y8130
X15130Y8130
X14130Y8130
X13130Y8130
X12130Y8130
X11130Y8130
T03
X11949Y3130
X12736Y3130
X13524Y3130
X14311Y3130
X9811Y3130
X9024Y3130
X8236Y3130
X7449Y3130
X7417Y28630
X6630Y28630
X5843Y28630
X9343Y28630
X10130Y28630
X10917Y28630
X12843Y28630
X13630Y28630
X14417Y28630
X16343Y28630
X17130Y28630
X17917Y28630
X19843Y28630
X20630Y28630
X21417Y28630
X23343Y28630
X24130Y28630
X24917Y28630
X26843Y28630
X27630Y28630
X28417Y28630
X30343Y28630
X31130Y28630
X31917Y28630
X33843Y28630
X34630Y28630
X35417Y28630
X37343Y28630
X38130Y28630
X38917Y28630
T04
X37630Y22024
X37630Y21236
X37630Y17524
X37630Y16736
X37630Y13024
X37630Y12236
T05
X21130Y12630
X20130Y12630
X20130Y14630
X21130Y14630
X6130Y15630
X6130Y16630
X6130Y17630
X6130Y18630
X6130Y20130
X6130Y21130
T06
X8130Y9114
X8130Y7146
X33630Y7146
X33630Y9114
T07
X33130Y12130
X33130Y13130
X33130Y14130
X33130Y16630
X33130Y17630
X33130Y18630
X33130Y21130
X33130Y22130
X33130Y23130
X3130Y22630
X2130Y22630
X2130Y21630
X3130Y21630
X3130Y20630
X2130Y20630
X2130Y19630
X3130Y19630
X3130Y18630
X2130Y18630
X2130Y17630
X3130Y17630
X3130Y16630
X2130Y16630
X2130Y15630
X3130Y15630
X3130Y14630
X2130Y14630
X2130Y13630
X3130Y13630
X3130Y12630
X2130Y12630
X2130Y11630
X3130Y11630
X3130Y10630
X2130Y10630
X2130Y9630
X3130Y9630
X3130Y8630
X2130Y8630
X2130Y7630
X3130Y7630
X3130Y6630
X2130Y6630
X2130Y23630
X3130Y23630
X3130Y24630
X2130Y24630
X2130Y25630
X3130Y25630
T08
X16646Y2130
X18614Y2130
X22146Y2130
X24114Y2130
T09
X2130Y2130
X2130Y29630
X39130Y24630
X39130Y1630
M30
