G75*
%MOIN*%
%OFA0B0*%
%FSLAX25Y25*%
%IPPOS*%
%LPD*%
%AMOC8*
5,1,8,0,0,1.08239X$1,22.5*
%
%ADD10C,0.00500*%
%ADD11C,0.00400*%
%ADD12C,0.00800*%
%ADD13C,0.00700*%
%ADD14R,0.03000X0.42000*%
%ADD15R,0.02000X0.07500*%
%ADD16R,0.02000X0.03000*%
%ADD17C,0.02400*%
%ADD18C,0.00600*%
%ADD19C,0.00013*%
D10*
X0083424Y0015650D02*
X0083424Y0017550D01*
X0083952Y0017550D01*
X0083997Y0017548D01*
X0084041Y0017542D01*
X0084085Y0017533D01*
X0084128Y0017520D01*
X0084169Y0017503D01*
X0084210Y0017483D01*
X0084248Y0017459D01*
X0084284Y0017433D01*
X0084317Y0017403D01*
X0084348Y0017371D01*
X0084377Y0017336D01*
X0084402Y0017299D01*
X0084423Y0017260D01*
X0084442Y0017219D01*
X0084457Y0017177D01*
X0084468Y0017133D01*
X0084476Y0017089D01*
X0084480Y0017044D01*
X0084480Y0017000D01*
X0084476Y0016955D01*
X0084468Y0016911D01*
X0084457Y0016867D01*
X0084442Y0016825D01*
X0084423Y0016784D01*
X0084402Y0016745D01*
X0084377Y0016708D01*
X0084348Y0016673D01*
X0084317Y0016641D01*
X0084284Y0016611D01*
X0084248Y0016585D01*
X0084210Y0016561D01*
X0084169Y0016541D01*
X0084128Y0016524D01*
X0084085Y0016511D01*
X0084041Y0016502D01*
X0083997Y0016496D01*
X0083952Y0016494D01*
X0083424Y0016494D01*
X0085339Y0015650D02*
X0085761Y0015650D01*
X0085550Y0015650D02*
X0085550Y0017550D01*
X0085339Y0017550D02*
X0085761Y0017550D01*
X0086606Y0017550D02*
X0087662Y0017550D01*
X0087134Y0017550D02*
X0087134Y0015650D01*
X0088611Y0016072D02*
X0088611Y0017128D01*
X0088613Y0017167D01*
X0088618Y0017206D01*
X0088627Y0017243D01*
X0088639Y0017280D01*
X0088655Y0017316D01*
X0088674Y0017350D01*
X0088696Y0017382D01*
X0088721Y0017412D01*
X0088749Y0017440D01*
X0088779Y0017465D01*
X0088811Y0017487D01*
X0088845Y0017506D01*
X0088881Y0017521D01*
X0088918Y0017534D01*
X0088955Y0017543D01*
X0088994Y0017548D01*
X0089033Y0017550D01*
X0089456Y0017550D01*
X0090494Y0017550D02*
X0090494Y0015650D01*
X0089456Y0015650D02*
X0089033Y0015650D01*
X0088994Y0015652D01*
X0088955Y0015657D01*
X0088918Y0015666D01*
X0088881Y0015678D01*
X0088845Y0015694D01*
X0088811Y0015713D01*
X0088779Y0015735D01*
X0088749Y0015760D01*
X0088721Y0015788D01*
X0088696Y0015818D01*
X0088674Y0015850D01*
X0088655Y0015884D01*
X0088639Y0015920D01*
X0088627Y0015957D01*
X0088618Y0015994D01*
X0088613Y0016033D01*
X0088611Y0016072D01*
X0090494Y0016706D02*
X0091550Y0016706D01*
X0091550Y0017550D02*
X0091550Y0015650D01*
X0130464Y0017550D02*
X0131098Y0016653D01*
X0131098Y0015650D01*
X0131098Y0016653D02*
X0131731Y0017550D01*
X0133258Y0017550D02*
X0133891Y0015650D01*
X0133733Y0016125D02*
X0132783Y0016125D01*
X0132624Y0015650D02*
X0133258Y0017550D01*
X0134861Y0017550D02*
X0135283Y0015650D01*
X0135706Y0016917D01*
X0136128Y0015650D01*
X0136550Y0017550D01*
X0156800Y0011300D02*
X0195800Y0011300D01*
X0195800Y0031300D01*
X0156800Y0031300D01*
X0156800Y0011300D01*
X0155800Y0005300D02*
X0196800Y0005300D01*
X0196800Y0037300D01*
X0155800Y0037300D01*
X0155800Y0005300D01*
X0157286Y0021300D02*
X0157289Y0021521D01*
X0157297Y0021742D01*
X0157310Y0021963D01*
X0157329Y0022184D01*
X0157354Y0022403D01*
X0157384Y0022623D01*
X0157419Y0022841D01*
X0157459Y0023059D01*
X0157505Y0023275D01*
X0157556Y0023490D01*
X0157613Y0023704D01*
X0157674Y0023917D01*
X0157741Y0024128D01*
X0157813Y0024337D01*
X0157890Y0024544D01*
X0157972Y0024750D01*
X0158059Y0024953D01*
X0158151Y0025154D01*
X0158248Y0025353D01*
X0158350Y0025549D01*
X0158457Y0025743D01*
X0158568Y0025934D01*
X0158684Y0026122D01*
X0158805Y0026308D01*
X0158930Y0026490D01*
X0159060Y0026670D01*
X0159194Y0026846D01*
X0159332Y0027018D01*
X0159475Y0027188D01*
X0159621Y0027353D01*
X0159772Y0027516D01*
X0159926Y0027674D01*
X0160084Y0027828D01*
X0160247Y0027979D01*
X0160412Y0028125D01*
X0160582Y0028268D01*
X0160754Y0028406D01*
X0160930Y0028540D01*
X0161110Y0028670D01*
X0161292Y0028795D01*
X0161478Y0028916D01*
X0161666Y0029032D01*
X0161857Y0029143D01*
X0162051Y0029250D01*
X0162247Y0029352D01*
X0162446Y0029449D01*
X0162647Y0029541D01*
X0162850Y0029628D01*
X0163056Y0029710D01*
X0163263Y0029787D01*
X0163472Y0029859D01*
X0163683Y0029926D01*
X0163896Y0029987D01*
X0164110Y0030044D01*
X0164325Y0030095D01*
X0164541Y0030141D01*
X0164759Y0030181D01*
X0164977Y0030216D01*
X0165197Y0030246D01*
X0165416Y0030271D01*
X0165637Y0030290D01*
X0165858Y0030303D01*
X0166079Y0030311D01*
X0166300Y0030314D01*
X0166521Y0030311D01*
X0166742Y0030303D01*
X0166963Y0030290D01*
X0167184Y0030271D01*
X0167403Y0030246D01*
X0167623Y0030216D01*
X0167841Y0030181D01*
X0168059Y0030141D01*
X0168275Y0030095D01*
X0168490Y0030044D01*
X0168704Y0029987D01*
X0168917Y0029926D01*
X0169128Y0029859D01*
X0169337Y0029787D01*
X0169544Y0029710D01*
X0169750Y0029628D01*
X0169953Y0029541D01*
X0170154Y0029449D01*
X0170353Y0029352D01*
X0170549Y0029250D01*
X0170743Y0029143D01*
X0170934Y0029032D01*
X0171122Y0028916D01*
X0171308Y0028795D01*
X0171490Y0028670D01*
X0171670Y0028540D01*
X0171846Y0028406D01*
X0172018Y0028268D01*
X0172188Y0028125D01*
X0172353Y0027979D01*
X0172516Y0027828D01*
X0172674Y0027674D01*
X0172828Y0027516D01*
X0172979Y0027353D01*
X0173125Y0027188D01*
X0173268Y0027018D01*
X0173406Y0026846D01*
X0173540Y0026670D01*
X0173670Y0026490D01*
X0173795Y0026308D01*
X0173916Y0026122D01*
X0174032Y0025934D01*
X0174143Y0025743D01*
X0174250Y0025549D01*
X0174352Y0025353D01*
X0174449Y0025154D01*
X0174541Y0024953D01*
X0174628Y0024750D01*
X0174710Y0024544D01*
X0174787Y0024337D01*
X0174859Y0024128D01*
X0174926Y0023917D01*
X0174987Y0023704D01*
X0175044Y0023490D01*
X0175095Y0023275D01*
X0175141Y0023059D01*
X0175181Y0022841D01*
X0175216Y0022623D01*
X0175246Y0022403D01*
X0175271Y0022184D01*
X0175290Y0021963D01*
X0175303Y0021742D01*
X0175311Y0021521D01*
X0175314Y0021300D01*
X0175311Y0021079D01*
X0175303Y0020858D01*
X0175290Y0020637D01*
X0175271Y0020416D01*
X0175246Y0020197D01*
X0175216Y0019977D01*
X0175181Y0019759D01*
X0175141Y0019541D01*
X0175095Y0019325D01*
X0175044Y0019110D01*
X0174987Y0018896D01*
X0174926Y0018683D01*
X0174859Y0018472D01*
X0174787Y0018263D01*
X0174710Y0018056D01*
X0174628Y0017850D01*
X0174541Y0017647D01*
X0174449Y0017446D01*
X0174352Y0017247D01*
X0174250Y0017051D01*
X0174143Y0016857D01*
X0174032Y0016666D01*
X0173916Y0016478D01*
X0173795Y0016292D01*
X0173670Y0016110D01*
X0173540Y0015930D01*
X0173406Y0015754D01*
X0173268Y0015582D01*
X0173125Y0015412D01*
X0172979Y0015247D01*
X0172828Y0015084D01*
X0172674Y0014926D01*
X0172516Y0014772D01*
X0172353Y0014621D01*
X0172188Y0014475D01*
X0172018Y0014332D01*
X0171846Y0014194D01*
X0171670Y0014060D01*
X0171490Y0013930D01*
X0171308Y0013805D01*
X0171122Y0013684D01*
X0170934Y0013568D01*
X0170743Y0013457D01*
X0170549Y0013350D01*
X0170353Y0013248D01*
X0170154Y0013151D01*
X0169953Y0013059D01*
X0169750Y0012972D01*
X0169544Y0012890D01*
X0169337Y0012813D01*
X0169128Y0012741D01*
X0168917Y0012674D01*
X0168704Y0012613D01*
X0168490Y0012556D01*
X0168275Y0012505D01*
X0168059Y0012459D01*
X0167841Y0012419D01*
X0167623Y0012384D01*
X0167403Y0012354D01*
X0167184Y0012329D01*
X0166963Y0012310D01*
X0166742Y0012297D01*
X0166521Y0012289D01*
X0166300Y0012286D01*
X0166079Y0012289D01*
X0165858Y0012297D01*
X0165637Y0012310D01*
X0165416Y0012329D01*
X0165197Y0012354D01*
X0164977Y0012384D01*
X0164759Y0012419D01*
X0164541Y0012459D01*
X0164325Y0012505D01*
X0164110Y0012556D01*
X0163896Y0012613D01*
X0163683Y0012674D01*
X0163472Y0012741D01*
X0163263Y0012813D01*
X0163056Y0012890D01*
X0162850Y0012972D01*
X0162647Y0013059D01*
X0162446Y0013151D01*
X0162247Y0013248D01*
X0162051Y0013350D01*
X0161857Y0013457D01*
X0161666Y0013568D01*
X0161478Y0013684D01*
X0161292Y0013805D01*
X0161110Y0013930D01*
X0160930Y0014060D01*
X0160754Y0014194D01*
X0160582Y0014332D01*
X0160412Y0014475D01*
X0160247Y0014621D01*
X0160084Y0014772D01*
X0159926Y0014926D01*
X0159772Y0015084D01*
X0159621Y0015247D01*
X0159475Y0015412D01*
X0159332Y0015582D01*
X0159194Y0015754D01*
X0159060Y0015930D01*
X0158930Y0016110D01*
X0158805Y0016292D01*
X0158684Y0016478D01*
X0158568Y0016666D01*
X0158457Y0016857D01*
X0158350Y0017051D01*
X0158248Y0017247D01*
X0158151Y0017446D01*
X0158059Y0017647D01*
X0157972Y0017850D01*
X0157890Y0018056D01*
X0157813Y0018263D01*
X0157741Y0018472D01*
X0157674Y0018683D01*
X0157613Y0018896D01*
X0157556Y0019110D01*
X0157505Y0019325D01*
X0157459Y0019541D01*
X0157419Y0019759D01*
X0157384Y0019977D01*
X0157354Y0020197D01*
X0157329Y0020416D01*
X0157310Y0020637D01*
X0157297Y0020858D01*
X0157289Y0021079D01*
X0157286Y0021300D01*
X0177286Y0021300D02*
X0177289Y0021521D01*
X0177297Y0021742D01*
X0177310Y0021963D01*
X0177329Y0022184D01*
X0177354Y0022403D01*
X0177384Y0022623D01*
X0177419Y0022841D01*
X0177459Y0023059D01*
X0177505Y0023275D01*
X0177556Y0023490D01*
X0177613Y0023704D01*
X0177674Y0023917D01*
X0177741Y0024128D01*
X0177813Y0024337D01*
X0177890Y0024544D01*
X0177972Y0024750D01*
X0178059Y0024953D01*
X0178151Y0025154D01*
X0178248Y0025353D01*
X0178350Y0025549D01*
X0178457Y0025743D01*
X0178568Y0025934D01*
X0178684Y0026122D01*
X0178805Y0026308D01*
X0178930Y0026490D01*
X0179060Y0026670D01*
X0179194Y0026846D01*
X0179332Y0027018D01*
X0179475Y0027188D01*
X0179621Y0027353D01*
X0179772Y0027516D01*
X0179926Y0027674D01*
X0180084Y0027828D01*
X0180247Y0027979D01*
X0180412Y0028125D01*
X0180582Y0028268D01*
X0180754Y0028406D01*
X0180930Y0028540D01*
X0181110Y0028670D01*
X0181292Y0028795D01*
X0181478Y0028916D01*
X0181666Y0029032D01*
X0181857Y0029143D01*
X0182051Y0029250D01*
X0182247Y0029352D01*
X0182446Y0029449D01*
X0182647Y0029541D01*
X0182850Y0029628D01*
X0183056Y0029710D01*
X0183263Y0029787D01*
X0183472Y0029859D01*
X0183683Y0029926D01*
X0183896Y0029987D01*
X0184110Y0030044D01*
X0184325Y0030095D01*
X0184541Y0030141D01*
X0184759Y0030181D01*
X0184977Y0030216D01*
X0185197Y0030246D01*
X0185416Y0030271D01*
X0185637Y0030290D01*
X0185858Y0030303D01*
X0186079Y0030311D01*
X0186300Y0030314D01*
X0186521Y0030311D01*
X0186742Y0030303D01*
X0186963Y0030290D01*
X0187184Y0030271D01*
X0187403Y0030246D01*
X0187623Y0030216D01*
X0187841Y0030181D01*
X0188059Y0030141D01*
X0188275Y0030095D01*
X0188490Y0030044D01*
X0188704Y0029987D01*
X0188917Y0029926D01*
X0189128Y0029859D01*
X0189337Y0029787D01*
X0189544Y0029710D01*
X0189750Y0029628D01*
X0189953Y0029541D01*
X0190154Y0029449D01*
X0190353Y0029352D01*
X0190549Y0029250D01*
X0190743Y0029143D01*
X0190934Y0029032D01*
X0191122Y0028916D01*
X0191308Y0028795D01*
X0191490Y0028670D01*
X0191670Y0028540D01*
X0191846Y0028406D01*
X0192018Y0028268D01*
X0192188Y0028125D01*
X0192353Y0027979D01*
X0192516Y0027828D01*
X0192674Y0027674D01*
X0192828Y0027516D01*
X0192979Y0027353D01*
X0193125Y0027188D01*
X0193268Y0027018D01*
X0193406Y0026846D01*
X0193540Y0026670D01*
X0193670Y0026490D01*
X0193795Y0026308D01*
X0193916Y0026122D01*
X0194032Y0025934D01*
X0194143Y0025743D01*
X0194250Y0025549D01*
X0194352Y0025353D01*
X0194449Y0025154D01*
X0194541Y0024953D01*
X0194628Y0024750D01*
X0194710Y0024544D01*
X0194787Y0024337D01*
X0194859Y0024128D01*
X0194926Y0023917D01*
X0194987Y0023704D01*
X0195044Y0023490D01*
X0195095Y0023275D01*
X0195141Y0023059D01*
X0195181Y0022841D01*
X0195216Y0022623D01*
X0195246Y0022403D01*
X0195271Y0022184D01*
X0195290Y0021963D01*
X0195303Y0021742D01*
X0195311Y0021521D01*
X0195314Y0021300D01*
X0195311Y0021079D01*
X0195303Y0020858D01*
X0195290Y0020637D01*
X0195271Y0020416D01*
X0195246Y0020197D01*
X0195216Y0019977D01*
X0195181Y0019759D01*
X0195141Y0019541D01*
X0195095Y0019325D01*
X0195044Y0019110D01*
X0194987Y0018896D01*
X0194926Y0018683D01*
X0194859Y0018472D01*
X0194787Y0018263D01*
X0194710Y0018056D01*
X0194628Y0017850D01*
X0194541Y0017647D01*
X0194449Y0017446D01*
X0194352Y0017247D01*
X0194250Y0017051D01*
X0194143Y0016857D01*
X0194032Y0016666D01*
X0193916Y0016478D01*
X0193795Y0016292D01*
X0193670Y0016110D01*
X0193540Y0015930D01*
X0193406Y0015754D01*
X0193268Y0015582D01*
X0193125Y0015412D01*
X0192979Y0015247D01*
X0192828Y0015084D01*
X0192674Y0014926D01*
X0192516Y0014772D01*
X0192353Y0014621D01*
X0192188Y0014475D01*
X0192018Y0014332D01*
X0191846Y0014194D01*
X0191670Y0014060D01*
X0191490Y0013930D01*
X0191308Y0013805D01*
X0191122Y0013684D01*
X0190934Y0013568D01*
X0190743Y0013457D01*
X0190549Y0013350D01*
X0190353Y0013248D01*
X0190154Y0013151D01*
X0189953Y0013059D01*
X0189750Y0012972D01*
X0189544Y0012890D01*
X0189337Y0012813D01*
X0189128Y0012741D01*
X0188917Y0012674D01*
X0188704Y0012613D01*
X0188490Y0012556D01*
X0188275Y0012505D01*
X0188059Y0012459D01*
X0187841Y0012419D01*
X0187623Y0012384D01*
X0187403Y0012354D01*
X0187184Y0012329D01*
X0186963Y0012310D01*
X0186742Y0012297D01*
X0186521Y0012289D01*
X0186300Y0012286D01*
X0186079Y0012289D01*
X0185858Y0012297D01*
X0185637Y0012310D01*
X0185416Y0012329D01*
X0185197Y0012354D01*
X0184977Y0012384D01*
X0184759Y0012419D01*
X0184541Y0012459D01*
X0184325Y0012505D01*
X0184110Y0012556D01*
X0183896Y0012613D01*
X0183683Y0012674D01*
X0183472Y0012741D01*
X0183263Y0012813D01*
X0183056Y0012890D01*
X0182850Y0012972D01*
X0182647Y0013059D01*
X0182446Y0013151D01*
X0182247Y0013248D01*
X0182051Y0013350D01*
X0181857Y0013457D01*
X0181666Y0013568D01*
X0181478Y0013684D01*
X0181292Y0013805D01*
X0181110Y0013930D01*
X0180930Y0014060D01*
X0180754Y0014194D01*
X0180582Y0014332D01*
X0180412Y0014475D01*
X0180247Y0014621D01*
X0180084Y0014772D01*
X0179926Y0014926D01*
X0179772Y0015084D01*
X0179621Y0015247D01*
X0179475Y0015412D01*
X0179332Y0015582D01*
X0179194Y0015754D01*
X0179060Y0015930D01*
X0178930Y0016110D01*
X0178805Y0016292D01*
X0178684Y0016478D01*
X0178568Y0016666D01*
X0178457Y0016857D01*
X0178350Y0017051D01*
X0178248Y0017247D01*
X0178151Y0017446D01*
X0178059Y0017647D01*
X0177972Y0017850D01*
X0177890Y0018056D01*
X0177813Y0018263D01*
X0177741Y0018472D01*
X0177674Y0018683D01*
X0177613Y0018896D01*
X0177556Y0019110D01*
X0177505Y0019325D01*
X0177459Y0019541D01*
X0177419Y0019759D01*
X0177384Y0019977D01*
X0177354Y0020197D01*
X0177329Y0020416D01*
X0177310Y0020637D01*
X0177297Y0020858D01*
X0177289Y0021079D01*
X0177286Y0021300D01*
X0211800Y0011300D02*
X0250800Y0011300D01*
X0250800Y0031300D01*
X0211800Y0031300D01*
X0211800Y0011300D01*
X0210800Y0005300D02*
X0251800Y0005300D01*
X0251800Y0037300D01*
X0210800Y0037300D01*
X0210800Y0005300D01*
X0212286Y0021300D02*
X0212289Y0021521D01*
X0212297Y0021742D01*
X0212310Y0021963D01*
X0212329Y0022184D01*
X0212354Y0022403D01*
X0212384Y0022623D01*
X0212419Y0022841D01*
X0212459Y0023059D01*
X0212505Y0023275D01*
X0212556Y0023490D01*
X0212613Y0023704D01*
X0212674Y0023917D01*
X0212741Y0024128D01*
X0212813Y0024337D01*
X0212890Y0024544D01*
X0212972Y0024750D01*
X0213059Y0024953D01*
X0213151Y0025154D01*
X0213248Y0025353D01*
X0213350Y0025549D01*
X0213457Y0025743D01*
X0213568Y0025934D01*
X0213684Y0026122D01*
X0213805Y0026308D01*
X0213930Y0026490D01*
X0214060Y0026670D01*
X0214194Y0026846D01*
X0214332Y0027018D01*
X0214475Y0027188D01*
X0214621Y0027353D01*
X0214772Y0027516D01*
X0214926Y0027674D01*
X0215084Y0027828D01*
X0215247Y0027979D01*
X0215412Y0028125D01*
X0215582Y0028268D01*
X0215754Y0028406D01*
X0215930Y0028540D01*
X0216110Y0028670D01*
X0216292Y0028795D01*
X0216478Y0028916D01*
X0216666Y0029032D01*
X0216857Y0029143D01*
X0217051Y0029250D01*
X0217247Y0029352D01*
X0217446Y0029449D01*
X0217647Y0029541D01*
X0217850Y0029628D01*
X0218056Y0029710D01*
X0218263Y0029787D01*
X0218472Y0029859D01*
X0218683Y0029926D01*
X0218896Y0029987D01*
X0219110Y0030044D01*
X0219325Y0030095D01*
X0219541Y0030141D01*
X0219759Y0030181D01*
X0219977Y0030216D01*
X0220197Y0030246D01*
X0220416Y0030271D01*
X0220637Y0030290D01*
X0220858Y0030303D01*
X0221079Y0030311D01*
X0221300Y0030314D01*
X0221521Y0030311D01*
X0221742Y0030303D01*
X0221963Y0030290D01*
X0222184Y0030271D01*
X0222403Y0030246D01*
X0222623Y0030216D01*
X0222841Y0030181D01*
X0223059Y0030141D01*
X0223275Y0030095D01*
X0223490Y0030044D01*
X0223704Y0029987D01*
X0223917Y0029926D01*
X0224128Y0029859D01*
X0224337Y0029787D01*
X0224544Y0029710D01*
X0224750Y0029628D01*
X0224953Y0029541D01*
X0225154Y0029449D01*
X0225353Y0029352D01*
X0225549Y0029250D01*
X0225743Y0029143D01*
X0225934Y0029032D01*
X0226122Y0028916D01*
X0226308Y0028795D01*
X0226490Y0028670D01*
X0226670Y0028540D01*
X0226846Y0028406D01*
X0227018Y0028268D01*
X0227188Y0028125D01*
X0227353Y0027979D01*
X0227516Y0027828D01*
X0227674Y0027674D01*
X0227828Y0027516D01*
X0227979Y0027353D01*
X0228125Y0027188D01*
X0228268Y0027018D01*
X0228406Y0026846D01*
X0228540Y0026670D01*
X0228670Y0026490D01*
X0228795Y0026308D01*
X0228916Y0026122D01*
X0229032Y0025934D01*
X0229143Y0025743D01*
X0229250Y0025549D01*
X0229352Y0025353D01*
X0229449Y0025154D01*
X0229541Y0024953D01*
X0229628Y0024750D01*
X0229710Y0024544D01*
X0229787Y0024337D01*
X0229859Y0024128D01*
X0229926Y0023917D01*
X0229987Y0023704D01*
X0230044Y0023490D01*
X0230095Y0023275D01*
X0230141Y0023059D01*
X0230181Y0022841D01*
X0230216Y0022623D01*
X0230246Y0022403D01*
X0230271Y0022184D01*
X0230290Y0021963D01*
X0230303Y0021742D01*
X0230311Y0021521D01*
X0230314Y0021300D01*
X0230311Y0021079D01*
X0230303Y0020858D01*
X0230290Y0020637D01*
X0230271Y0020416D01*
X0230246Y0020197D01*
X0230216Y0019977D01*
X0230181Y0019759D01*
X0230141Y0019541D01*
X0230095Y0019325D01*
X0230044Y0019110D01*
X0229987Y0018896D01*
X0229926Y0018683D01*
X0229859Y0018472D01*
X0229787Y0018263D01*
X0229710Y0018056D01*
X0229628Y0017850D01*
X0229541Y0017647D01*
X0229449Y0017446D01*
X0229352Y0017247D01*
X0229250Y0017051D01*
X0229143Y0016857D01*
X0229032Y0016666D01*
X0228916Y0016478D01*
X0228795Y0016292D01*
X0228670Y0016110D01*
X0228540Y0015930D01*
X0228406Y0015754D01*
X0228268Y0015582D01*
X0228125Y0015412D01*
X0227979Y0015247D01*
X0227828Y0015084D01*
X0227674Y0014926D01*
X0227516Y0014772D01*
X0227353Y0014621D01*
X0227188Y0014475D01*
X0227018Y0014332D01*
X0226846Y0014194D01*
X0226670Y0014060D01*
X0226490Y0013930D01*
X0226308Y0013805D01*
X0226122Y0013684D01*
X0225934Y0013568D01*
X0225743Y0013457D01*
X0225549Y0013350D01*
X0225353Y0013248D01*
X0225154Y0013151D01*
X0224953Y0013059D01*
X0224750Y0012972D01*
X0224544Y0012890D01*
X0224337Y0012813D01*
X0224128Y0012741D01*
X0223917Y0012674D01*
X0223704Y0012613D01*
X0223490Y0012556D01*
X0223275Y0012505D01*
X0223059Y0012459D01*
X0222841Y0012419D01*
X0222623Y0012384D01*
X0222403Y0012354D01*
X0222184Y0012329D01*
X0221963Y0012310D01*
X0221742Y0012297D01*
X0221521Y0012289D01*
X0221300Y0012286D01*
X0221079Y0012289D01*
X0220858Y0012297D01*
X0220637Y0012310D01*
X0220416Y0012329D01*
X0220197Y0012354D01*
X0219977Y0012384D01*
X0219759Y0012419D01*
X0219541Y0012459D01*
X0219325Y0012505D01*
X0219110Y0012556D01*
X0218896Y0012613D01*
X0218683Y0012674D01*
X0218472Y0012741D01*
X0218263Y0012813D01*
X0218056Y0012890D01*
X0217850Y0012972D01*
X0217647Y0013059D01*
X0217446Y0013151D01*
X0217247Y0013248D01*
X0217051Y0013350D01*
X0216857Y0013457D01*
X0216666Y0013568D01*
X0216478Y0013684D01*
X0216292Y0013805D01*
X0216110Y0013930D01*
X0215930Y0014060D01*
X0215754Y0014194D01*
X0215582Y0014332D01*
X0215412Y0014475D01*
X0215247Y0014621D01*
X0215084Y0014772D01*
X0214926Y0014926D01*
X0214772Y0015084D01*
X0214621Y0015247D01*
X0214475Y0015412D01*
X0214332Y0015582D01*
X0214194Y0015754D01*
X0214060Y0015930D01*
X0213930Y0016110D01*
X0213805Y0016292D01*
X0213684Y0016478D01*
X0213568Y0016666D01*
X0213457Y0016857D01*
X0213350Y0017051D01*
X0213248Y0017247D01*
X0213151Y0017446D01*
X0213059Y0017647D01*
X0212972Y0017850D01*
X0212890Y0018056D01*
X0212813Y0018263D01*
X0212741Y0018472D01*
X0212674Y0018683D01*
X0212613Y0018896D01*
X0212556Y0019110D01*
X0212505Y0019325D01*
X0212459Y0019541D01*
X0212419Y0019759D01*
X0212384Y0019977D01*
X0212354Y0020197D01*
X0212329Y0020416D01*
X0212310Y0020637D01*
X0212297Y0020858D01*
X0212289Y0021079D01*
X0212286Y0021300D01*
X0232286Y0021300D02*
X0232289Y0021521D01*
X0232297Y0021742D01*
X0232310Y0021963D01*
X0232329Y0022184D01*
X0232354Y0022403D01*
X0232384Y0022623D01*
X0232419Y0022841D01*
X0232459Y0023059D01*
X0232505Y0023275D01*
X0232556Y0023490D01*
X0232613Y0023704D01*
X0232674Y0023917D01*
X0232741Y0024128D01*
X0232813Y0024337D01*
X0232890Y0024544D01*
X0232972Y0024750D01*
X0233059Y0024953D01*
X0233151Y0025154D01*
X0233248Y0025353D01*
X0233350Y0025549D01*
X0233457Y0025743D01*
X0233568Y0025934D01*
X0233684Y0026122D01*
X0233805Y0026308D01*
X0233930Y0026490D01*
X0234060Y0026670D01*
X0234194Y0026846D01*
X0234332Y0027018D01*
X0234475Y0027188D01*
X0234621Y0027353D01*
X0234772Y0027516D01*
X0234926Y0027674D01*
X0235084Y0027828D01*
X0235247Y0027979D01*
X0235412Y0028125D01*
X0235582Y0028268D01*
X0235754Y0028406D01*
X0235930Y0028540D01*
X0236110Y0028670D01*
X0236292Y0028795D01*
X0236478Y0028916D01*
X0236666Y0029032D01*
X0236857Y0029143D01*
X0237051Y0029250D01*
X0237247Y0029352D01*
X0237446Y0029449D01*
X0237647Y0029541D01*
X0237850Y0029628D01*
X0238056Y0029710D01*
X0238263Y0029787D01*
X0238472Y0029859D01*
X0238683Y0029926D01*
X0238896Y0029987D01*
X0239110Y0030044D01*
X0239325Y0030095D01*
X0239541Y0030141D01*
X0239759Y0030181D01*
X0239977Y0030216D01*
X0240197Y0030246D01*
X0240416Y0030271D01*
X0240637Y0030290D01*
X0240858Y0030303D01*
X0241079Y0030311D01*
X0241300Y0030314D01*
X0241521Y0030311D01*
X0241742Y0030303D01*
X0241963Y0030290D01*
X0242184Y0030271D01*
X0242403Y0030246D01*
X0242623Y0030216D01*
X0242841Y0030181D01*
X0243059Y0030141D01*
X0243275Y0030095D01*
X0243490Y0030044D01*
X0243704Y0029987D01*
X0243917Y0029926D01*
X0244128Y0029859D01*
X0244337Y0029787D01*
X0244544Y0029710D01*
X0244750Y0029628D01*
X0244953Y0029541D01*
X0245154Y0029449D01*
X0245353Y0029352D01*
X0245549Y0029250D01*
X0245743Y0029143D01*
X0245934Y0029032D01*
X0246122Y0028916D01*
X0246308Y0028795D01*
X0246490Y0028670D01*
X0246670Y0028540D01*
X0246846Y0028406D01*
X0247018Y0028268D01*
X0247188Y0028125D01*
X0247353Y0027979D01*
X0247516Y0027828D01*
X0247674Y0027674D01*
X0247828Y0027516D01*
X0247979Y0027353D01*
X0248125Y0027188D01*
X0248268Y0027018D01*
X0248406Y0026846D01*
X0248540Y0026670D01*
X0248670Y0026490D01*
X0248795Y0026308D01*
X0248916Y0026122D01*
X0249032Y0025934D01*
X0249143Y0025743D01*
X0249250Y0025549D01*
X0249352Y0025353D01*
X0249449Y0025154D01*
X0249541Y0024953D01*
X0249628Y0024750D01*
X0249710Y0024544D01*
X0249787Y0024337D01*
X0249859Y0024128D01*
X0249926Y0023917D01*
X0249987Y0023704D01*
X0250044Y0023490D01*
X0250095Y0023275D01*
X0250141Y0023059D01*
X0250181Y0022841D01*
X0250216Y0022623D01*
X0250246Y0022403D01*
X0250271Y0022184D01*
X0250290Y0021963D01*
X0250303Y0021742D01*
X0250311Y0021521D01*
X0250314Y0021300D01*
X0250311Y0021079D01*
X0250303Y0020858D01*
X0250290Y0020637D01*
X0250271Y0020416D01*
X0250246Y0020197D01*
X0250216Y0019977D01*
X0250181Y0019759D01*
X0250141Y0019541D01*
X0250095Y0019325D01*
X0250044Y0019110D01*
X0249987Y0018896D01*
X0249926Y0018683D01*
X0249859Y0018472D01*
X0249787Y0018263D01*
X0249710Y0018056D01*
X0249628Y0017850D01*
X0249541Y0017647D01*
X0249449Y0017446D01*
X0249352Y0017247D01*
X0249250Y0017051D01*
X0249143Y0016857D01*
X0249032Y0016666D01*
X0248916Y0016478D01*
X0248795Y0016292D01*
X0248670Y0016110D01*
X0248540Y0015930D01*
X0248406Y0015754D01*
X0248268Y0015582D01*
X0248125Y0015412D01*
X0247979Y0015247D01*
X0247828Y0015084D01*
X0247674Y0014926D01*
X0247516Y0014772D01*
X0247353Y0014621D01*
X0247188Y0014475D01*
X0247018Y0014332D01*
X0246846Y0014194D01*
X0246670Y0014060D01*
X0246490Y0013930D01*
X0246308Y0013805D01*
X0246122Y0013684D01*
X0245934Y0013568D01*
X0245743Y0013457D01*
X0245549Y0013350D01*
X0245353Y0013248D01*
X0245154Y0013151D01*
X0244953Y0013059D01*
X0244750Y0012972D01*
X0244544Y0012890D01*
X0244337Y0012813D01*
X0244128Y0012741D01*
X0243917Y0012674D01*
X0243704Y0012613D01*
X0243490Y0012556D01*
X0243275Y0012505D01*
X0243059Y0012459D01*
X0242841Y0012419D01*
X0242623Y0012384D01*
X0242403Y0012354D01*
X0242184Y0012329D01*
X0241963Y0012310D01*
X0241742Y0012297D01*
X0241521Y0012289D01*
X0241300Y0012286D01*
X0241079Y0012289D01*
X0240858Y0012297D01*
X0240637Y0012310D01*
X0240416Y0012329D01*
X0240197Y0012354D01*
X0239977Y0012384D01*
X0239759Y0012419D01*
X0239541Y0012459D01*
X0239325Y0012505D01*
X0239110Y0012556D01*
X0238896Y0012613D01*
X0238683Y0012674D01*
X0238472Y0012741D01*
X0238263Y0012813D01*
X0238056Y0012890D01*
X0237850Y0012972D01*
X0237647Y0013059D01*
X0237446Y0013151D01*
X0237247Y0013248D01*
X0237051Y0013350D01*
X0236857Y0013457D01*
X0236666Y0013568D01*
X0236478Y0013684D01*
X0236292Y0013805D01*
X0236110Y0013930D01*
X0235930Y0014060D01*
X0235754Y0014194D01*
X0235582Y0014332D01*
X0235412Y0014475D01*
X0235247Y0014621D01*
X0235084Y0014772D01*
X0234926Y0014926D01*
X0234772Y0015084D01*
X0234621Y0015247D01*
X0234475Y0015412D01*
X0234332Y0015582D01*
X0234194Y0015754D01*
X0234060Y0015930D01*
X0233930Y0016110D01*
X0233805Y0016292D01*
X0233684Y0016478D01*
X0233568Y0016666D01*
X0233457Y0016857D01*
X0233350Y0017051D01*
X0233248Y0017247D01*
X0233151Y0017446D01*
X0233059Y0017647D01*
X0232972Y0017850D01*
X0232890Y0018056D01*
X0232813Y0018263D01*
X0232741Y0018472D01*
X0232674Y0018683D01*
X0232613Y0018896D01*
X0232556Y0019110D01*
X0232505Y0019325D01*
X0232459Y0019541D01*
X0232419Y0019759D01*
X0232384Y0019977D01*
X0232354Y0020197D01*
X0232329Y0020416D01*
X0232310Y0020637D01*
X0232297Y0020858D01*
X0232289Y0021079D01*
X0232286Y0021300D01*
X0226300Y0076300D02*
X0306300Y0076300D01*
X0306300Y0141300D01*
X0226300Y0141300D01*
X0226300Y0076300D01*
X0186300Y0076300D02*
X0106300Y0076300D01*
X0106300Y0141300D01*
X0186300Y0141300D01*
X0186300Y0076300D01*
X0206350Y0130550D02*
X0206350Y0135050D01*
X0207600Y0135050D01*
X0207669Y0135048D01*
X0207738Y0135042D01*
X0207806Y0135033D01*
X0207873Y0135020D01*
X0207940Y0135003D01*
X0208006Y0134982D01*
X0208070Y0134958D01*
X0208133Y0134930D01*
X0208195Y0134899D01*
X0208255Y0134865D01*
X0208312Y0134827D01*
X0208368Y0134786D01*
X0208421Y0134743D01*
X0208472Y0134696D01*
X0208520Y0134647D01*
X0208565Y0134595D01*
X0208607Y0134540D01*
X0208646Y0134484D01*
X0208683Y0134425D01*
X0208715Y0134364D01*
X0208745Y0134302D01*
X0208771Y0134238D01*
X0208793Y0134173D01*
X0208812Y0134107D01*
X0208827Y0134040D01*
X0208838Y0133972D01*
X0208846Y0133903D01*
X0208850Y0133834D01*
X0208850Y0133766D01*
X0208846Y0133697D01*
X0208838Y0133628D01*
X0208827Y0133560D01*
X0208812Y0133493D01*
X0208793Y0133427D01*
X0208771Y0133362D01*
X0208745Y0133298D01*
X0208715Y0133236D01*
X0208683Y0133175D01*
X0208646Y0133116D01*
X0208607Y0133060D01*
X0208565Y0133005D01*
X0208520Y0132953D01*
X0208472Y0132904D01*
X0208421Y0132857D01*
X0208368Y0132814D01*
X0208312Y0132773D01*
X0208255Y0132735D01*
X0208195Y0132701D01*
X0208133Y0132670D01*
X0208070Y0132642D01*
X0208006Y0132618D01*
X0207940Y0132597D01*
X0207873Y0132580D01*
X0207806Y0132567D01*
X0207738Y0132558D01*
X0207669Y0132552D01*
X0207600Y0132550D01*
X0206350Y0132550D01*
X0207850Y0132550D02*
X0208850Y0130550D01*
X0210817Y0130550D02*
X0212317Y0130550D01*
X0212377Y0130552D01*
X0212438Y0130557D01*
X0212497Y0130566D01*
X0212556Y0130579D01*
X0212615Y0130595D01*
X0212672Y0130615D01*
X0212727Y0130638D01*
X0212782Y0130665D01*
X0212834Y0130694D01*
X0212885Y0130727D01*
X0212934Y0130763D01*
X0212980Y0130801D01*
X0213024Y0130843D01*
X0213066Y0130887D01*
X0213104Y0130933D01*
X0213140Y0130982D01*
X0213173Y0131033D01*
X0213202Y0131085D01*
X0213229Y0131140D01*
X0213252Y0131195D01*
X0213272Y0131252D01*
X0213288Y0131311D01*
X0213301Y0131370D01*
X0213310Y0131429D01*
X0213315Y0131490D01*
X0213317Y0131550D01*
X0213317Y0132050D01*
X0213315Y0132110D01*
X0213310Y0132171D01*
X0213301Y0132230D01*
X0213288Y0132289D01*
X0213272Y0132348D01*
X0213252Y0132405D01*
X0213229Y0132460D01*
X0213202Y0132515D01*
X0213173Y0132567D01*
X0213140Y0132618D01*
X0213104Y0132667D01*
X0213066Y0132713D01*
X0213024Y0132757D01*
X0212980Y0132799D01*
X0212934Y0132837D01*
X0212885Y0132873D01*
X0212834Y0132906D01*
X0212782Y0132935D01*
X0212727Y0132962D01*
X0212672Y0132985D01*
X0212615Y0133005D01*
X0212556Y0133021D01*
X0212497Y0133034D01*
X0212438Y0133043D01*
X0212377Y0133048D01*
X0212317Y0133050D01*
X0210817Y0133050D01*
X0210817Y0135050D01*
X0213317Y0135050D01*
X0206250Y0138550D02*
X0203750Y0138550D01*
X0204750Y0142050D01*
X0205500Y0139550D02*
X0205500Y0137550D01*
X0201783Y0137550D02*
X0200783Y0139550D01*
X0200533Y0139550D02*
X0199283Y0139550D01*
X0200533Y0139550D02*
X0200602Y0139552D01*
X0200671Y0139558D01*
X0200739Y0139567D01*
X0200806Y0139580D01*
X0200873Y0139597D01*
X0200939Y0139618D01*
X0201003Y0139642D01*
X0201066Y0139670D01*
X0201128Y0139701D01*
X0201188Y0139735D01*
X0201245Y0139773D01*
X0201301Y0139814D01*
X0201354Y0139857D01*
X0201405Y0139904D01*
X0201453Y0139953D01*
X0201498Y0140005D01*
X0201540Y0140060D01*
X0201579Y0140116D01*
X0201616Y0140175D01*
X0201648Y0140236D01*
X0201678Y0140298D01*
X0201704Y0140362D01*
X0201726Y0140427D01*
X0201745Y0140493D01*
X0201760Y0140560D01*
X0201771Y0140628D01*
X0201779Y0140697D01*
X0201783Y0140766D01*
X0201783Y0140834D01*
X0201779Y0140903D01*
X0201771Y0140972D01*
X0201760Y0141040D01*
X0201745Y0141107D01*
X0201726Y0141173D01*
X0201704Y0141238D01*
X0201678Y0141302D01*
X0201648Y0141364D01*
X0201616Y0141425D01*
X0201579Y0141484D01*
X0201540Y0141540D01*
X0201498Y0141595D01*
X0201453Y0141647D01*
X0201405Y0141696D01*
X0201354Y0141743D01*
X0201301Y0141786D01*
X0201245Y0141827D01*
X0201188Y0141865D01*
X0201128Y0141899D01*
X0201066Y0141930D01*
X0201003Y0141958D01*
X0200939Y0141982D01*
X0200873Y0142003D01*
X0200806Y0142020D01*
X0200739Y0142033D01*
X0200671Y0142042D01*
X0200602Y0142048D01*
X0200533Y0142050D01*
X0199283Y0142050D01*
X0199283Y0137550D01*
X0317750Y0194800D02*
X0322250Y0194800D01*
X0322250Y0193550D02*
X0322250Y0196050D01*
X0324300Y0194800D02*
X0325300Y0195800D01*
X0336800Y0196300D01*
X0336800Y0201300D02*
X0325300Y0201800D01*
X0324300Y0202800D01*
X0324300Y0239800D01*
X0325300Y0240800D01*
X0336800Y0241300D01*
X0325700Y0239000D02*
X0325702Y0239063D01*
X0325708Y0239125D01*
X0325718Y0239187D01*
X0325731Y0239249D01*
X0325749Y0239309D01*
X0325770Y0239368D01*
X0325795Y0239426D01*
X0325824Y0239482D01*
X0325856Y0239536D01*
X0325891Y0239588D01*
X0325929Y0239637D01*
X0325971Y0239685D01*
X0326015Y0239729D01*
X0326063Y0239771D01*
X0326112Y0239809D01*
X0326164Y0239844D01*
X0326218Y0239876D01*
X0326274Y0239905D01*
X0326332Y0239930D01*
X0326391Y0239951D01*
X0326451Y0239969D01*
X0326513Y0239982D01*
X0326575Y0239992D01*
X0326637Y0239998D01*
X0326700Y0240000D01*
X0326763Y0239998D01*
X0326825Y0239992D01*
X0326887Y0239982D01*
X0326949Y0239969D01*
X0327009Y0239951D01*
X0327068Y0239930D01*
X0327126Y0239905D01*
X0327182Y0239876D01*
X0327236Y0239844D01*
X0327288Y0239809D01*
X0327337Y0239771D01*
X0327385Y0239729D01*
X0327429Y0239685D01*
X0327471Y0239637D01*
X0327509Y0239588D01*
X0327544Y0239536D01*
X0327576Y0239482D01*
X0327605Y0239426D01*
X0327630Y0239368D01*
X0327651Y0239309D01*
X0327669Y0239249D01*
X0327682Y0239187D01*
X0327692Y0239125D01*
X0327698Y0239063D01*
X0327700Y0239000D01*
X0327698Y0238937D01*
X0327692Y0238875D01*
X0327682Y0238813D01*
X0327669Y0238751D01*
X0327651Y0238691D01*
X0327630Y0238632D01*
X0327605Y0238574D01*
X0327576Y0238518D01*
X0327544Y0238464D01*
X0327509Y0238412D01*
X0327471Y0238363D01*
X0327429Y0238315D01*
X0327385Y0238271D01*
X0327337Y0238229D01*
X0327288Y0238191D01*
X0327236Y0238156D01*
X0327182Y0238124D01*
X0327126Y0238095D01*
X0327068Y0238070D01*
X0327009Y0238049D01*
X0326949Y0238031D01*
X0326887Y0238018D01*
X0326825Y0238008D01*
X0326763Y0238002D01*
X0326700Y0238000D01*
X0326637Y0238002D01*
X0326575Y0238008D01*
X0326513Y0238018D01*
X0326451Y0238031D01*
X0326391Y0238049D01*
X0326332Y0238070D01*
X0326274Y0238095D01*
X0326218Y0238124D01*
X0326164Y0238156D01*
X0326112Y0238191D01*
X0326063Y0238229D01*
X0326015Y0238271D01*
X0325971Y0238315D01*
X0325929Y0238363D01*
X0325891Y0238412D01*
X0325856Y0238464D01*
X0325824Y0238518D01*
X0325795Y0238574D01*
X0325770Y0238632D01*
X0325749Y0238691D01*
X0325731Y0238751D01*
X0325718Y0238813D01*
X0325708Y0238875D01*
X0325702Y0238937D01*
X0325700Y0239000D01*
X0322250Y0238550D02*
X0322250Y0239800D01*
X0322248Y0239869D01*
X0322242Y0239938D01*
X0322233Y0240006D01*
X0322220Y0240073D01*
X0322203Y0240140D01*
X0322182Y0240206D01*
X0322158Y0240270D01*
X0322130Y0240333D01*
X0322099Y0240395D01*
X0322065Y0240455D01*
X0322027Y0240512D01*
X0321986Y0240568D01*
X0321943Y0240621D01*
X0321896Y0240672D01*
X0321847Y0240720D01*
X0321795Y0240765D01*
X0321740Y0240807D01*
X0321684Y0240846D01*
X0321625Y0240883D01*
X0321564Y0240915D01*
X0321502Y0240945D01*
X0321438Y0240971D01*
X0321373Y0240993D01*
X0321307Y0241012D01*
X0321240Y0241027D01*
X0321172Y0241038D01*
X0321103Y0241046D01*
X0321034Y0241050D01*
X0320966Y0241050D01*
X0320897Y0241046D01*
X0320828Y0241038D01*
X0320760Y0241027D01*
X0320693Y0241012D01*
X0320627Y0240993D01*
X0320562Y0240971D01*
X0320498Y0240945D01*
X0320436Y0240915D01*
X0320375Y0240883D01*
X0320316Y0240846D01*
X0320260Y0240807D01*
X0320205Y0240765D01*
X0320153Y0240720D01*
X0320104Y0240672D01*
X0320057Y0240621D01*
X0320014Y0240568D01*
X0319973Y0240512D01*
X0319935Y0240455D01*
X0319901Y0240395D01*
X0319870Y0240333D01*
X0319842Y0240270D01*
X0319818Y0240206D01*
X0319797Y0240140D01*
X0319780Y0240073D01*
X0319767Y0240006D01*
X0319758Y0239938D01*
X0319752Y0239869D01*
X0319750Y0239800D01*
X0319750Y0240050D02*
X0319750Y0239050D01*
X0319750Y0240050D02*
X0319748Y0240112D01*
X0319742Y0240173D01*
X0319733Y0240234D01*
X0319720Y0240294D01*
X0319703Y0240353D01*
X0319682Y0240411D01*
X0319658Y0240468D01*
X0319631Y0240523D01*
X0319600Y0240576D01*
X0319566Y0240628D01*
X0319529Y0240677D01*
X0319489Y0240724D01*
X0319446Y0240768D01*
X0319401Y0240809D01*
X0319353Y0240848D01*
X0319302Y0240884D01*
X0319250Y0240916D01*
X0319196Y0240945D01*
X0319140Y0240971D01*
X0319082Y0240993D01*
X0319024Y0241012D01*
X0318964Y0241027D01*
X0318903Y0241038D01*
X0318842Y0241046D01*
X0318781Y0241050D01*
X0318719Y0241050D01*
X0318658Y0241046D01*
X0318597Y0241038D01*
X0318536Y0241027D01*
X0318476Y0241012D01*
X0318418Y0240993D01*
X0318360Y0240971D01*
X0318304Y0240945D01*
X0318250Y0240916D01*
X0318198Y0240884D01*
X0318147Y0240848D01*
X0318099Y0240809D01*
X0318054Y0240768D01*
X0318011Y0240724D01*
X0317971Y0240677D01*
X0317934Y0240628D01*
X0317900Y0240576D01*
X0317869Y0240523D01*
X0317842Y0240468D01*
X0317818Y0240411D01*
X0317797Y0240353D01*
X0317780Y0240294D01*
X0317767Y0240234D01*
X0317758Y0240173D01*
X0317752Y0240112D01*
X0317750Y0240050D01*
X0317750Y0238550D01*
X0319000Y0236695D02*
X0321000Y0236695D01*
X0321250Y0236195D02*
X0322250Y0237195D01*
X0321000Y0236695D02*
X0321069Y0236693D01*
X0321138Y0236687D01*
X0321206Y0236678D01*
X0321273Y0236665D01*
X0321340Y0236648D01*
X0321406Y0236627D01*
X0321470Y0236603D01*
X0321533Y0236575D01*
X0321595Y0236544D01*
X0321655Y0236510D01*
X0321712Y0236472D01*
X0321768Y0236431D01*
X0321821Y0236388D01*
X0321872Y0236341D01*
X0321920Y0236292D01*
X0321965Y0236240D01*
X0322007Y0236185D01*
X0322046Y0236129D01*
X0322083Y0236070D01*
X0322115Y0236009D01*
X0322145Y0235947D01*
X0322171Y0235883D01*
X0322193Y0235818D01*
X0322212Y0235752D01*
X0322227Y0235685D01*
X0322238Y0235617D01*
X0322246Y0235548D01*
X0322250Y0235479D01*
X0322250Y0235411D01*
X0322246Y0235342D01*
X0322238Y0235273D01*
X0322227Y0235205D01*
X0322212Y0235138D01*
X0322193Y0235072D01*
X0322171Y0235007D01*
X0322145Y0234943D01*
X0322115Y0234881D01*
X0322083Y0234820D01*
X0322046Y0234761D01*
X0322007Y0234705D01*
X0321965Y0234650D01*
X0321920Y0234598D01*
X0321872Y0234549D01*
X0321821Y0234502D01*
X0321768Y0234459D01*
X0321712Y0234418D01*
X0321655Y0234380D01*
X0321595Y0234346D01*
X0321533Y0234315D01*
X0321470Y0234287D01*
X0321406Y0234263D01*
X0321340Y0234242D01*
X0321273Y0234225D01*
X0321206Y0234212D01*
X0321138Y0234203D01*
X0321069Y0234197D01*
X0321000Y0234195D01*
X0319000Y0234195D01*
X0318931Y0234197D01*
X0318862Y0234203D01*
X0318794Y0234212D01*
X0318727Y0234225D01*
X0318660Y0234242D01*
X0318594Y0234263D01*
X0318530Y0234287D01*
X0318467Y0234315D01*
X0318405Y0234346D01*
X0318345Y0234380D01*
X0318288Y0234418D01*
X0318232Y0234459D01*
X0318179Y0234502D01*
X0318128Y0234549D01*
X0318080Y0234598D01*
X0318035Y0234650D01*
X0317993Y0234705D01*
X0317954Y0234761D01*
X0317917Y0234820D01*
X0317885Y0234881D01*
X0317855Y0234943D01*
X0317829Y0235007D01*
X0317807Y0235072D01*
X0317788Y0235138D01*
X0317773Y0235205D01*
X0317762Y0235273D01*
X0317754Y0235342D01*
X0317750Y0235411D01*
X0317750Y0235479D01*
X0317754Y0235548D01*
X0317762Y0235617D01*
X0317773Y0235685D01*
X0317788Y0235752D01*
X0317807Y0235818D01*
X0317829Y0235883D01*
X0317855Y0235947D01*
X0317885Y0236009D01*
X0317917Y0236070D01*
X0317954Y0236129D01*
X0317993Y0236185D01*
X0318035Y0236240D01*
X0318080Y0236292D01*
X0318128Y0236341D01*
X0318179Y0236388D01*
X0318232Y0236431D01*
X0318288Y0236472D01*
X0318345Y0236510D01*
X0318405Y0236544D01*
X0318467Y0236575D01*
X0318530Y0236603D01*
X0318594Y0236627D01*
X0318660Y0236648D01*
X0318727Y0236665D01*
X0318794Y0236678D01*
X0318862Y0236687D01*
X0318931Y0236693D01*
X0319000Y0236695D01*
X0370788Y0224961D02*
X0375119Y0224961D01*
X0375119Y0208032D01*
X0370788Y0208032D01*
X0370788Y0207639D01*
X0389686Y0215119D02*
X0401103Y0215119D01*
X0401103Y0217481D02*
X0389686Y0217481D01*
X0389686Y0215119D01*
X0375119Y0179961D02*
X0370788Y0179961D01*
X0375119Y0179961D02*
X0375119Y0163032D01*
X0370788Y0163032D01*
X0370788Y0162639D01*
X0389686Y0170119D02*
X0401103Y0170119D01*
X0401103Y0172481D02*
X0389686Y0172481D01*
X0389686Y0170119D01*
X0375119Y0134961D02*
X0370788Y0134961D01*
X0375119Y0134961D02*
X0375119Y0118032D01*
X0370788Y0118032D01*
X0370788Y0117639D01*
X0389686Y0125119D02*
X0401103Y0125119D01*
X0401103Y0127481D02*
X0389686Y0127481D01*
X0389686Y0125119D01*
X0358950Y0082733D02*
X0358950Y0081678D01*
X0357894Y0082575D01*
X0357050Y0082258D02*
X0357052Y0082210D01*
X0357058Y0082163D01*
X0357067Y0082116D01*
X0357080Y0082069D01*
X0357096Y0082024D01*
X0357117Y0081981D01*
X0357140Y0081939D01*
X0357167Y0081899D01*
X0357196Y0081862D01*
X0357229Y0081826D01*
X0357264Y0081794D01*
X0357302Y0081764D01*
X0357342Y0081738D01*
X0357384Y0081714D01*
X0357427Y0081694D01*
X0357472Y0081678D01*
X0357894Y0082575D02*
X0357865Y0082603D01*
X0357833Y0082630D01*
X0357799Y0082653D01*
X0357763Y0082674D01*
X0357726Y0082692D01*
X0357687Y0082706D01*
X0357648Y0082718D01*
X0357607Y0082726D01*
X0357566Y0082731D01*
X0357525Y0082733D01*
X0357484Y0082731D01*
X0357443Y0082726D01*
X0357402Y0082717D01*
X0357363Y0082704D01*
X0357324Y0082688D01*
X0357288Y0082669D01*
X0357253Y0082647D01*
X0357220Y0082622D01*
X0357189Y0082594D01*
X0357161Y0082563D01*
X0357136Y0082530D01*
X0357114Y0082496D01*
X0357095Y0082459D01*
X0357079Y0082420D01*
X0357066Y0082381D01*
X0357057Y0082341D01*
X0357052Y0082299D01*
X0357050Y0082258D01*
X0357050Y0080711D02*
X0357050Y0080289D01*
X0357052Y0080250D01*
X0357057Y0080211D01*
X0357066Y0080173D01*
X0357079Y0080137D01*
X0357094Y0080101D01*
X0357113Y0080067D01*
X0357135Y0080035D01*
X0357160Y0080005D01*
X0357188Y0079977D01*
X0357218Y0079952D01*
X0357250Y0079930D01*
X0357284Y0079911D01*
X0357320Y0079895D01*
X0357357Y0079883D01*
X0357394Y0079874D01*
X0357433Y0079869D01*
X0357472Y0079867D01*
X0358528Y0079867D01*
X0358567Y0079869D01*
X0358606Y0079874D01*
X0358643Y0079883D01*
X0358680Y0079895D01*
X0358716Y0079911D01*
X0358750Y0079930D01*
X0358782Y0079952D01*
X0358812Y0079977D01*
X0358840Y0080005D01*
X0358865Y0080035D01*
X0358887Y0080067D01*
X0358906Y0080101D01*
X0358922Y0080137D01*
X0358934Y0080174D01*
X0358943Y0080211D01*
X0358948Y0080250D01*
X0358950Y0080289D01*
X0358950Y0080711D01*
X0336800Y0111300D02*
X0325300Y0111800D01*
X0324300Y0112800D01*
X0324300Y0149800D01*
X0325300Y0150800D01*
X0336800Y0151300D01*
X0336800Y0156300D02*
X0325300Y0156800D01*
X0324300Y0157800D01*
X0324300Y0194800D01*
X0325700Y0194000D02*
X0325702Y0194063D01*
X0325708Y0194125D01*
X0325718Y0194187D01*
X0325731Y0194249D01*
X0325749Y0194309D01*
X0325770Y0194368D01*
X0325795Y0194426D01*
X0325824Y0194482D01*
X0325856Y0194536D01*
X0325891Y0194588D01*
X0325929Y0194637D01*
X0325971Y0194685D01*
X0326015Y0194729D01*
X0326063Y0194771D01*
X0326112Y0194809D01*
X0326164Y0194844D01*
X0326218Y0194876D01*
X0326274Y0194905D01*
X0326332Y0194930D01*
X0326391Y0194951D01*
X0326451Y0194969D01*
X0326513Y0194982D01*
X0326575Y0194992D01*
X0326637Y0194998D01*
X0326700Y0195000D01*
X0326763Y0194998D01*
X0326825Y0194992D01*
X0326887Y0194982D01*
X0326949Y0194969D01*
X0327009Y0194951D01*
X0327068Y0194930D01*
X0327126Y0194905D01*
X0327182Y0194876D01*
X0327236Y0194844D01*
X0327288Y0194809D01*
X0327337Y0194771D01*
X0327385Y0194729D01*
X0327429Y0194685D01*
X0327471Y0194637D01*
X0327509Y0194588D01*
X0327544Y0194536D01*
X0327576Y0194482D01*
X0327605Y0194426D01*
X0327630Y0194368D01*
X0327651Y0194309D01*
X0327669Y0194249D01*
X0327682Y0194187D01*
X0327692Y0194125D01*
X0327698Y0194063D01*
X0327700Y0194000D01*
X0327698Y0193937D01*
X0327692Y0193875D01*
X0327682Y0193813D01*
X0327669Y0193751D01*
X0327651Y0193691D01*
X0327630Y0193632D01*
X0327605Y0193574D01*
X0327576Y0193518D01*
X0327544Y0193464D01*
X0327509Y0193412D01*
X0327471Y0193363D01*
X0327429Y0193315D01*
X0327385Y0193271D01*
X0327337Y0193229D01*
X0327288Y0193191D01*
X0327236Y0193156D01*
X0327182Y0193124D01*
X0327126Y0193095D01*
X0327068Y0193070D01*
X0327009Y0193049D01*
X0326949Y0193031D01*
X0326887Y0193018D01*
X0326825Y0193008D01*
X0326763Y0193002D01*
X0326700Y0193000D01*
X0326637Y0193002D01*
X0326575Y0193008D01*
X0326513Y0193018D01*
X0326451Y0193031D01*
X0326391Y0193049D01*
X0326332Y0193070D01*
X0326274Y0193095D01*
X0326218Y0193124D01*
X0326164Y0193156D01*
X0326112Y0193191D01*
X0326063Y0193229D01*
X0326015Y0193271D01*
X0325971Y0193315D01*
X0325929Y0193363D01*
X0325891Y0193412D01*
X0325856Y0193464D01*
X0325824Y0193518D01*
X0325795Y0193574D01*
X0325770Y0193632D01*
X0325749Y0193691D01*
X0325731Y0193751D01*
X0325718Y0193813D01*
X0325708Y0193875D01*
X0325702Y0193937D01*
X0325700Y0194000D01*
X0322250Y0192195D02*
X0321250Y0191195D01*
X0321000Y0191695D02*
X0319000Y0191695D01*
X0318931Y0191693D01*
X0318862Y0191687D01*
X0318794Y0191678D01*
X0318727Y0191665D01*
X0318660Y0191648D01*
X0318594Y0191627D01*
X0318530Y0191603D01*
X0318467Y0191575D01*
X0318405Y0191544D01*
X0318345Y0191510D01*
X0318288Y0191472D01*
X0318232Y0191431D01*
X0318179Y0191388D01*
X0318128Y0191341D01*
X0318080Y0191292D01*
X0318035Y0191240D01*
X0317993Y0191185D01*
X0317954Y0191129D01*
X0317917Y0191070D01*
X0317885Y0191009D01*
X0317855Y0190947D01*
X0317829Y0190883D01*
X0317807Y0190818D01*
X0317788Y0190752D01*
X0317773Y0190685D01*
X0317762Y0190617D01*
X0317754Y0190548D01*
X0317750Y0190479D01*
X0317750Y0190411D01*
X0317754Y0190342D01*
X0317762Y0190273D01*
X0317773Y0190205D01*
X0317788Y0190138D01*
X0317807Y0190072D01*
X0317829Y0190007D01*
X0317855Y0189943D01*
X0317885Y0189881D01*
X0317917Y0189820D01*
X0317954Y0189761D01*
X0317993Y0189705D01*
X0318035Y0189650D01*
X0318080Y0189598D01*
X0318128Y0189549D01*
X0318179Y0189502D01*
X0318232Y0189459D01*
X0318288Y0189418D01*
X0318345Y0189380D01*
X0318405Y0189346D01*
X0318467Y0189315D01*
X0318530Y0189287D01*
X0318594Y0189263D01*
X0318660Y0189242D01*
X0318727Y0189225D01*
X0318794Y0189212D01*
X0318862Y0189203D01*
X0318931Y0189197D01*
X0319000Y0189195D01*
X0321000Y0189195D01*
X0321069Y0189197D01*
X0321138Y0189203D01*
X0321206Y0189212D01*
X0321273Y0189225D01*
X0321340Y0189242D01*
X0321406Y0189263D01*
X0321470Y0189287D01*
X0321533Y0189315D01*
X0321595Y0189346D01*
X0321655Y0189380D01*
X0321712Y0189418D01*
X0321768Y0189459D01*
X0321821Y0189502D01*
X0321872Y0189549D01*
X0321920Y0189598D01*
X0321965Y0189650D01*
X0322007Y0189705D01*
X0322046Y0189761D01*
X0322083Y0189820D01*
X0322115Y0189881D01*
X0322145Y0189943D01*
X0322171Y0190007D01*
X0322193Y0190072D01*
X0322212Y0190138D01*
X0322227Y0190205D01*
X0322238Y0190273D01*
X0322246Y0190342D01*
X0322250Y0190411D01*
X0322250Y0190479D01*
X0322246Y0190548D01*
X0322238Y0190617D01*
X0322227Y0190685D01*
X0322212Y0190752D01*
X0322193Y0190818D01*
X0322171Y0190883D01*
X0322145Y0190947D01*
X0322115Y0191009D01*
X0322083Y0191070D01*
X0322046Y0191129D01*
X0322007Y0191185D01*
X0321965Y0191240D01*
X0321920Y0191292D01*
X0321872Y0191341D01*
X0321821Y0191388D01*
X0321768Y0191431D01*
X0321712Y0191472D01*
X0321655Y0191510D01*
X0321595Y0191544D01*
X0321533Y0191575D01*
X0321470Y0191603D01*
X0321406Y0191627D01*
X0321340Y0191648D01*
X0321273Y0191665D01*
X0321206Y0191678D01*
X0321138Y0191687D01*
X0321069Y0191693D01*
X0321000Y0191695D01*
X0318750Y0193550D02*
X0317750Y0194800D01*
X0322250Y0151050D02*
X0322250Y0148550D01*
X0319750Y0150675D01*
X0317750Y0149925D02*
X0317752Y0149852D01*
X0317757Y0149780D01*
X0317766Y0149708D01*
X0317779Y0149636D01*
X0317795Y0149565D01*
X0317815Y0149495D01*
X0317839Y0149427D01*
X0317865Y0149359D01*
X0317896Y0149293D01*
X0317929Y0149228D01*
X0317966Y0149166D01*
X0318005Y0149105D01*
X0318048Y0149046D01*
X0318094Y0148989D01*
X0318142Y0148935D01*
X0318193Y0148884D01*
X0318247Y0148834D01*
X0318303Y0148788D01*
X0318361Y0148745D01*
X0318422Y0148704D01*
X0318484Y0148667D01*
X0318548Y0148633D01*
X0318614Y0148602D01*
X0318681Y0148574D01*
X0318750Y0148550D01*
X0319750Y0150675D02*
X0319704Y0150721D01*
X0319655Y0150765D01*
X0319604Y0150805D01*
X0319551Y0150843D01*
X0319496Y0150878D01*
X0319439Y0150910D01*
X0319381Y0150939D01*
X0319321Y0150965D01*
X0319259Y0150987D01*
X0319197Y0151006D01*
X0319134Y0151022D01*
X0319070Y0151034D01*
X0319005Y0151043D01*
X0318940Y0151048D01*
X0318875Y0151050D01*
X0318810Y0151048D01*
X0318744Y0151042D01*
X0318680Y0151033D01*
X0318616Y0151020D01*
X0318552Y0151003D01*
X0318490Y0150982D01*
X0318429Y0150958D01*
X0318370Y0150930D01*
X0318313Y0150899D01*
X0318257Y0150865D01*
X0318203Y0150827D01*
X0318152Y0150787D01*
X0318103Y0150743D01*
X0318057Y0150697D01*
X0318013Y0150648D01*
X0317973Y0150597D01*
X0317935Y0150543D01*
X0317901Y0150488D01*
X0317870Y0150430D01*
X0317842Y0150371D01*
X0317818Y0150310D01*
X0317797Y0150248D01*
X0317780Y0150184D01*
X0317767Y0150120D01*
X0317758Y0150056D01*
X0317752Y0149990D01*
X0317750Y0149925D01*
X0319000Y0146695D02*
X0321000Y0146695D01*
X0321250Y0146195D02*
X0322250Y0147195D01*
X0321000Y0146695D02*
X0321069Y0146693D01*
X0321138Y0146687D01*
X0321206Y0146678D01*
X0321273Y0146665D01*
X0321340Y0146648D01*
X0321406Y0146627D01*
X0321470Y0146603D01*
X0321533Y0146575D01*
X0321595Y0146544D01*
X0321655Y0146510D01*
X0321712Y0146472D01*
X0321768Y0146431D01*
X0321821Y0146388D01*
X0321872Y0146341D01*
X0321920Y0146292D01*
X0321965Y0146240D01*
X0322007Y0146185D01*
X0322046Y0146129D01*
X0322083Y0146070D01*
X0322115Y0146009D01*
X0322145Y0145947D01*
X0322171Y0145883D01*
X0322193Y0145818D01*
X0322212Y0145752D01*
X0322227Y0145685D01*
X0322238Y0145617D01*
X0322246Y0145548D01*
X0322250Y0145479D01*
X0322250Y0145411D01*
X0322246Y0145342D01*
X0322238Y0145273D01*
X0322227Y0145205D01*
X0322212Y0145138D01*
X0322193Y0145072D01*
X0322171Y0145007D01*
X0322145Y0144943D01*
X0322115Y0144881D01*
X0322083Y0144820D01*
X0322046Y0144761D01*
X0322007Y0144705D01*
X0321965Y0144650D01*
X0321920Y0144598D01*
X0321872Y0144549D01*
X0321821Y0144502D01*
X0321768Y0144459D01*
X0321712Y0144418D01*
X0321655Y0144380D01*
X0321595Y0144346D01*
X0321533Y0144315D01*
X0321470Y0144287D01*
X0321406Y0144263D01*
X0321340Y0144242D01*
X0321273Y0144225D01*
X0321206Y0144212D01*
X0321138Y0144203D01*
X0321069Y0144197D01*
X0321000Y0144195D01*
X0319000Y0144195D01*
X0318931Y0144197D01*
X0318862Y0144203D01*
X0318794Y0144212D01*
X0318727Y0144225D01*
X0318660Y0144242D01*
X0318594Y0144263D01*
X0318530Y0144287D01*
X0318467Y0144315D01*
X0318405Y0144346D01*
X0318345Y0144380D01*
X0318288Y0144418D01*
X0318232Y0144459D01*
X0318179Y0144502D01*
X0318128Y0144549D01*
X0318080Y0144598D01*
X0318035Y0144650D01*
X0317993Y0144705D01*
X0317954Y0144761D01*
X0317917Y0144820D01*
X0317885Y0144881D01*
X0317855Y0144943D01*
X0317829Y0145007D01*
X0317807Y0145072D01*
X0317788Y0145138D01*
X0317773Y0145205D01*
X0317762Y0145273D01*
X0317754Y0145342D01*
X0317750Y0145411D01*
X0317750Y0145479D01*
X0317754Y0145548D01*
X0317762Y0145617D01*
X0317773Y0145685D01*
X0317788Y0145752D01*
X0317807Y0145818D01*
X0317829Y0145883D01*
X0317855Y0145947D01*
X0317885Y0146009D01*
X0317917Y0146070D01*
X0317954Y0146129D01*
X0317993Y0146185D01*
X0318035Y0146240D01*
X0318080Y0146292D01*
X0318128Y0146341D01*
X0318179Y0146388D01*
X0318232Y0146431D01*
X0318288Y0146472D01*
X0318345Y0146510D01*
X0318405Y0146544D01*
X0318467Y0146575D01*
X0318530Y0146603D01*
X0318594Y0146627D01*
X0318660Y0146648D01*
X0318727Y0146665D01*
X0318794Y0146678D01*
X0318862Y0146687D01*
X0318931Y0146693D01*
X0319000Y0146695D01*
X0325700Y0149000D02*
X0325702Y0149063D01*
X0325708Y0149125D01*
X0325718Y0149187D01*
X0325731Y0149249D01*
X0325749Y0149309D01*
X0325770Y0149368D01*
X0325795Y0149426D01*
X0325824Y0149482D01*
X0325856Y0149536D01*
X0325891Y0149588D01*
X0325929Y0149637D01*
X0325971Y0149685D01*
X0326015Y0149729D01*
X0326063Y0149771D01*
X0326112Y0149809D01*
X0326164Y0149844D01*
X0326218Y0149876D01*
X0326274Y0149905D01*
X0326332Y0149930D01*
X0326391Y0149951D01*
X0326451Y0149969D01*
X0326513Y0149982D01*
X0326575Y0149992D01*
X0326637Y0149998D01*
X0326700Y0150000D01*
X0326763Y0149998D01*
X0326825Y0149992D01*
X0326887Y0149982D01*
X0326949Y0149969D01*
X0327009Y0149951D01*
X0327068Y0149930D01*
X0327126Y0149905D01*
X0327182Y0149876D01*
X0327236Y0149844D01*
X0327288Y0149809D01*
X0327337Y0149771D01*
X0327385Y0149729D01*
X0327429Y0149685D01*
X0327471Y0149637D01*
X0327509Y0149588D01*
X0327544Y0149536D01*
X0327576Y0149482D01*
X0327605Y0149426D01*
X0327630Y0149368D01*
X0327651Y0149309D01*
X0327669Y0149249D01*
X0327682Y0149187D01*
X0327692Y0149125D01*
X0327698Y0149063D01*
X0327700Y0149000D01*
X0327698Y0148937D01*
X0327692Y0148875D01*
X0327682Y0148813D01*
X0327669Y0148751D01*
X0327651Y0148691D01*
X0327630Y0148632D01*
X0327605Y0148574D01*
X0327576Y0148518D01*
X0327544Y0148464D01*
X0327509Y0148412D01*
X0327471Y0148363D01*
X0327429Y0148315D01*
X0327385Y0148271D01*
X0327337Y0148229D01*
X0327288Y0148191D01*
X0327236Y0148156D01*
X0327182Y0148124D01*
X0327126Y0148095D01*
X0327068Y0148070D01*
X0327009Y0148049D01*
X0326949Y0148031D01*
X0326887Y0148018D01*
X0326825Y0148008D01*
X0326763Y0148002D01*
X0326700Y0148000D01*
X0326637Y0148002D01*
X0326575Y0148008D01*
X0326513Y0148018D01*
X0326451Y0148031D01*
X0326391Y0148049D01*
X0326332Y0148070D01*
X0326274Y0148095D01*
X0326218Y0148124D01*
X0326164Y0148156D01*
X0326112Y0148191D01*
X0326063Y0148229D01*
X0326015Y0148271D01*
X0325971Y0148315D01*
X0325929Y0148363D01*
X0325891Y0148412D01*
X0325856Y0148464D01*
X0325824Y0148518D01*
X0325795Y0148574D01*
X0325770Y0148632D01*
X0325749Y0148691D01*
X0325731Y0148751D01*
X0325718Y0148813D01*
X0325708Y0148875D01*
X0325702Y0148937D01*
X0325700Y0149000D01*
X0321411Y0299839D02*
X0320567Y0299839D01*
X0319729Y0300050D02*
X0318885Y0300050D01*
X0318885Y0301950D01*
X0317857Y0301950D02*
X0317013Y0301950D01*
X0317013Y0300050D01*
X0317857Y0300050D01*
X0317646Y0301106D02*
X0317013Y0301106D01*
X0315757Y0301950D02*
X0315757Y0300050D01*
X0314701Y0301950D01*
X0314701Y0300050D01*
X0313453Y0300050D02*
X0313453Y0301950D01*
X0312397Y0301950D02*
X0313453Y0300050D01*
X0312397Y0300050D02*
X0312397Y0301950D01*
X0310693Y0301950D02*
X0311326Y0300050D01*
X0311168Y0300525D02*
X0310218Y0300525D01*
X0310060Y0300050D02*
X0310693Y0301950D01*
X0308989Y0301950D02*
X0308989Y0300050D01*
X0308989Y0301106D02*
X0307933Y0301106D01*
X0307933Y0301950D02*
X0307933Y0300050D01*
X0306894Y0300050D02*
X0306472Y0300050D01*
X0306433Y0300052D01*
X0306394Y0300057D01*
X0306357Y0300066D01*
X0306320Y0300078D01*
X0306284Y0300094D01*
X0306250Y0300113D01*
X0306218Y0300135D01*
X0306188Y0300160D01*
X0306160Y0300188D01*
X0306135Y0300218D01*
X0306113Y0300250D01*
X0306094Y0300284D01*
X0306078Y0300320D01*
X0306066Y0300357D01*
X0306057Y0300394D01*
X0306052Y0300433D01*
X0306050Y0300472D01*
X0306050Y0301528D01*
X0306052Y0301567D01*
X0306057Y0301606D01*
X0306066Y0301643D01*
X0306078Y0301680D01*
X0306094Y0301716D01*
X0306113Y0301750D01*
X0306135Y0301782D01*
X0306160Y0301812D01*
X0306188Y0301840D01*
X0306218Y0301865D01*
X0306250Y0301887D01*
X0306284Y0301906D01*
X0306320Y0301921D01*
X0306357Y0301934D01*
X0306394Y0301943D01*
X0306433Y0301948D01*
X0306472Y0301950D01*
X0306894Y0301950D01*
X0322511Y0301528D02*
X0322513Y0301488D01*
X0322519Y0301448D01*
X0322528Y0301409D01*
X0322541Y0301371D01*
X0322558Y0301335D01*
X0322578Y0301300D01*
X0322601Y0301267D01*
X0322628Y0301237D01*
X0322657Y0301209D01*
X0322688Y0301184D01*
X0322722Y0301163D01*
X0322758Y0301144D01*
X0322795Y0301129D01*
X0322834Y0301118D01*
X0322873Y0301110D01*
X0322913Y0301106D01*
X0322953Y0301106D01*
X0322993Y0301110D01*
X0323032Y0301118D01*
X0323071Y0301129D01*
X0323108Y0301144D01*
X0323144Y0301163D01*
X0323178Y0301184D01*
X0323209Y0301209D01*
X0323238Y0301237D01*
X0323265Y0301267D01*
X0323288Y0301300D01*
X0323308Y0301335D01*
X0323325Y0301371D01*
X0323338Y0301409D01*
X0323347Y0301448D01*
X0323353Y0301488D01*
X0323355Y0301528D01*
X0323353Y0301568D01*
X0323347Y0301608D01*
X0323338Y0301647D01*
X0323325Y0301685D01*
X0323308Y0301721D01*
X0323288Y0301756D01*
X0323265Y0301789D01*
X0323238Y0301819D01*
X0323209Y0301847D01*
X0323178Y0301872D01*
X0323144Y0301893D01*
X0323108Y0301912D01*
X0323071Y0301927D01*
X0323032Y0301938D01*
X0322993Y0301946D01*
X0322953Y0301950D01*
X0322913Y0301950D01*
X0322873Y0301946D01*
X0322834Y0301938D01*
X0322795Y0301927D01*
X0322758Y0301912D01*
X0322722Y0301893D01*
X0322688Y0301872D01*
X0322657Y0301847D01*
X0322628Y0301819D01*
X0322601Y0301789D01*
X0322578Y0301756D01*
X0322558Y0301721D01*
X0322541Y0301685D01*
X0322528Y0301647D01*
X0322519Y0301608D01*
X0322513Y0301568D01*
X0322511Y0301528D01*
X0322405Y0300578D02*
X0322407Y0300533D01*
X0322413Y0300489D01*
X0322422Y0300445D01*
X0322435Y0300402D01*
X0322452Y0300361D01*
X0322472Y0300320D01*
X0322496Y0300282D01*
X0322522Y0300246D01*
X0322552Y0300213D01*
X0322584Y0300182D01*
X0322619Y0300153D01*
X0322656Y0300128D01*
X0322695Y0300107D01*
X0322736Y0300088D01*
X0322778Y0300073D01*
X0322822Y0300062D01*
X0322866Y0300054D01*
X0322911Y0300050D01*
X0322955Y0300050D01*
X0323000Y0300054D01*
X0323044Y0300062D01*
X0323088Y0300073D01*
X0323130Y0300088D01*
X0323171Y0300107D01*
X0323210Y0300128D01*
X0323247Y0300153D01*
X0323282Y0300182D01*
X0323314Y0300213D01*
X0323344Y0300246D01*
X0323370Y0300282D01*
X0323394Y0300320D01*
X0323414Y0300361D01*
X0323431Y0300402D01*
X0323444Y0300445D01*
X0323453Y0300489D01*
X0323459Y0300533D01*
X0323461Y0300578D01*
X0323459Y0300623D01*
X0323453Y0300667D01*
X0323444Y0300711D01*
X0323431Y0300754D01*
X0323414Y0300795D01*
X0323394Y0300836D01*
X0323370Y0300874D01*
X0323344Y0300910D01*
X0323314Y0300943D01*
X0323282Y0300974D01*
X0323247Y0301003D01*
X0323210Y0301028D01*
X0323171Y0301049D01*
X0323130Y0301068D01*
X0323088Y0301083D01*
X0323044Y0301094D01*
X0323000Y0301102D01*
X0322955Y0301106D01*
X0322911Y0301106D01*
X0322866Y0301102D01*
X0322822Y0301094D01*
X0322778Y0301083D01*
X0322736Y0301068D01*
X0322695Y0301049D01*
X0322656Y0301028D01*
X0322619Y0301003D01*
X0322584Y0300974D01*
X0322552Y0300943D01*
X0322522Y0300910D01*
X0322496Y0300874D01*
X0322472Y0300836D01*
X0322452Y0300795D01*
X0322435Y0300754D01*
X0322422Y0300711D01*
X0322413Y0300667D01*
X0322407Y0300623D01*
X0322405Y0300578D01*
X0341050Y0300050D02*
X0341472Y0300050D01*
X0341261Y0300050D02*
X0341261Y0301950D01*
X0341050Y0301950D02*
X0341472Y0301950D01*
X0342461Y0301422D02*
X0342461Y0300578D01*
X0342463Y0300533D01*
X0342469Y0300489D01*
X0342478Y0300445D01*
X0342491Y0300402D01*
X0342508Y0300361D01*
X0342528Y0300320D01*
X0342552Y0300282D01*
X0342578Y0300246D01*
X0342608Y0300213D01*
X0342640Y0300182D01*
X0342675Y0300153D01*
X0342712Y0300128D01*
X0342751Y0300107D01*
X0342792Y0300088D01*
X0342834Y0300073D01*
X0342878Y0300062D01*
X0342922Y0300054D01*
X0342967Y0300050D01*
X0343011Y0300050D01*
X0343056Y0300054D01*
X0343100Y0300062D01*
X0343144Y0300073D01*
X0343186Y0300088D01*
X0343227Y0300107D01*
X0343266Y0300128D01*
X0343303Y0300153D01*
X0343338Y0300182D01*
X0343370Y0300213D01*
X0343400Y0300246D01*
X0343426Y0300282D01*
X0343450Y0300320D01*
X0343470Y0300361D01*
X0343487Y0300402D01*
X0343500Y0300445D01*
X0343509Y0300489D01*
X0343515Y0300533D01*
X0343517Y0300578D01*
X0343517Y0301422D01*
X0343515Y0301467D01*
X0343509Y0301511D01*
X0343500Y0301555D01*
X0343487Y0301598D01*
X0343470Y0301639D01*
X0343450Y0301680D01*
X0343426Y0301718D01*
X0343400Y0301754D01*
X0343370Y0301787D01*
X0343338Y0301818D01*
X0343303Y0301847D01*
X0343266Y0301872D01*
X0343227Y0301893D01*
X0343186Y0301912D01*
X0343144Y0301927D01*
X0343100Y0301938D01*
X0343056Y0301946D01*
X0343011Y0301950D01*
X0342967Y0301950D01*
X0342922Y0301946D01*
X0342878Y0301938D01*
X0342834Y0301927D01*
X0342792Y0301912D01*
X0342751Y0301893D01*
X0342712Y0301872D01*
X0342675Y0301847D01*
X0342640Y0301818D01*
X0342608Y0301787D01*
X0342578Y0301754D01*
X0342552Y0301718D01*
X0342528Y0301680D01*
X0342508Y0301639D01*
X0342491Y0301598D01*
X0342478Y0301555D01*
X0342469Y0301511D01*
X0342463Y0301467D01*
X0342461Y0301422D01*
X0344511Y0299839D02*
X0345355Y0299839D01*
X0346349Y0300050D02*
X0347405Y0300050D01*
X0346877Y0300050D02*
X0346877Y0301950D01*
X0346349Y0301528D01*
X0376050Y0301950D02*
X0376472Y0301950D01*
X0376261Y0301950D02*
X0376261Y0300050D01*
X0376050Y0300050D02*
X0376472Y0300050D01*
X0377461Y0300578D02*
X0377461Y0301422D01*
X0377463Y0301467D01*
X0377469Y0301511D01*
X0377478Y0301555D01*
X0377491Y0301598D01*
X0377508Y0301639D01*
X0377528Y0301680D01*
X0377552Y0301718D01*
X0377578Y0301754D01*
X0377608Y0301787D01*
X0377640Y0301818D01*
X0377675Y0301847D01*
X0377712Y0301872D01*
X0377751Y0301893D01*
X0377792Y0301912D01*
X0377834Y0301927D01*
X0377878Y0301938D01*
X0377922Y0301946D01*
X0377967Y0301950D01*
X0378011Y0301950D01*
X0378056Y0301946D01*
X0378100Y0301938D01*
X0378144Y0301927D01*
X0378186Y0301912D01*
X0378227Y0301893D01*
X0378266Y0301872D01*
X0378303Y0301847D01*
X0378338Y0301818D01*
X0378370Y0301787D01*
X0378400Y0301754D01*
X0378426Y0301718D01*
X0378450Y0301680D01*
X0378470Y0301639D01*
X0378487Y0301598D01*
X0378500Y0301555D01*
X0378509Y0301511D01*
X0378515Y0301467D01*
X0378517Y0301422D01*
X0378517Y0300578D01*
X0378515Y0300533D01*
X0378509Y0300489D01*
X0378500Y0300445D01*
X0378487Y0300402D01*
X0378470Y0300361D01*
X0378450Y0300320D01*
X0378426Y0300282D01*
X0378400Y0300246D01*
X0378370Y0300213D01*
X0378338Y0300182D01*
X0378303Y0300153D01*
X0378266Y0300128D01*
X0378227Y0300107D01*
X0378186Y0300088D01*
X0378144Y0300073D01*
X0378100Y0300062D01*
X0378056Y0300054D01*
X0378011Y0300050D01*
X0377967Y0300050D01*
X0377922Y0300054D01*
X0377878Y0300062D01*
X0377834Y0300073D01*
X0377792Y0300088D01*
X0377751Y0300107D01*
X0377712Y0300128D01*
X0377675Y0300153D01*
X0377640Y0300182D01*
X0377608Y0300213D01*
X0377578Y0300246D01*
X0377552Y0300282D01*
X0377528Y0300320D01*
X0377508Y0300361D01*
X0377491Y0300402D01*
X0377478Y0300445D01*
X0377469Y0300489D01*
X0377463Y0300533D01*
X0377461Y0300578D01*
X0379511Y0299839D02*
X0380355Y0299839D01*
X0381349Y0300050D02*
X0382405Y0300050D01*
X0381349Y0300050D02*
X0382246Y0301106D01*
X0381930Y0301950D02*
X0381882Y0301948D01*
X0381835Y0301942D01*
X0381787Y0301933D01*
X0381741Y0301920D01*
X0381696Y0301903D01*
X0381653Y0301883D01*
X0381611Y0301860D01*
X0381571Y0301833D01*
X0381534Y0301804D01*
X0381498Y0301771D01*
X0381466Y0301736D01*
X0381436Y0301698D01*
X0381410Y0301658D01*
X0381386Y0301616D01*
X0381366Y0301573D01*
X0381350Y0301528D01*
X0382247Y0301106D02*
X0382275Y0301135D01*
X0382302Y0301167D01*
X0382325Y0301201D01*
X0382346Y0301237D01*
X0382364Y0301274D01*
X0382378Y0301313D01*
X0382390Y0301352D01*
X0382398Y0301393D01*
X0382403Y0301434D01*
X0382405Y0301475D01*
X0382403Y0301516D01*
X0382398Y0301557D01*
X0382389Y0301598D01*
X0382376Y0301637D01*
X0382360Y0301676D01*
X0382341Y0301713D01*
X0382319Y0301747D01*
X0382294Y0301780D01*
X0382266Y0301811D01*
X0382235Y0301839D01*
X0382202Y0301864D01*
X0382168Y0301886D01*
X0382131Y0301905D01*
X0382092Y0301921D01*
X0382053Y0301934D01*
X0382012Y0301943D01*
X0381971Y0301948D01*
X0381930Y0301950D01*
X0288461Y0301950D02*
X0287933Y0300050D01*
X0286411Y0299839D02*
X0285567Y0299839D01*
X0284729Y0300050D02*
X0283885Y0300050D01*
X0283885Y0301950D01*
X0282857Y0301950D02*
X0282013Y0301950D01*
X0282013Y0300050D01*
X0282857Y0300050D01*
X0282646Y0301106D02*
X0282013Y0301106D01*
X0280757Y0301950D02*
X0280757Y0300050D01*
X0279701Y0301950D01*
X0279701Y0300050D01*
X0278453Y0300050D02*
X0278453Y0301950D01*
X0277397Y0301950D02*
X0278453Y0300050D01*
X0277397Y0300050D02*
X0277397Y0301950D01*
X0275693Y0301950D02*
X0276326Y0300050D01*
X0276168Y0300525D02*
X0275218Y0300525D01*
X0275060Y0300050D02*
X0275693Y0301950D01*
X0273989Y0301950D02*
X0273989Y0300050D01*
X0273989Y0301106D02*
X0272933Y0301106D01*
X0272933Y0301950D02*
X0272933Y0300050D01*
X0271894Y0300050D02*
X0271472Y0300050D01*
X0271433Y0300052D01*
X0271394Y0300057D01*
X0271357Y0300066D01*
X0271320Y0300078D01*
X0271284Y0300094D01*
X0271250Y0300113D01*
X0271218Y0300135D01*
X0271188Y0300160D01*
X0271160Y0300188D01*
X0271135Y0300218D01*
X0271113Y0300250D01*
X0271094Y0300284D01*
X0271078Y0300320D01*
X0271066Y0300357D01*
X0271057Y0300394D01*
X0271052Y0300433D01*
X0271050Y0300472D01*
X0271050Y0301528D01*
X0271052Y0301567D01*
X0271057Y0301606D01*
X0271066Y0301643D01*
X0271078Y0301680D01*
X0271094Y0301716D01*
X0271113Y0301750D01*
X0271135Y0301782D01*
X0271160Y0301812D01*
X0271188Y0301840D01*
X0271218Y0301865D01*
X0271250Y0301887D01*
X0271284Y0301906D01*
X0271320Y0301921D01*
X0271357Y0301934D01*
X0271394Y0301943D01*
X0271433Y0301948D01*
X0271472Y0301950D01*
X0271894Y0301950D01*
X0287405Y0301950D02*
X0288461Y0301950D01*
X0287405Y0301950D02*
X0287405Y0301739D01*
X0253461Y0300683D02*
X0253461Y0300578D01*
X0253461Y0300683D02*
X0253459Y0300722D01*
X0253454Y0300761D01*
X0253445Y0300798D01*
X0253433Y0300835D01*
X0253417Y0300871D01*
X0253398Y0300905D01*
X0253376Y0300937D01*
X0253351Y0300967D01*
X0253323Y0300995D01*
X0253293Y0301020D01*
X0253261Y0301042D01*
X0253227Y0301061D01*
X0253191Y0301077D01*
X0253154Y0301089D01*
X0253117Y0301098D01*
X0253078Y0301103D01*
X0253039Y0301105D01*
X0253039Y0301106D02*
X0252405Y0301106D01*
X0252405Y0300578D01*
X0252407Y0300533D01*
X0252413Y0300489D01*
X0252422Y0300445D01*
X0252435Y0300402D01*
X0252452Y0300361D01*
X0252472Y0300320D01*
X0252496Y0300282D01*
X0252522Y0300246D01*
X0252552Y0300213D01*
X0252584Y0300182D01*
X0252619Y0300153D01*
X0252656Y0300128D01*
X0252695Y0300107D01*
X0252736Y0300088D01*
X0252778Y0300073D01*
X0252822Y0300062D01*
X0252866Y0300054D01*
X0252911Y0300050D01*
X0252955Y0300050D01*
X0253000Y0300054D01*
X0253044Y0300062D01*
X0253088Y0300073D01*
X0253130Y0300088D01*
X0253171Y0300107D01*
X0253210Y0300128D01*
X0253247Y0300153D01*
X0253282Y0300182D01*
X0253314Y0300213D01*
X0253344Y0300246D01*
X0253370Y0300282D01*
X0253394Y0300320D01*
X0253414Y0300361D01*
X0253431Y0300402D01*
X0253444Y0300445D01*
X0253453Y0300489D01*
X0253459Y0300533D01*
X0253461Y0300578D01*
X0252406Y0301106D02*
X0252408Y0301164D01*
X0252414Y0301221D01*
X0252424Y0301278D01*
X0252437Y0301334D01*
X0252455Y0301389D01*
X0252476Y0301442D01*
X0252501Y0301494D01*
X0252529Y0301545D01*
X0252560Y0301593D01*
X0252595Y0301639D01*
X0252633Y0301682D01*
X0252674Y0301723D01*
X0252717Y0301761D01*
X0252763Y0301796D01*
X0252811Y0301827D01*
X0252862Y0301855D01*
X0252914Y0301880D01*
X0252967Y0301901D01*
X0253022Y0301919D01*
X0253078Y0301932D01*
X0253135Y0301942D01*
X0253192Y0301948D01*
X0253250Y0301950D01*
X0251411Y0299839D02*
X0250567Y0299839D01*
X0249729Y0300050D02*
X0248885Y0300050D01*
X0248885Y0301950D01*
X0247857Y0301950D02*
X0247013Y0301950D01*
X0247013Y0300050D01*
X0247857Y0300050D01*
X0247646Y0301106D02*
X0247013Y0301106D01*
X0245757Y0301950D02*
X0245757Y0300050D01*
X0244701Y0301950D01*
X0244701Y0300050D01*
X0243453Y0300050D02*
X0243453Y0301950D01*
X0242397Y0301950D02*
X0243453Y0300050D01*
X0242397Y0300050D02*
X0242397Y0301950D01*
X0240693Y0301950D02*
X0241326Y0300050D01*
X0241168Y0300525D02*
X0240218Y0300525D01*
X0240060Y0300050D02*
X0240693Y0301950D01*
X0238989Y0301950D02*
X0238989Y0300050D01*
X0238989Y0301106D02*
X0237933Y0301106D01*
X0237933Y0301950D02*
X0237933Y0300050D01*
X0236894Y0300050D02*
X0236472Y0300050D01*
X0236433Y0300052D01*
X0236394Y0300057D01*
X0236357Y0300066D01*
X0236320Y0300078D01*
X0236284Y0300094D01*
X0236250Y0300113D01*
X0236218Y0300135D01*
X0236188Y0300160D01*
X0236160Y0300188D01*
X0236135Y0300218D01*
X0236113Y0300250D01*
X0236094Y0300284D01*
X0236078Y0300320D01*
X0236066Y0300357D01*
X0236057Y0300394D01*
X0236052Y0300433D01*
X0236050Y0300472D01*
X0236050Y0301528D01*
X0236052Y0301567D01*
X0236057Y0301606D01*
X0236066Y0301643D01*
X0236078Y0301680D01*
X0236094Y0301716D01*
X0236113Y0301750D01*
X0236135Y0301782D01*
X0236160Y0301812D01*
X0236188Y0301840D01*
X0236218Y0301865D01*
X0236250Y0301887D01*
X0236284Y0301906D01*
X0236320Y0301921D01*
X0236357Y0301934D01*
X0236394Y0301943D01*
X0236433Y0301948D01*
X0236472Y0301950D01*
X0236894Y0301950D01*
X0218461Y0301950D02*
X0217405Y0301950D01*
X0217405Y0301106D01*
X0218039Y0301106D01*
X0218039Y0301105D02*
X0218078Y0301103D01*
X0218117Y0301098D01*
X0218154Y0301089D01*
X0218191Y0301077D01*
X0218227Y0301061D01*
X0218261Y0301042D01*
X0218293Y0301020D01*
X0218323Y0300995D01*
X0218351Y0300967D01*
X0218376Y0300937D01*
X0218398Y0300905D01*
X0218417Y0300871D01*
X0218433Y0300835D01*
X0218445Y0300798D01*
X0218454Y0300761D01*
X0218459Y0300722D01*
X0218461Y0300683D01*
X0218461Y0300472D01*
X0218459Y0300433D01*
X0218454Y0300394D01*
X0218445Y0300357D01*
X0218433Y0300320D01*
X0218417Y0300284D01*
X0218398Y0300250D01*
X0218376Y0300218D01*
X0218351Y0300188D01*
X0218323Y0300160D01*
X0218293Y0300135D01*
X0218261Y0300113D01*
X0218227Y0300094D01*
X0218191Y0300078D01*
X0218154Y0300066D01*
X0218117Y0300057D01*
X0218078Y0300052D01*
X0218039Y0300050D01*
X0217405Y0300050D01*
X0216411Y0299839D02*
X0215567Y0299839D01*
X0214729Y0300050D02*
X0213885Y0300050D01*
X0213885Y0301950D01*
X0212857Y0301950D02*
X0212013Y0301950D01*
X0212013Y0300050D01*
X0212857Y0300050D01*
X0212646Y0301106D02*
X0212013Y0301106D01*
X0210757Y0301950D02*
X0210757Y0300050D01*
X0209701Y0301950D01*
X0209701Y0300050D01*
X0208453Y0300050D02*
X0208453Y0301950D01*
X0207397Y0301950D02*
X0207397Y0300050D01*
X0208453Y0300050D02*
X0207397Y0301950D01*
X0205693Y0301950D02*
X0206326Y0300050D01*
X0206168Y0300525D02*
X0205218Y0300525D01*
X0205060Y0300050D02*
X0205693Y0301950D01*
X0203989Y0301950D02*
X0203989Y0300050D01*
X0203989Y0301106D02*
X0202933Y0301106D01*
X0202933Y0301950D02*
X0202933Y0300050D01*
X0201894Y0300050D02*
X0201472Y0300050D01*
X0201433Y0300052D01*
X0201394Y0300057D01*
X0201357Y0300066D01*
X0201320Y0300078D01*
X0201284Y0300094D01*
X0201250Y0300113D01*
X0201218Y0300135D01*
X0201188Y0300160D01*
X0201160Y0300188D01*
X0201135Y0300218D01*
X0201113Y0300250D01*
X0201094Y0300284D01*
X0201078Y0300320D01*
X0201066Y0300357D01*
X0201057Y0300394D01*
X0201052Y0300433D01*
X0201050Y0300472D01*
X0201050Y0301528D01*
X0201052Y0301567D01*
X0201057Y0301606D01*
X0201066Y0301643D01*
X0201078Y0301680D01*
X0201094Y0301716D01*
X0201113Y0301750D01*
X0201135Y0301782D01*
X0201160Y0301812D01*
X0201188Y0301840D01*
X0201218Y0301865D01*
X0201250Y0301887D01*
X0201284Y0301906D01*
X0201320Y0301921D01*
X0201357Y0301934D01*
X0201394Y0301943D01*
X0201433Y0301948D01*
X0201472Y0301950D01*
X0201894Y0301950D01*
X0183461Y0300472D02*
X0182405Y0300472D01*
X0182827Y0301950D01*
X0183144Y0300894D02*
X0183144Y0300050D01*
X0181411Y0299839D02*
X0180567Y0299839D01*
X0179729Y0300050D02*
X0178885Y0300050D01*
X0178885Y0301950D01*
X0177857Y0301950D02*
X0177013Y0301950D01*
X0177013Y0300050D01*
X0177857Y0300050D01*
X0177646Y0301106D02*
X0177013Y0301106D01*
X0175757Y0301950D02*
X0175757Y0300050D01*
X0174701Y0301950D01*
X0174701Y0300050D01*
X0173453Y0300050D02*
X0173453Y0301950D01*
X0172397Y0301950D02*
X0173453Y0300050D01*
X0172397Y0300050D02*
X0172397Y0301950D01*
X0170693Y0301950D02*
X0170060Y0300050D01*
X0170218Y0300525D02*
X0171168Y0300525D01*
X0171326Y0300050D02*
X0170693Y0301950D01*
X0168989Y0301950D02*
X0168989Y0300050D01*
X0168989Y0301106D02*
X0167933Y0301106D01*
X0167933Y0301950D02*
X0167933Y0300050D01*
X0166894Y0300050D02*
X0166472Y0300050D01*
X0166433Y0300052D01*
X0166394Y0300057D01*
X0166357Y0300066D01*
X0166320Y0300078D01*
X0166284Y0300094D01*
X0166250Y0300113D01*
X0166218Y0300135D01*
X0166188Y0300160D01*
X0166160Y0300188D01*
X0166135Y0300218D01*
X0166113Y0300250D01*
X0166094Y0300284D01*
X0166078Y0300320D01*
X0166066Y0300357D01*
X0166057Y0300394D01*
X0166052Y0300433D01*
X0166050Y0300472D01*
X0166050Y0301528D01*
X0166052Y0301567D01*
X0166057Y0301606D01*
X0166066Y0301643D01*
X0166078Y0301680D01*
X0166094Y0301716D01*
X0166113Y0301750D01*
X0166135Y0301782D01*
X0166160Y0301812D01*
X0166188Y0301840D01*
X0166218Y0301865D01*
X0166250Y0301887D01*
X0166284Y0301906D01*
X0166320Y0301921D01*
X0166357Y0301934D01*
X0166394Y0301943D01*
X0166433Y0301948D01*
X0166472Y0301950D01*
X0166894Y0301950D01*
X0148039Y0301950D02*
X0147405Y0301950D01*
X0148039Y0301950D02*
X0148079Y0301948D01*
X0148119Y0301942D01*
X0148158Y0301933D01*
X0148196Y0301920D01*
X0148232Y0301903D01*
X0148267Y0301883D01*
X0148300Y0301860D01*
X0148330Y0301833D01*
X0148358Y0301804D01*
X0148383Y0301773D01*
X0148404Y0301739D01*
X0148423Y0301703D01*
X0148438Y0301666D01*
X0148449Y0301627D01*
X0148457Y0301588D01*
X0148461Y0301548D01*
X0148461Y0301508D01*
X0148457Y0301468D01*
X0148449Y0301429D01*
X0148438Y0301390D01*
X0148423Y0301353D01*
X0148404Y0301317D01*
X0148383Y0301283D01*
X0148358Y0301252D01*
X0148330Y0301223D01*
X0148300Y0301196D01*
X0148267Y0301173D01*
X0148232Y0301153D01*
X0148196Y0301136D01*
X0148158Y0301123D01*
X0148119Y0301114D01*
X0148079Y0301108D01*
X0148039Y0301106D01*
X0147616Y0301106D01*
X0147933Y0301106D02*
X0147978Y0301104D01*
X0148022Y0301098D01*
X0148066Y0301089D01*
X0148109Y0301076D01*
X0148150Y0301059D01*
X0148191Y0301039D01*
X0148229Y0301015D01*
X0148265Y0300989D01*
X0148298Y0300959D01*
X0148329Y0300927D01*
X0148358Y0300892D01*
X0148383Y0300855D01*
X0148404Y0300816D01*
X0148423Y0300775D01*
X0148438Y0300733D01*
X0148449Y0300689D01*
X0148457Y0300645D01*
X0148461Y0300600D01*
X0148461Y0300556D01*
X0148457Y0300511D01*
X0148449Y0300467D01*
X0148438Y0300423D01*
X0148423Y0300381D01*
X0148404Y0300340D01*
X0148383Y0300301D01*
X0148358Y0300264D01*
X0148329Y0300229D01*
X0148298Y0300197D01*
X0148265Y0300167D01*
X0148229Y0300141D01*
X0148191Y0300117D01*
X0148150Y0300097D01*
X0148109Y0300080D01*
X0148066Y0300067D01*
X0148022Y0300058D01*
X0147978Y0300052D01*
X0147933Y0300050D01*
X0147405Y0300050D01*
X0146411Y0299839D02*
X0145567Y0299839D01*
X0144729Y0300050D02*
X0143885Y0300050D01*
X0143885Y0301950D01*
X0142857Y0301950D02*
X0142013Y0301950D01*
X0142013Y0300050D01*
X0142857Y0300050D01*
X0142646Y0301106D02*
X0142013Y0301106D01*
X0140757Y0301950D02*
X0140757Y0300050D01*
X0139701Y0301950D01*
X0139701Y0300050D01*
X0138453Y0300050D02*
X0138453Y0301950D01*
X0137397Y0301950D02*
X0138453Y0300050D01*
X0137397Y0300050D02*
X0137397Y0301950D01*
X0135693Y0301950D02*
X0136326Y0300050D01*
X0136168Y0300525D02*
X0135218Y0300525D01*
X0135060Y0300050D02*
X0135693Y0301950D01*
X0133989Y0301950D02*
X0133989Y0300050D01*
X0133989Y0301106D02*
X0132933Y0301106D01*
X0132933Y0301950D02*
X0132933Y0300050D01*
X0131894Y0300050D02*
X0131472Y0300050D01*
X0131433Y0300052D01*
X0131394Y0300057D01*
X0131357Y0300066D01*
X0131320Y0300078D01*
X0131284Y0300094D01*
X0131250Y0300113D01*
X0131218Y0300135D01*
X0131188Y0300160D01*
X0131160Y0300188D01*
X0131135Y0300218D01*
X0131113Y0300250D01*
X0131094Y0300284D01*
X0131078Y0300320D01*
X0131066Y0300357D01*
X0131057Y0300394D01*
X0131052Y0300433D01*
X0131050Y0300472D01*
X0131050Y0301528D01*
X0131052Y0301567D01*
X0131057Y0301606D01*
X0131066Y0301643D01*
X0131078Y0301680D01*
X0131094Y0301716D01*
X0131113Y0301750D01*
X0131135Y0301782D01*
X0131160Y0301812D01*
X0131188Y0301840D01*
X0131218Y0301865D01*
X0131250Y0301887D01*
X0131284Y0301906D01*
X0131320Y0301921D01*
X0131357Y0301934D01*
X0131394Y0301943D01*
X0131433Y0301948D01*
X0131472Y0301950D01*
X0131894Y0301950D01*
X0113461Y0300050D02*
X0112405Y0300050D01*
X0113302Y0301106D01*
X0112986Y0301950D02*
X0112938Y0301948D01*
X0112891Y0301942D01*
X0112843Y0301933D01*
X0112797Y0301920D01*
X0112752Y0301903D01*
X0112709Y0301883D01*
X0112667Y0301860D01*
X0112627Y0301833D01*
X0112590Y0301804D01*
X0112554Y0301771D01*
X0112522Y0301736D01*
X0112492Y0301698D01*
X0112466Y0301658D01*
X0112442Y0301616D01*
X0112422Y0301573D01*
X0112406Y0301528D01*
X0113303Y0301106D02*
X0113331Y0301135D01*
X0113358Y0301167D01*
X0113381Y0301201D01*
X0113402Y0301237D01*
X0113420Y0301274D01*
X0113434Y0301313D01*
X0113446Y0301352D01*
X0113454Y0301393D01*
X0113459Y0301434D01*
X0113461Y0301475D01*
X0113459Y0301516D01*
X0113454Y0301557D01*
X0113445Y0301598D01*
X0113432Y0301637D01*
X0113416Y0301676D01*
X0113397Y0301713D01*
X0113375Y0301747D01*
X0113350Y0301780D01*
X0113322Y0301811D01*
X0113291Y0301839D01*
X0113258Y0301864D01*
X0113224Y0301886D01*
X0113187Y0301905D01*
X0113148Y0301921D01*
X0113109Y0301934D01*
X0113068Y0301943D01*
X0113027Y0301948D01*
X0112986Y0301950D01*
X0111411Y0299839D02*
X0110567Y0299839D01*
X0109729Y0300050D02*
X0108885Y0300050D01*
X0108885Y0301950D01*
X0107857Y0301950D02*
X0107013Y0301950D01*
X0107013Y0300050D01*
X0107857Y0300050D01*
X0107646Y0301106D02*
X0107013Y0301106D01*
X0105757Y0301950D02*
X0105757Y0300050D01*
X0104701Y0301950D01*
X0104701Y0300050D01*
X0103453Y0300050D02*
X0103453Y0301950D01*
X0102397Y0301950D02*
X0103453Y0300050D01*
X0102397Y0300050D02*
X0102397Y0301950D01*
X0100693Y0301950D02*
X0101326Y0300050D01*
X0101168Y0300525D02*
X0100218Y0300525D01*
X0100060Y0300050D02*
X0100693Y0301950D01*
X0098989Y0301950D02*
X0098989Y0300050D01*
X0098989Y0301106D02*
X0097933Y0301106D01*
X0097933Y0301950D02*
X0097933Y0300050D01*
X0096894Y0300050D02*
X0096472Y0300050D01*
X0096433Y0300052D01*
X0096394Y0300057D01*
X0096357Y0300066D01*
X0096320Y0300078D01*
X0096284Y0300094D01*
X0096250Y0300113D01*
X0096218Y0300135D01*
X0096188Y0300160D01*
X0096160Y0300188D01*
X0096135Y0300218D01*
X0096113Y0300250D01*
X0096094Y0300284D01*
X0096078Y0300320D01*
X0096066Y0300357D01*
X0096057Y0300394D01*
X0096052Y0300433D01*
X0096050Y0300472D01*
X0096050Y0301528D01*
X0096052Y0301567D01*
X0096057Y0301606D01*
X0096066Y0301643D01*
X0096078Y0301680D01*
X0096094Y0301716D01*
X0096113Y0301750D01*
X0096135Y0301782D01*
X0096160Y0301812D01*
X0096188Y0301840D01*
X0096218Y0301865D01*
X0096250Y0301887D01*
X0096284Y0301906D01*
X0096320Y0301921D01*
X0096357Y0301934D01*
X0096394Y0301943D01*
X0096433Y0301948D01*
X0096472Y0301950D01*
X0096894Y0301950D01*
X0078461Y0300050D02*
X0077405Y0300050D01*
X0077933Y0300050D02*
X0077933Y0301950D01*
X0077405Y0301528D01*
X0076411Y0299839D02*
X0075567Y0299839D01*
X0074729Y0300050D02*
X0073885Y0300050D01*
X0073885Y0301950D01*
X0072857Y0301950D02*
X0072013Y0301950D01*
X0072013Y0300050D01*
X0072857Y0300050D01*
X0072646Y0301106D02*
X0072013Y0301106D01*
X0070757Y0301950D02*
X0070757Y0300050D01*
X0069701Y0301950D01*
X0069701Y0300050D01*
X0068453Y0300050D02*
X0068453Y0301950D01*
X0067397Y0301950D02*
X0068453Y0300050D01*
X0067397Y0300050D02*
X0067397Y0301950D01*
X0065693Y0301950D02*
X0066326Y0300050D01*
X0066168Y0300525D02*
X0065218Y0300525D01*
X0065060Y0300050D02*
X0065693Y0301950D01*
X0063989Y0301950D02*
X0063989Y0300050D01*
X0063989Y0301106D02*
X0062933Y0301106D01*
X0062933Y0301950D02*
X0062933Y0300050D01*
X0061894Y0300050D02*
X0061472Y0300050D01*
X0061433Y0300052D01*
X0061394Y0300057D01*
X0061357Y0300066D01*
X0061320Y0300078D01*
X0061284Y0300094D01*
X0061250Y0300113D01*
X0061218Y0300135D01*
X0061188Y0300160D01*
X0061160Y0300188D01*
X0061135Y0300218D01*
X0061113Y0300250D01*
X0061094Y0300284D01*
X0061078Y0300320D01*
X0061066Y0300357D01*
X0061057Y0300394D01*
X0061052Y0300433D01*
X0061050Y0300472D01*
X0061050Y0301528D01*
X0061052Y0301567D01*
X0061057Y0301606D01*
X0061066Y0301643D01*
X0061078Y0301680D01*
X0061094Y0301716D01*
X0061113Y0301750D01*
X0061135Y0301782D01*
X0061160Y0301812D01*
X0061188Y0301840D01*
X0061218Y0301865D01*
X0061250Y0301887D01*
X0061284Y0301906D01*
X0061320Y0301921D01*
X0061357Y0301934D01*
X0061394Y0301943D01*
X0061433Y0301948D01*
X0061472Y0301950D01*
X0061894Y0301950D01*
X0011372Y0279450D02*
X0011372Y0277550D01*
X0011899Y0277550D02*
X0010844Y0277550D01*
X0009683Y0277972D02*
X0009683Y0279450D01*
X0010844Y0279028D02*
X0011372Y0279450D01*
X0009683Y0277972D02*
X0009681Y0277933D01*
X0009676Y0277894D01*
X0009667Y0277857D01*
X0009655Y0277820D01*
X0009639Y0277784D01*
X0009620Y0277750D01*
X0009598Y0277718D01*
X0009573Y0277688D01*
X0009545Y0277660D01*
X0009515Y0277635D01*
X0009483Y0277613D01*
X0009449Y0277594D01*
X0009413Y0277578D01*
X0009376Y0277566D01*
X0009339Y0277557D01*
X0009300Y0277552D01*
X0009261Y0277550D01*
X0009050Y0277550D01*
X0015550Y0185250D02*
X0015550Y0183750D01*
X0015550Y0185250D02*
X0015552Y0185312D01*
X0015558Y0185373D01*
X0015567Y0185434D01*
X0015580Y0185494D01*
X0015597Y0185553D01*
X0015618Y0185611D01*
X0015642Y0185668D01*
X0015669Y0185723D01*
X0015700Y0185776D01*
X0015734Y0185828D01*
X0015771Y0185877D01*
X0015811Y0185924D01*
X0015854Y0185968D01*
X0015899Y0186009D01*
X0015947Y0186048D01*
X0015998Y0186084D01*
X0016050Y0186116D01*
X0016104Y0186145D01*
X0016160Y0186171D01*
X0016218Y0186193D01*
X0016276Y0186212D01*
X0016336Y0186227D01*
X0016397Y0186238D01*
X0016458Y0186246D01*
X0016519Y0186250D01*
X0016581Y0186250D01*
X0016642Y0186246D01*
X0016703Y0186238D01*
X0016764Y0186227D01*
X0016824Y0186212D01*
X0016882Y0186193D01*
X0016940Y0186171D01*
X0016996Y0186145D01*
X0017050Y0186116D01*
X0017102Y0186084D01*
X0017153Y0186048D01*
X0017201Y0186009D01*
X0017246Y0185968D01*
X0017289Y0185924D01*
X0017329Y0185877D01*
X0017366Y0185828D01*
X0017400Y0185776D01*
X0017431Y0185723D01*
X0017458Y0185668D01*
X0017482Y0185611D01*
X0017503Y0185553D01*
X0017520Y0185494D01*
X0017533Y0185434D01*
X0017542Y0185373D01*
X0017548Y0185312D01*
X0017550Y0185250D01*
X0017550Y0184250D01*
X0017550Y0185000D02*
X0017552Y0185069D01*
X0017558Y0185138D01*
X0017567Y0185206D01*
X0017580Y0185273D01*
X0017597Y0185340D01*
X0017618Y0185406D01*
X0017642Y0185470D01*
X0017670Y0185533D01*
X0017701Y0185595D01*
X0017735Y0185655D01*
X0017773Y0185712D01*
X0017814Y0185768D01*
X0017857Y0185821D01*
X0017904Y0185872D01*
X0017953Y0185920D01*
X0018005Y0185965D01*
X0018060Y0186007D01*
X0018116Y0186046D01*
X0018175Y0186083D01*
X0018236Y0186115D01*
X0018298Y0186145D01*
X0018362Y0186171D01*
X0018427Y0186193D01*
X0018493Y0186212D01*
X0018560Y0186227D01*
X0018628Y0186238D01*
X0018697Y0186246D01*
X0018766Y0186250D01*
X0018834Y0186250D01*
X0018903Y0186246D01*
X0018972Y0186238D01*
X0019040Y0186227D01*
X0019107Y0186212D01*
X0019173Y0186193D01*
X0019238Y0186171D01*
X0019302Y0186145D01*
X0019364Y0186115D01*
X0019425Y0186083D01*
X0019484Y0186046D01*
X0019540Y0186007D01*
X0019595Y0185965D01*
X0019647Y0185920D01*
X0019696Y0185872D01*
X0019743Y0185821D01*
X0019786Y0185768D01*
X0019827Y0185712D01*
X0019865Y0185655D01*
X0019899Y0185595D01*
X0019930Y0185533D01*
X0019958Y0185470D01*
X0019982Y0185406D01*
X0020003Y0185340D01*
X0020020Y0185273D01*
X0020033Y0185206D01*
X0020042Y0185138D01*
X0020048Y0185069D01*
X0020050Y0185000D01*
X0020050Y0183750D01*
X0020050Y0181783D02*
X0018050Y0180783D01*
X0018050Y0180533D02*
X0018050Y0179283D01*
X0018050Y0180533D02*
X0018048Y0180602D01*
X0018042Y0180671D01*
X0018033Y0180739D01*
X0018020Y0180806D01*
X0018003Y0180873D01*
X0017982Y0180939D01*
X0017958Y0181003D01*
X0017930Y0181066D01*
X0017899Y0181128D01*
X0017865Y0181188D01*
X0017827Y0181245D01*
X0017786Y0181301D01*
X0017743Y0181354D01*
X0017696Y0181405D01*
X0017647Y0181453D01*
X0017595Y0181498D01*
X0017540Y0181540D01*
X0017484Y0181579D01*
X0017425Y0181616D01*
X0017364Y0181648D01*
X0017302Y0181678D01*
X0017238Y0181704D01*
X0017173Y0181726D01*
X0017107Y0181745D01*
X0017040Y0181760D01*
X0016972Y0181771D01*
X0016903Y0181779D01*
X0016834Y0181783D01*
X0016766Y0181783D01*
X0016697Y0181779D01*
X0016628Y0181771D01*
X0016560Y0181760D01*
X0016493Y0181745D01*
X0016427Y0181726D01*
X0016362Y0181704D01*
X0016298Y0181678D01*
X0016236Y0181648D01*
X0016175Y0181616D01*
X0016116Y0181579D01*
X0016060Y0181540D01*
X0016005Y0181498D01*
X0015953Y0181453D01*
X0015904Y0181405D01*
X0015857Y0181354D01*
X0015814Y0181301D01*
X0015773Y0181245D01*
X0015735Y0181188D01*
X0015701Y0181128D01*
X0015670Y0181066D01*
X0015642Y0181003D01*
X0015618Y0180939D01*
X0015597Y0180873D01*
X0015580Y0180806D01*
X0015567Y0180739D01*
X0015558Y0180671D01*
X0015552Y0180602D01*
X0015550Y0180533D01*
X0015550Y0179283D01*
X0020050Y0179283D01*
X0065550Y0180000D02*
X0070050Y0180000D01*
X0070050Y0178750D02*
X0070050Y0181250D01*
X0066550Y0178750D02*
X0065550Y0180000D01*
X0065550Y0175533D02*
X0065550Y0174283D01*
X0070050Y0174283D01*
X0068050Y0174283D02*
X0068050Y0175533D01*
X0068050Y0175783D02*
X0070050Y0176783D01*
X0068050Y0175533D02*
X0068048Y0175602D01*
X0068042Y0175671D01*
X0068033Y0175739D01*
X0068020Y0175806D01*
X0068003Y0175873D01*
X0067982Y0175939D01*
X0067958Y0176003D01*
X0067930Y0176066D01*
X0067899Y0176128D01*
X0067865Y0176188D01*
X0067827Y0176245D01*
X0067786Y0176301D01*
X0067743Y0176354D01*
X0067696Y0176405D01*
X0067647Y0176453D01*
X0067595Y0176498D01*
X0067540Y0176540D01*
X0067484Y0176579D01*
X0067425Y0176616D01*
X0067364Y0176648D01*
X0067302Y0176678D01*
X0067238Y0176704D01*
X0067173Y0176726D01*
X0067107Y0176745D01*
X0067040Y0176760D01*
X0066972Y0176771D01*
X0066903Y0176779D01*
X0066834Y0176783D01*
X0066766Y0176783D01*
X0066697Y0176779D01*
X0066628Y0176771D01*
X0066560Y0176760D01*
X0066493Y0176745D01*
X0066427Y0176726D01*
X0066362Y0176704D01*
X0066298Y0176678D01*
X0066236Y0176648D01*
X0066175Y0176616D01*
X0066116Y0176579D01*
X0066060Y0176540D01*
X0066005Y0176498D01*
X0065953Y0176453D01*
X0065904Y0176405D01*
X0065857Y0176354D01*
X0065814Y0176301D01*
X0065773Y0176245D01*
X0065735Y0176188D01*
X0065701Y0176128D01*
X0065670Y0176066D01*
X0065642Y0176003D01*
X0065618Y0175939D01*
X0065597Y0175873D01*
X0065580Y0175806D01*
X0065567Y0175739D01*
X0065558Y0175671D01*
X0065552Y0175602D01*
X0065550Y0175533D01*
X0067550Y0160875D02*
X0070050Y0158750D01*
X0070050Y0161250D01*
X0066550Y0158750D02*
X0066481Y0158774D01*
X0066414Y0158802D01*
X0066348Y0158833D01*
X0066284Y0158867D01*
X0066222Y0158904D01*
X0066161Y0158945D01*
X0066103Y0158988D01*
X0066047Y0159034D01*
X0065993Y0159084D01*
X0065942Y0159135D01*
X0065894Y0159189D01*
X0065848Y0159246D01*
X0065805Y0159305D01*
X0065766Y0159366D01*
X0065729Y0159428D01*
X0065696Y0159493D01*
X0065665Y0159559D01*
X0065639Y0159627D01*
X0065615Y0159695D01*
X0065595Y0159765D01*
X0065579Y0159836D01*
X0065566Y0159908D01*
X0065557Y0159980D01*
X0065552Y0160052D01*
X0065550Y0160125D01*
X0065552Y0160190D01*
X0065558Y0160256D01*
X0065567Y0160320D01*
X0065580Y0160384D01*
X0065597Y0160448D01*
X0065618Y0160510D01*
X0065642Y0160571D01*
X0065670Y0160630D01*
X0065701Y0160688D01*
X0065735Y0160743D01*
X0065773Y0160797D01*
X0065813Y0160848D01*
X0065857Y0160897D01*
X0065903Y0160943D01*
X0065952Y0160987D01*
X0066003Y0161027D01*
X0066057Y0161065D01*
X0066113Y0161099D01*
X0066170Y0161130D01*
X0066229Y0161158D01*
X0066290Y0161182D01*
X0066352Y0161203D01*
X0066416Y0161220D01*
X0066480Y0161233D01*
X0066544Y0161242D01*
X0066610Y0161248D01*
X0066675Y0161250D01*
X0066740Y0161248D01*
X0066805Y0161243D01*
X0066870Y0161234D01*
X0066934Y0161222D01*
X0066997Y0161206D01*
X0067059Y0161187D01*
X0067121Y0161165D01*
X0067181Y0161139D01*
X0067239Y0161110D01*
X0067296Y0161078D01*
X0067351Y0161043D01*
X0067404Y0161005D01*
X0067455Y0160965D01*
X0067504Y0160921D01*
X0067550Y0160875D01*
X0070050Y0156783D02*
X0068050Y0155783D01*
X0068050Y0155533D02*
X0068050Y0154283D01*
X0068050Y0155533D02*
X0068048Y0155602D01*
X0068042Y0155671D01*
X0068033Y0155739D01*
X0068020Y0155806D01*
X0068003Y0155873D01*
X0067982Y0155939D01*
X0067958Y0156003D01*
X0067930Y0156066D01*
X0067899Y0156128D01*
X0067865Y0156188D01*
X0067827Y0156245D01*
X0067786Y0156301D01*
X0067743Y0156354D01*
X0067696Y0156405D01*
X0067647Y0156453D01*
X0067595Y0156498D01*
X0067540Y0156540D01*
X0067484Y0156579D01*
X0067425Y0156616D01*
X0067364Y0156648D01*
X0067302Y0156678D01*
X0067238Y0156704D01*
X0067173Y0156726D01*
X0067107Y0156745D01*
X0067040Y0156760D01*
X0066972Y0156771D01*
X0066903Y0156779D01*
X0066834Y0156783D01*
X0066766Y0156783D01*
X0066697Y0156779D01*
X0066628Y0156771D01*
X0066560Y0156760D01*
X0066493Y0156745D01*
X0066427Y0156726D01*
X0066362Y0156704D01*
X0066298Y0156678D01*
X0066236Y0156648D01*
X0066175Y0156616D01*
X0066116Y0156579D01*
X0066060Y0156540D01*
X0066005Y0156498D01*
X0065953Y0156453D01*
X0065904Y0156405D01*
X0065857Y0156354D01*
X0065814Y0156301D01*
X0065773Y0156245D01*
X0065735Y0156188D01*
X0065701Y0156128D01*
X0065670Y0156066D01*
X0065642Y0156003D01*
X0065618Y0155939D01*
X0065597Y0155873D01*
X0065580Y0155806D01*
X0065567Y0155739D01*
X0065558Y0155671D01*
X0065552Y0155602D01*
X0065550Y0155533D01*
X0065550Y0154283D01*
X0070050Y0154283D01*
X0060550Y0082733D02*
X0060550Y0081678D01*
X0060550Y0082206D02*
X0058650Y0082206D01*
X0059072Y0081678D01*
X0058650Y0080711D02*
X0058650Y0080289D01*
X0058652Y0080250D01*
X0058657Y0080211D01*
X0058666Y0080173D01*
X0058679Y0080137D01*
X0058694Y0080101D01*
X0058713Y0080067D01*
X0058735Y0080035D01*
X0058760Y0080005D01*
X0058788Y0079977D01*
X0058818Y0079952D01*
X0058850Y0079930D01*
X0058884Y0079911D01*
X0058920Y0079895D01*
X0058957Y0079883D01*
X0058994Y0079874D01*
X0059033Y0079869D01*
X0059072Y0079867D01*
X0060128Y0079867D01*
X0060167Y0079869D01*
X0060206Y0079874D01*
X0060243Y0079883D01*
X0060280Y0079895D01*
X0060316Y0079911D01*
X0060350Y0079930D01*
X0060382Y0079952D01*
X0060412Y0079977D01*
X0060440Y0080005D01*
X0060465Y0080035D01*
X0060487Y0080067D01*
X0060506Y0080101D01*
X0060522Y0080137D01*
X0060534Y0080174D01*
X0060543Y0080211D01*
X0060548Y0080250D01*
X0060550Y0080289D01*
X0060550Y0080711D01*
D11*
X0150500Y0022194D02*
X0153600Y0021161D01*
X0150500Y0020128D01*
X0150500Y0017839D02*
X0152911Y0017150D01*
X0152911Y0018872D01*
X0152222Y0018356D02*
X0153600Y0018356D01*
X0153600Y0015722D02*
X0153600Y0014000D01*
X0151878Y0015464D01*
X0150500Y0014947D02*
X0150502Y0014887D01*
X0150507Y0014828D01*
X0150516Y0014769D01*
X0150528Y0014711D01*
X0150544Y0014653D01*
X0150564Y0014597D01*
X0150586Y0014542D01*
X0150612Y0014488D01*
X0150641Y0014436D01*
X0150673Y0014386D01*
X0150708Y0014337D01*
X0150746Y0014291D01*
X0150787Y0014248D01*
X0150830Y0014206D01*
X0150876Y0014168D01*
X0150923Y0014132D01*
X0150973Y0014099D01*
X0151025Y0014070D01*
X0151078Y0014043D01*
X0151133Y0014020D01*
X0151189Y0013999D01*
X0151877Y0015464D02*
X0151837Y0015503D01*
X0151795Y0015540D01*
X0151750Y0015573D01*
X0151703Y0015604D01*
X0151654Y0015631D01*
X0151603Y0015655D01*
X0151550Y0015675D01*
X0151497Y0015692D01*
X0151442Y0015705D01*
X0151387Y0015714D01*
X0151331Y0015720D01*
X0151275Y0015722D01*
X0151220Y0015720D01*
X0151165Y0015714D01*
X0151110Y0015704D01*
X0151057Y0015691D01*
X0151004Y0015673D01*
X0150953Y0015652D01*
X0150904Y0015627D01*
X0150856Y0015599D01*
X0150811Y0015567D01*
X0150767Y0015533D01*
X0150727Y0015495D01*
X0150689Y0015455D01*
X0150655Y0015411D01*
X0150623Y0015366D01*
X0150595Y0015318D01*
X0150570Y0015269D01*
X0150549Y0015218D01*
X0150531Y0015165D01*
X0150518Y0015112D01*
X0150508Y0015057D01*
X0150502Y0015002D01*
X0150500Y0014947D01*
X0205500Y0015033D02*
X0205500Y0014000D01*
X0205500Y0015033D02*
X0205502Y0015084D01*
X0205508Y0015136D01*
X0205517Y0015186D01*
X0205531Y0015236D01*
X0205548Y0015285D01*
X0205568Y0015332D01*
X0205592Y0015378D01*
X0205620Y0015421D01*
X0205650Y0015463D01*
X0205684Y0015502D01*
X0205720Y0015538D01*
X0205759Y0015572D01*
X0205801Y0015602D01*
X0205845Y0015630D01*
X0205890Y0015654D01*
X0205937Y0015674D01*
X0205986Y0015691D01*
X0206036Y0015705D01*
X0206086Y0015714D01*
X0206138Y0015720D01*
X0206189Y0015722D01*
X0206240Y0015720D01*
X0206292Y0015714D01*
X0206342Y0015705D01*
X0206392Y0015691D01*
X0206441Y0015674D01*
X0206488Y0015654D01*
X0206534Y0015630D01*
X0206577Y0015602D01*
X0206619Y0015572D01*
X0206658Y0015538D01*
X0206694Y0015502D01*
X0206728Y0015463D01*
X0206758Y0015421D01*
X0206786Y0015378D01*
X0206810Y0015332D01*
X0206830Y0015285D01*
X0206847Y0015236D01*
X0206861Y0015186D01*
X0206870Y0015136D01*
X0206876Y0015084D01*
X0206878Y0015033D01*
X0206878Y0014344D01*
X0206878Y0014861D02*
X0206880Y0014919D01*
X0206886Y0014976D01*
X0206895Y0015032D01*
X0206909Y0015088D01*
X0206926Y0015143D01*
X0206946Y0015197D01*
X0206971Y0015249D01*
X0206998Y0015300D01*
X0207029Y0015348D01*
X0207063Y0015395D01*
X0207100Y0015439D01*
X0207140Y0015480D01*
X0207183Y0015519D01*
X0207228Y0015554D01*
X0207276Y0015587D01*
X0207325Y0015616D01*
X0207377Y0015642D01*
X0207430Y0015664D01*
X0207484Y0015683D01*
X0207539Y0015699D01*
X0207596Y0015710D01*
X0207653Y0015718D01*
X0207710Y0015722D01*
X0207768Y0015722D01*
X0207825Y0015718D01*
X0207882Y0015710D01*
X0207939Y0015699D01*
X0207994Y0015683D01*
X0208048Y0015664D01*
X0208101Y0015642D01*
X0208153Y0015616D01*
X0208202Y0015587D01*
X0208250Y0015554D01*
X0208295Y0015519D01*
X0208338Y0015480D01*
X0208378Y0015439D01*
X0208415Y0015395D01*
X0208449Y0015348D01*
X0208480Y0015300D01*
X0208507Y0015249D01*
X0208532Y0015197D01*
X0208552Y0015143D01*
X0208569Y0015088D01*
X0208583Y0015032D01*
X0208592Y0014976D01*
X0208598Y0014919D01*
X0208600Y0014861D01*
X0208600Y0014000D01*
X0208600Y0016980D02*
X0208600Y0017152D01*
X0208428Y0017152D01*
X0208428Y0016980D01*
X0208600Y0016980D01*
X0208600Y0018410D02*
X0208600Y0019271D01*
X0208598Y0019329D01*
X0208592Y0019386D01*
X0208583Y0019442D01*
X0208569Y0019498D01*
X0208552Y0019553D01*
X0208532Y0019607D01*
X0208507Y0019659D01*
X0208480Y0019710D01*
X0208449Y0019758D01*
X0208415Y0019805D01*
X0208378Y0019849D01*
X0208338Y0019890D01*
X0208295Y0019929D01*
X0208250Y0019964D01*
X0208202Y0019997D01*
X0208153Y0020026D01*
X0208101Y0020052D01*
X0208048Y0020074D01*
X0207994Y0020093D01*
X0207939Y0020109D01*
X0207882Y0020120D01*
X0207825Y0020128D01*
X0207768Y0020132D01*
X0207710Y0020132D01*
X0207653Y0020128D01*
X0207596Y0020120D01*
X0207539Y0020109D01*
X0207484Y0020093D01*
X0207430Y0020074D01*
X0207377Y0020052D01*
X0207325Y0020026D01*
X0207276Y0019997D01*
X0207228Y0019964D01*
X0207183Y0019929D01*
X0207140Y0019890D01*
X0207100Y0019849D01*
X0207063Y0019805D01*
X0207029Y0019758D01*
X0206998Y0019710D01*
X0206971Y0019659D01*
X0206946Y0019607D01*
X0206926Y0019553D01*
X0206909Y0019498D01*
X0206895Y0019442D01*
X0206886Y0019386D01*
X0206880Y0019329D01*
X0206878Y0019271D01*
X0206878Y0019443D02*
X0206878Y0018754D01*
X0206878Y0019443D02*
X0206876Y0019494D01*
X0206870Y0019546D01*
X0206861Y0019596D01*
X0206847Y0019646D01*
X0206830Y0019695D01*
X0206810Y0019742D01*
X0206786Y0019788D01*
X0206758Y0019831D01*
X0206728Y0019873D01*
X0206694Y0019912D01*
X0206658Y0019948D01*
X0206619Y0019982D01*
X0206577Y0020012D01*
X0206534Y0020040D01*
X0206488Y0020064D01*
X0206441Y0020084D01*
X0206392Y0020101D01*
X0206342Y0020115D01*
X0206292Y0020124D01*
X0206240Y0020130D01*
X0206189Y0020132D01*
X0206138Y0020130D01*
X0206086Y0020124D01*
X0206036Y0020115D01*
X0205986Y0020101D01*
X0205937Y0020084D01*
X0205890Y0020064D01*
X0205845Y0020040D01*
X0205801Y0020012D01*
X0205759Y0019982D01*
X0205720Y0019948D01*
X0205684Y0019912D01*
X0205650Y0019873D01*
X0205620Y0019831D01*
X0205592Y0019788D01*
X0205568Y0019742D01*
X0205548Y0019695D01*
X0205531Y0019646D01*
X0205517Y0019596D01*
X0205508Y0019546D01*
X0205502Y0019494D01*
X0205500Y0019443D01*
X0205500Y0018410D01*
X0205500Y0021388D02*
X0208600Y0022421D01*
X0205500Y0023454D01*
X0361540Y0121674D02*
X0361542Y0121612D01*
X0361547Y0121551D01*
X0361557Y0121490D01*
X0361570Y0121429D01*
X0361586Y0121370D01*
X0361606Y0121312D01*
X0361630Y0121255D01*
X0361657Y0121199D01*
X0361687Y0121145D01*
X0361721Y0121093D01*
X0361757Y0121044D01*
X0361797Y0120996D01*
X0361839Y0120951D01*
X0361884Y0120909D01*
X0361932Y0120869D01*
X0361981Y0120833D01*
X0362033Y0120799D01*
X0362087Y0120769D01*
X0362143Y0120742D01*
X0362200Y0120718D01*
X0362258Y0120698D01*
X0362317Y0120682D01*
X0362378Y0120669D01*
X0362439Y0120659D01*
X0362500Y0120654D01*
X0362562Y0120652D01*
X0363456Y0121163D02*
X0364223Y0122569D01*
X0366139Y0122058D02*
X0366137Y0121968D01*
X0366132Y0121879D01*
X0366122Y0121790D01*
X0366109Y0121701D01*
X0366093Y0121613D01*
X0366072Y0121525D01*
X0366048Y0121439D01*
X0366021Y0121353D01*
X0365990Y0121269D01*
X0365955Y0121186D01*
X0365917Y0121105D01*
X0365876Y0121025D01*
X0365832Y0120948D01*
X0365784Y0120872D01*
X0365733Y0120798D01*
X0365679Y0120726D01*
X0365622Y0120657D01*
X0365563Y0120589D01*
X0365500Y0120525D01*
X0364223Y0122569D02*
X0364257Y0122623D01*
X0364294Y0122674D01*
X0364334Y0122723D01*
X0364377Y0122770D01*
X0364423Y0122813D01*
X0364471Y0122854D01*
X0364522Y0122892D01*
X0364575Y0122927D01*
X0364630Y0122959D01*
X0364687Y0122987D01*
X0364745Y0123011D01*
X0364805Y0123032D01*
X0364866Y0123049D01*
X0364928Y0123063D01*
X0364991Y0123072D01*
X0365054Y0123078D01*
X0365117Y0123080D01*
X0365179Y0123078D01*
X0365240Y0123073D01*
X0365301Y0123063D01*
X0365362Y0123050D01*
X0365421Y0123034D01*
X0365479Y0123014D01*
X0365536Y0122990D01*
X0365592Y0122963D01*
X0365646Y0122933D01*
X0365698Y0122899D01*
X0365747Y0122863D01*
X0365795Y0122823D01*
X0365840Y0122781D01*
X0365882Y0122736D01*
X0365922Y0122688D01*
X0365958Y0122639D01*
X0365992Y0122587D01*
X0366022Y0122533D01*
X0366049Y0122477D01*
X0366073Y0122420D01*
X0366093Y0122362D01*
X0366109Y0122303D01*
X0366122Y0122242D01*
X0366132Y0122181D01*
X0366137Y0122120D01*
X0366139Y0122058D01*
X0361922Y0122824D02*
X0361874Y0122757D01*
X0361829Y0122689D01*
X0361787Y0122618D01*
X0361749Y0122545D01*
X0361713Y0122471D01*
X0361680Y0122396D01*
X0361651Y0122319D01*
X0361625Y0122241D01*
X0361602Y0122162D01*
X0361583Y0122082D01*
X0361567Y0122001D01*
X0361555Y0121920D01*
X0361546Y0121838D01*
X0361541Y0121756D01*
X0361539Y0121674D01*
X0362562Y0120652D02*
X0362625Y0120654D01*
X0362688Y0120660D01*
X0362751Y0120669D01*
X0362813Y0120683D01*
X0362874Y0120700D01*
X0362934Y0120721D01*
X0362992Y0120745D01*
X0363049Y0120773D01*
X0363104Y0120805D01*
X0363157Y0120840D01*
X0363208Y0120878D01*
X0363256Y0120919D01*
X0363302Y0120962D01*
X0363345Y0121009D01*
X0363385Y0121058D01*
X0363422Y0121109D01*
X0363456Y0121163D01*
X0361539Y0124708D02*
X0366139Y0125730D01*
X0363073Y0126752D01*
X0366139Y0127774D01*
X0361539Y0128797D01*
X0366650Y0130380D02*
X0366650Y0132424D01*
X0366139Y0134174D02*
X0366139Y0136730D01*
X0366139Y0134174D02*
X0363584Y0136347D01*
X0361540Y0135580D02*
X0361542Y0135506D01*
X0361547Y0135432D01*
X0361557Y0135358D01*
X0361570Y0135285D01*
X0361586Y0135212D01*
X0361607Y0135141D01*
X0361631Y0135071D01*
X0361658Y0135002D01*
X0361689Y0134934D01*
X0361723Y0134868D01*
X0361760Y0134804D01*
X0361801Y0134742D01*
X0361845Y0134681D01*
X0361891Y0134624D01*
X0361941Y0134568D01*
X0361993Y0134515D01*
X0362048Y0134465D01*
X0362105Y0134418D01*
X0362165Y0134374D01*
X0362227Y0134332D01*
X0362290Y0134294D01*
X0362356Y0134259D01*
X0362423Y0134228D01*
X0362492Y0134200D01*
X0362562Y0134175D01*
X0363583Y0136347D02*
X0363536Y0136394D01*
X0363486Y0136438D01*
X0363434Y0136480D01*
X0363380Y0136519D01*
X0363324Y0136554D01*
X0363266Y0136587D01*
X0363206Y0136617D01*
X0363145Y0136643D01*
X0363082Y0136666D01*
X0363018Y0136685D01*
X0362954Y0136701D01*
X0362888Y0136714D01*
X0362822Y0136723D01*
X0362756Y0136728D01*
X0362689Y0136730D01*
X0362622Y0136728D01*
X0362555Y0136722D01*
X0362489Y0136713D01*
X0362424Y0136699D01*
X0362359Y0136682D01*
X0362296Y0136661D01*
X0362234Y0136636D01*
X0362173Y0136608D01*
X0362114Y0136576D01*
X0362057Y0136541D01*
X0362002Y0136502D01*
X0361950Y0136461D01*
X0361900Y0136416D01*
X0361853Y0136369D01*
X0361808Y0136319D01*
X0361767Y0136267D01*
X0361728Y0136212D01*
X0361693Y0136155D01*
X0361661Y0136096D01*
X0361633Y0136035D01*
X0361608Y0135973D01*
X0361587Y0135910D01*
X0361570Y0135845D01*
X0361556Y0135780D01*
X0361547Y0135714D01*
X0361541Y0135647D01*
X0361539Y0135580D01*
X0363456Y0166163D02*
X0364223Y0167569D01*
X0366139Y0167058D02*
X0366137Y0166968D01*
X0366132Y0166879D01*
X0366122Y0166790D01*
X0366109Y0166701D01*
X0366093Y0166613D01*
X0366072Y0166525D01*
X0366048Y0166439D01*
X0366021Y0166353D01*
X0365990Y0166269D01*
X0365955Y0166186D01*
X0365917Y0166105D01*
X0365876Y0166025D01*
X0365832Y0165948D01*
X0365784Y0165872D01*
X0365733Y0165798D01*
X0365679Y0165726D01*
X0365622Y0165657D01*
X0365563Y0165589D01*
X0365500Y0165525D01*
X0364223Y0167569D02*
X0364257Y0167623D01*
X0364294Y0167674D01*
X0364334Y0167723D01*
X0364377Y0167770D01*
X0364423Y0167813D01*
X0364471Y0167854D01*
X0364522Y0167892D01*
X0364575Y0167927D01*
X0364630Y0167959D01*
X0364687Y0167987D01*
X0364745Y0168011D01*
X0364805Y0168032D01*
X0364866Y0168049D01*
X0364928Y0168063D01*
X0364991Y0168072D01*
X0365054Y0168078D01*
X0365117Y0168080D01*
X0365179Y0168078D01*
X0365240Y0168073D01*
X0365301Y0168063D01*
X0365362Y0168050D01*
X0365421Y0168034D01*
X0365479Y0168014D01*
X0365536Y0167990D01*
X0365592Y0167963D01*
X0365646Y0167933D01*
X0365698Y0167899D01*
X0365747Y0167863D01*
X0365795Y0167823D01*
X0365840Y0167781D01*
X0365882Y0167736D01*
X0365922Y0167688D01*
X0365958Y0167639D01*
X0365992Y0167587D01*
X0366022Y0167533D01*
X0366049Y0167477D01*
X0366073Y0167420D01*
X0366093Y0167362D01*
X0366109Y0167303D01*
X0366122Y0167242D01*
X0366132Y0167181D01*
X0366137Y0167120D01*
X0366139Y0167058D01*
X0361922Y0167824D02*
X0361874Y0167757D01*
X0361829Y0167689D01*
X0361787Y0167618D01*
X0361749Y0167545D01*
X0361713Y0167471D01*
X0361680Y0167396D01*
X0361651Y0167319D01*
X0361625Y0167241D01*
X0361602Y0167162D01*
X0361583Y0167082D01*
X0361567Y0167001D01*
X0361555Y0166920D01*
X0361546Y0166838D01*
X0361541Y0166756D01*
X0361539Y0166674D01*
X0361540Y0166674D02*
X0361542Y0166612D01*
X0361547Y0166551D01*
X0361557Y0166490D01*
X0361570Y0166429D01*
X0361586Y0166370D01*
X0361606Y0166312D01*
X0361630Y0166255D01*
X0361657Y0166199D01*
X0361687Y0166145D01*
X0361721Y0166093D01*
X0361757Y0166044D01*
X0361797Y0165996D01*
X0361839Y0165951D01*
X0361884Y0165909D01*
X0361932Y0165869D01*
X0361981Y0165833D01*
X0362033Y0165799D01*
X0362087Y0165769D01*
X0362143Y0165742D01*
X0362200Y0165718D01*
X0362258Y0165698D01*
X0362317Y0165682D01*
X0362378Y0165669D01*
X0362439Y0165659D01*
X0362500Y0165654D01*
X0362562Y0165652D01*
X0362625Y0165654D01*
X0362688Y0165660D01*
X0362751Y0165669D01*
X0362813Y0165683D01*
X0362874Y0165700D01*
X0362934Y0165721D01*
X0362992Y0165745D01*
X0363049Y0165773D01*
X0363104Y0165805D01*
X0363157Y0165840D01*
X0363208Y0165878D01*
X0363256Y0165919D01*
X0363302Y0165962D01*
X0363345Y0166009D01*
X0363385Y0166058D01*
X0363422Y0166109D01*
X0363456Y0166163D01*
X0361539Y0169708D02*
X0366139Y0170730D01*
X0363073Y0171752D01*
X0366139Y0172774D01*
X0361539Y0173797D01*
X0366650Y0175380D02*
X0366650Y0177424D01*
X0366139Y0179174D02*
X0366139Y0181730D01*
X0366139Y0180452D02*
X0361539Y0180452D01*
X0362562Y0179174D01*
X0363456Y0211163D02*
X0364223Y0212569D01*
X0366139Y0212058D02*
X0366137Y0211968D01*
X0366132Y0211879D01*
X0366122Y0211790D01*
X0366109Y0211701D01*
X0366093Y0211613D01*
X0366072Y0211525D01*
X0366048Y0211439D01*
X0366021Y0211353D01*
X0365990Y0211269D01*
X0365955Y0211186D01*
X0365917Y0211105D01*
X0365876Y0211025D01*
X0365832Y0210948D01*
X0365784Y0210872D01*
X0365733Y0210798D01*
X0365679Y0210726D01*
X0365622Y0210657D01*
X0365563Y0210589D01*
X0365500Y0210525D01*
X0364223Y0212569D02*
X0364257Y0212623D01*
X0364294Y0212674D01*
X0364334Y0212723D01*
X0364377Y0212770D01*
X0364423Y0212813D01*
X0364471Y0212854D01*
X0364522Y0212892D01*
X0364575Y0212927D01*
X0364630Y0212959D01*
X0364687Y0212987D01*
X0364745Y0213011D01*
X0364805Y0213032D01*
X0364866Y0213049D01*
X0364928Y0213063D01*
X0364991Y0213072D01*
X0365054Y0213078D01*
X0365117Y0213080D01*
X0365179Y0213078D01*
X0365240Y0213073D01*
X0365301Y0213063D01*
X0365362Y0213050D01*
X0365421Y0213034D01*
X0365479Y0213014D01*
X0365536Y0212990D01*
X0365592Y0212963D01*
X0365646Y0212933D01*
X0365698Y0212899D01*
X0365747Y0212863D01*
X0365795Y0212823D01*
X0365840Y0212781D01*
X0365882Y0212736D01*
X0365922Y0212688D01*
X0365958Y0212639D01*
X0365992Y0212587D01*
X0366022Y0212533D01*
X0366049Y0212477D01*
X0366073Y0212420D01*
X0366093Y0212362D01*
X0366109Y0212303D01*
X0366122Y0212242D01*
X0366132Y0212181D01*
X0366137Y0212120D01*
X0366139Y0212058D01*
X0361922Y0212824D02*
X0361874Y0212757D01*
X0361829Y0212689D01*
X0361787Y0212618D01*
X0361749Y0212545D01*
X0361713Y0212471D01*
X0361680Y0212396D01*
X0361651Y0212319D01*
X0361625Y0212241D01*
X0361602Y0212162D01*
X0361583Y0212082D01*
X0361567Y0212001D01*
X0361555Y0211920D01*
X0361546Y0211838D01*
X0361541Y0211756D01*
X0361539Y0211674D01*
X0361540Y0211674D02*
X0361542Y0211612D01*
X0361547Y0211551D01*
X0361557Y0211490D01*
X0361570Y0211429D01*
X0361586Y0211370D01*
X0361606Y0211312D01*
X0361630Y0211255D01*
X0361657Y0211199D01*
X0361687Y0211145D01*
X0361721Y0211093D01*
X0361757Y0211044D01*
X0361797Y0210996D01*
X0361839Y0210951D01*
X0361884Y0210909D01*
X0361932Y0210869D01*
X0361981Y0210833D01*
X0362033Y0210799D01*
X0362087Y0210769D01*
X0362143Y0210742D01*
X0362200Y0210718D01*
X0362258Y0210698D01*
X0362317Y0210682D01*
X0362378Y0210669D01*
X0362439Y0210659D01*
X0362500Y0210654D01*
X0362562Y0210652D01*
X0362625Y0210654D01*
X0362688Y0210660D01*
X0362751Y0210669D01*
X0362813Y0210683D01*
X0362874Y0210700D01*
X0362934Y0210721D01*
X0362992Y0210745D01*
X0363049Y0210773D01*
X0363104Y0210805D01*
X0363157Y0210840D01*
X0363208Y0210878D01*
X0363256Y0210919D01*
X0363302Y0210962D01*
X0363345Y0211009D01*
X0363385Y0211058D01*
X0363422Y0211109D01*
X0363456Y0211163D01*
X0361539Y0214708D02*
X0366139Y0215730D01*
X0363073Y0216752D01*
X0366139Y0217774D01*
X0361539Y0218797D01*
X0366650Y0220380D02*
X0366650Y0222424D01*
X0366139Y0224174D02*
X0366139Y0225452D01*
X0366140Y0225452D02*
X0366138Y0225522D01*
X0366132Y0225593D01*
X0366123Y0225662D01*
X0366109Y0225731D01*
X0366092Y0225800D01*
X0366071Y0225867D01*
X0366046Y0225933D01*
X0366018Y0225997D01*
X0365986Y0226060D01*
X0365951Y0226121D01*
X0365912Y0226180D01*
X0365871Y0226237D01*
X0365826Y0226291D01*
X0365778Y0226343D01*
X0365728Y0226392D01*
X0365674Y0226439D01*
X0365619Y0226482D01*
X0365561Y0226522D01*
X0365501Y0226559D01*
X0365439Y0226592D01*
X0365375Y0226622D01*
X0365310Y0226649D01*
X0365244Y0226672D01*
X0365176Y0226691D01*
X0365107Y0226706D01*
X0365038Y0226718D01*
X0364968Y0226726D01*
X0364897Y0226730D01*
X0364827Y0226730D01*
X0364756Y0226726D01*
X0364686Y0226718D01*
X0364617Y0226706D01*
X0364548Y0226691D01*
X0364480Y0226672D01*
X0364414Y0226649D01*
X0364349Y0226622D01*
X0364285Y0226592D01*
X0364223Y0226559D01*
X0364163Y0226522D01*
X0364105Y0226482D01*
X0364050Y0226439D01*
X0363996Y0226392D01*
X0363946Y0226343D01*
X0363898Y0226291D01*
X0363853Y0226237D01*
X0363812Y0226180D01*
X0363773Y0226121D01*
X0363738Y0226060D01*
X0363706Y0225997D01*
X0363678Y0225933D01*
X0363653Y0225867D01*
X0363632Y0225800D01*
X0363615Y0225731D01*
X0363601Y0225662D01*
X0363592Y0225593D01*
X0363586Y0225522D01*
X0363584Y0225452D01*
X0363584Y0225708D02*
X0363584Y0224685D01*
X0363584Y0225708D02*
X0363582Y0225771D01*
X0363576Y0225834D01*
X0363567Y0225896D01*
X0363553Y0225957D01*
X0363536Y0226018D01*
X0363515Y0226077D01*
X0363490Y0226135D01*
X0363462Y0226192D01*
X0363431Y0226246D01*
X0363396Y0226298D01*
X0363358Y0226349D01*
X0363317Y0226397D01*
X0363273Y0226442D01*
X0363227Y0226484D01*
X0363178Y0226524D01*
X0363127Y0226560D01*
X0363073Y0226593D01*
X0363018Y0226623D01*
X0362960Y0226649D01*
X0362902Y0226672D01*
X0362842Y0226691D01*
X0362781Y0226706D01*
X0362719Y0226718D01*
X0362656Y0226726D01*
X0362593Y0226730D01*
X0362531Y0226730D01*
X0362468Y0226726D01*
X0362405Y0226718D01*
X0362343Y0226706D01*
X0362282Y0226691D01*
X0362222Y0226672D01*
X0362164Y0226649D01*
X0362106Y0226623D01*
X0362051Y0226593D01*
X0361997Y0226560D01*
X0361946Y0226524D01*
X0361897Y0226484D01*
X0361851Y0226442D01*
X0361807Y0226397D01*
X0361766Y0226349D01*
X0361728Y0226298D01*
X0361693Y0226246D01*
X0361662Y0226192D01*
X0361634Y0226135D01*
X0361609Y0226077D01*
X0361588Y0226018D01*
X0361571Y0225957D01*
X0361557Y0225896D01*
X0361548Y0225834D01*
X0361542Y0225771D01*
X0361540Y0225708D01*
X0361539Y0225708D02*
X0361539Y0224174D01*
X0187606Y0216500D02*
X0185050Y0216500D01*
X0186328Y0216500D02*
X0186328Y0221100D01*
X0185050Y0220078D01*
X0182767Y0218417D02*
X0182128Y0218800D01*
X0181489Y0219183D01*
X0181105Y0217267D02*
X0181180Y0217224D01*
X0181256Y0217185D01*
X0181334Y0217148D01*
X0181413Y0217116D01*
X0181494Y0217086D01*
X0181576Y0217060D01*
X0181659Y0217038D01*
X0181743Y0217019D01*
X0181827Y0217003D01*
X0181912Y0216992D01*
X0181998Y0216984D01*
X0182083Y0216979D01*
X0182169Y0216978D01*
X0182255Y0216981D01*
X0182341Y0216987D01*
X0182426Y0216997D01*
X0182511Y0217011D01*
X0182128Y0216500D02*
X0182128Y0221100D01*
X0181745Y0220589D02*
X0181692Y0220577D01*
X0181640Y0220562D01*
X0181589Y0220542D01*
X0181540Y0220520D01*
X0181492Y0220494D01*
X0181446Y0220464D01*
X0181403Y0220432D01*
X0181362Y0220396D01*
X0181323Y0220358D01*
X0181288Y0220317D01*
X0181255Y0220273D01*
X0181226Y0220228D01*
X0181200Y0220180D01*
X0181177Y0220130D01*
X0181158Y0220080D01*
X0181143Y0220028D01*
X0181131Y0219974D01*
X0181124Y0219921D01*
X0181120Y0219867D01*
X0181119Y0219812D01*
X0181123Y0219758D01*
X0181131Y0219704D01*
X0181142Y0219651D01*
X0181157Y0219599D01*
X0181176Y0219548D01*
X0181199Y0219499D01*
X0181224Y0219451D01*
X0181254Y0219405D01*
X0181286Y0219362D01*
X0181321Y0219320D01*
X0181360Y0219282D01*
X0181401Y0219246D01*
X0181444Y0219213D01*
X0181489Y0219184D01*
X0181744Y0220589D02*
X0181829Y0220603D01*
X0181914Y0220613D01*
X0182000Y0220619D01*
X0182086Y0220622D01*
X0182172Y0220621D01*
X0182257Y0220616D01*
X0182343Y0220608D01*
X0182428Y0220597D01*
X0182512Y0220581D01*
X0182596Y0220562D01*
X0182679Y0220540D01*
X0182761Y0220514D01*
X0182842Y0220484D01*
X0182921Y0220452D01*
X0182999Y0220415D01*
X0183075Y0220376D01*
X0183150Y0220333D01*
X0182767Y0218416D02*
X0182812Y0218387D01*
X0182855Y0218354D01*
X0182896Y0218318D01*
X0182935Y0218280D01*
X0182970Y0218238D01*
X0183002Y0218195D01*
X0183032Y0218149D01*
X0183057Y0218101D01*
X0183080Y0218052D01*
X0183099Y0218001D01*
X0183114Y0217949D01*
X0183125Y0217896D01*
X0183133Y0217842D01*
X0183137Y0217788D01*
X0183136Y0217733D01*
X0183132Y0217679D01*
X0183125Y0217626D01*
X0183113Y0217572D01*
X0183098Y0217520D01*
X0183079Y0217470D01*
X0183056Y0217420D01*
X0183030Y0217372D01*
X0183001Y0217327D01*
X0182968Y0217283D01*
X0182933Y0217242D01*
X0182894Y0217204D01*
X0182853Y0217168D01*
X0182810Y0217136D01*
X0182764Y0217106D01*
X0182716Y0217080D01*
X0182667Y0217058D01*
X0182616Y0217038D01*
X0182564Y0217023D01*
X0182511Y0217011D01*
X0179056Y0217778D02*
X0179056Y0221100D01*
X0176500Y0221100D02*
X0176500Y0217778D01*
X0176502Y0217708D01*
X0176508Y0217637D01*
X0176517Y0217568D01*
X0176531Y0217499D01*
X0176548Y0217430D01*
X0176569Y0217363D01*
X0176594Y0217297D01*
X0176622Y0217233D01*
X0176654Y0217170D01*
X0176689Y0217109D01*
X0176728Y0217050D01*
X0176769Y0216993D01*
X0176814Y0216939D01*
X0176862Y0216887D01*
X0176912Y0216838D01*
X0176966Y0216791D01*
X0177021Y0216748D01*
X0177079Y0216708D01*
X0177139Y0216671D01*
X0177201Y0216638D01*
X0177265Y0216608D01*
X0177330Y0216581D01*
X0177396Y0216558D01*
X0177464Y0216539D01*
X0177533Y0216524D01*
X0177602Y0216512D01*
X0177672Y0216504D01*
X0177743Y0216500D01*
X0177813Y0216500D01*
X0177884Y0216504D01*
X0177954Y0216512D01*
X0178023Y0216524D01*
X0178092Y0216539D01*
X0178160Y0216558D01*
X0178226Y0216581D01*
X0178291Y0216608D01*
X0178355Y0216638D01*
X0178417Y0216671D01*
X0178477Y0216708D01*
X0178535Y0216748D01*
X0178590Y0216791D01*
X0178644Y0216838D01*
X0178694Y0216887D01*
X0178742Y0216939D01*
X0178787Y0216993D01*
X0178828Y0217050D01*
X0178867Y0217109D01*
X0178902Y0217170D01*
X0178934Y0217233D01*
X0178962Y0217297D01*
X0178987Y0217363D01*
X0179008Y0217430D01*
X0179025Y0217499D01*
X0179039Y0217568D01*
X0179048Y0217637D01*
X0179054Y0217708D01*
X0179056Y0217778D01*
D12*
X0044017Y0046536D02*
X0008583Y0046536D01*
X0008583Y0276064D01*
X0043623Y0276064D01*
X0044017Y0276064D02*
X0044017Y0046536D01*
X0066812Y0037599D02*
X0069371Y0037599D01*
X0069371Y0031300D01*
X0066812Y0037599D02*
X0066812Y0007678D01*
X0105788Y0007678D01*
X0105788Y0037599D01*
X0103229Y0037599D01*
X0103229Y0031300D01*
X0111812Y0037599D02*
X0114371Y0037599D01*
X0114371Y0031300D01*
X0111812Y0037599D02*
X0111812Y0007678D01*
X0150788Y0007678D01*
X0150788Y0037599D01*
X0148229Y0037599D01*
X0148229Y0031300D01*
X0061615Y0081300D02*
X0061621Y0081783D01*
X0061639Y0082266D01*
X0061668Y0082748D01*
X0061710Y0083229D01*
X0061763Y0083710D01*
X0061828Y0084188D01*
X0061905Y0084665D01*
X0061993Y0085140D01*
X0062093Y0085613D01*
X0062205Y0086083D01*
X0062328Y0086550D01*
X0062463Y0087014D01*
X0062609Y0087475D01*
X0062766Y0087932D01*
X0062934Y0088385D01*
X0063113Y0088833D01*
X0063304Y0089277D01*
X0063505Y0089716D01*
X0063717Y0090151D01*
X0063939Y0090579D01*
X0064172Y0091003D01*
X0064416Y0091420D01*
X0064669Y0091831D01*
X0064933Y0092236D01*
X0065206Y0092635D01*
X0065489Y0093026D01*
X0065781Y0093411D01*
X0066083Y0093788D01*
X0066394Y0094158D01*
X0066714Y0094520D01*
X0067043Y0094874D01*
X0067381Y0095219D01*
X0067726Y0095557D01*
X0068080Y0095886D01*
X0068442Y0096206D01*
X0068812Y0096517D01*
X0069189Y0096819D01*
X0069574Y0097111D01*
X0069965Y0097394D01*
X0070364Y0097667D01*
X0070769Y0097931D01*
X0071180Y0098184D01*
X0071597Y0098428D01*
X0072021Y0098661D01*
X0072449Y0098883D01*
X0072884Y0099095D01*
X0073323Y0099296D01*
X0073767Y0099487D01*
X0074215Y0099666D01*
X0074668Y0099834D01*
X0075125Y0099991D01*
X0075586Y0100137D01*
X0076050Y0100272D01*
X0076517Y0100395D01*
X0076987Y0100507D01*
X0077460Y0100607D01*
X0077935Y0100695D01*
X0078412Y0100772D01*
X0078890Y0100837D01*
X0079371Y0100890D01*
X0079852Y0100932D01*
X0080334Y0100961D01*
X0080817Y0100979D01*
X0081300Y0100985D01*
X0081783Y0100979D01*
X0082266Y0100961D01*
X0082748Y0100932D01*
X0083229Y0100890D01*
X0083710Y0100837D01*
X0084188Y0100772D01*
X0084665Y0100695D01*
X0085140Y0100607D01*
X0085613Y0100507D01*
X0086083Y0100395D01*
X0086550Y0100272D01*
X0087014Y0100137D01*
X0087475Y0099991D01*
X0087932Y0099834D01*
X0088385Y0099666D01*
X0088833Y0099487D01*
X0089277Y0099296D01*
X0089716Y0099095D01*
X0090151Y0098883D01*
X0090579Y0098661D01*
X0091003Y0098428D01*
X0091420Y0098184D01*
X0091831Y0097931D01*
X0092236Y0097667D01*
X0092635Y0097394D01*
X0093026Y0097111D01*
X0093411Y0096819D01*
X0093788Y0096517D01*
X0094158Y0096206D01*
X0094520Y0095886D01*
X0094874Y0095557D01*
X0095219Y0095219D01*
X0095557Y0094874D01*
X0095886Y0094520D01*
X0096206Y0094158D01*
X0096517Y0093788D01*
X0096819Y0093411D01*
X0097111Y0093026D01*
X0097394Y0092635D01*
X0097667Y0092236D01*
X0097931Y0091831D01*
X0098184Y0091420D01*
X0098428Y0091003D01*
X0098661Y0090579D01*
X0098883Y0090151D01*
X0099095Y0089716D01*
X0099296Y0089277D01*
X0099487Y0088833D01*
X0099666Y0088385D01*
X0099834Y0087932D01*
X0099991Y0087475D01*
X0100137Y0087014D01*
X0100272Y0086550D01*
X0100395Y0086083D01*
X0100507Y0085613D01*
X0100607Y0085140D01*
X0100695Y0084665D01*
X0100772Y0084188D01*
X0100837Y0083710D01*
X0100890Y0083229D01*
X0100932Y0082748D01*
X0100961Y0082266D01*
X0100979Y0081783D01*
X0100985Y0081300D01*
X0100979Y0080817D01*
X0100961Y0080334D01*
X0100932Y0079852D01*
X0100890Y0079371D01*
X0100837Y0078890D01*
X0100772Y0078412D01*
X0100695Y0077935D01*
X0100607Y0077460D01*
X0100507Y0076987D01*
X0100395Y0076517D01*
X0100272Y0076050D01*
X0100137Y0075586D01*
X0099991Y0075125D01*
X0099834Y0074668D01*
X0099666Y0074215D01*
X0099487Y0073767D01*
X0099296Y0073323D01*
X0099095Y0072884D01*
X0098883Y0072449D01*
X0098661Y0072021D01*
X0098428Y0071597D01*
X0098184Y0071180D01*
X0097931Y0070769D01*
X0097667Y0070364D01*
X0097394Y0069965D01*
X0097111Y0069574D01*
X0096819Y0069189D01*
X0096517Y0068812D01*
X0096206Y0068442D01*
X0095886Y0068080D01*
X0095557Y0067726D01*
X0095219Y0067381D01*
X0094874Y0067043D01*
X0094520Y0066714D01*
X0094158Y0066394D01*
X0093788Y0066083D01*
X0093411Y0065781D01*
X0093026Y0065489D01*
X0092635Y0065206D01*
X0092236Y0064933D01*
X0091831Y0064669D01*
X0091420Y0064416D01*
X0091003Y0064172D01*
X0090579Y0063939D01*
X0090151Y0063717D01*
X0089716Y0063505D01*
X0089277Y0063304D01*
X0088833Y0063113D01*
X0088385Y0062934D01*
X0087932Y0062766D01*
X0087475Y0062609D01*
X0087014Y0062463D01*
X0086550Y0062328D01*
X0086083Y0062205D01*
X0085613Y0062093D01*
X0085140Y0061993D01*
X0084665Y0061905D01*
X0084188Y0061828D01*
X0083710Y0061763D01*
X0083229Y0061710D01*
X0082748Y0061668D01*
X0082266Y0061639D01*
X0081783Y0061621D01*
X0081300Y0061615D01*
X0080817Y0061621D01*
X0080334Y0061639D01*
X0079852Y0061668D01*
X0079371Y0061710D01*
X0078890Y0061763D01*
X0078412Y0061828D01*
X0077935Y0061905D01*
X0077460Y0061993D01*
X0076987Y0062093D01*
X0076517Y0062205D01*
X0076050Y0062328D01*
X0075586Y0062463D01*
X0075125Y0062609D01*
X0074668Y0062766D01*
X0074215Y0062934D01*
X0073767Y0063113D01*
X0073323Y0063304D01*
X0072884Y0063505D01*
X0072449Y0063717D01*
X0072021Y0063939D01*
X0071597Y0064172D01*
X0071180Y0064416D01*
X0070769Y0064669D01*
X0070364Y0064933D01*
X0069965Y0065206D01*
X0069574Y0065489D01*
X0069189Y0065781D01*
X0068812Y0066083D01*
X0068442Y0066394D01*
X0068080Y0066714D01*
X0067726Y0067043D01*
X0067381Y0067381D01*
X0067043Y0067726D01*
X0066714Y0068080D01*
X0066394Y0068442D01*
X0066083Y0068812D01*
X0065781Y0069189D01*
X0065489Y0069574D01*
X0065206Y0069965D01*
X0064933Y0070364D01*
X0064669Y0070769D01*
X0064416Y0071180D01*
X0064172Y0071597D01*
X0063939Y0072021D01*
X0063717Y0072449D01*
X0063505Y0072884D01*
X0063304Y0073323D01*
X0063113Y0073767D01*
X0062934Y0074215D01*
X0062766Y0074668D01*
X0062609Y0075125D01*
X0062463Y0075586D01*
X0062328Y0076050D01*
X0062205Y0076517D01*
X0062093Y0076987D01*
X0061993Y0077460D01*
X0061905Y0077935D01*
X0061828Y0078412D01*
X0061763Y0078890D01*
X0061710Y0079371D01*
X0061668Y0079852D01*
X0061639Y0080334D01*
X0061621Y0080817D01*
X0061615Y0081300D01*
X0071300Y0073800D02*
X0071300Y0068800D01*
X0071300Y0088800D02*
X0071300Y0093800D01*
X0068800Y0091300D02*
X0073800Y0091300D01*
X0014489Y0152639D02*
X0008583Y0152639D01*
X0014489Y0152639D02*
X0014489Y0169961D01*
X0008583Y0169961D01*
X0015375Y0253800D02*
X0015375Y0258800D01*
X0050749Y0280001D02*
X0053308Y0280001D01*
X0053308Y0286300D01*
X0050749Y0280001D02*
X0050749Y0309922D01*
X0081851Y0309922D01*
X0081851Y0280001D01*
X0079292Y0280001D01*
X0079292Y0286300D01*
X0088308Y0286300D02*
X0088308Y0280001D01*
X0085749Y0280001D01*
X0085749Y0309922D01*
X0116851Y0309922D01*
X0116851Y0280001D01*
X0114292Y0280001D01*
X0114292Y0286300D01*
X0123308Y0286300D02*
X0123308Y0280001D01*
X0120749Y0280001D01*
X0120749Y0309922D01*
X0151851Y0309922D01*
X0151851Y0280001D01*
X0149292Y0280001D01*
X0149292Y0286300D01*
X0158308Y0286300D02*
X0158308Y0280001D01*
X0155749Y0280001D01*
X0155749Y0309922D01*
X0186851Y0309922D01*
X0186851Y0280001D01*
X0184292Y0280001D01*
X0184292Y0286300D01*
X0193308Y0286300D02*
X0193308Y0280001D01*
X0190749Y0280001D01*
X0190749Y0309922D01*
X0221851Y0309922D01*
X0221851Y0280001D01*
X0219292Y0280001D01*
X0219292Y0286300D01*
X0225749Y0280001D02*
X0228308Y0280001D01*
X0228308Y0286300D01*
X0225749Y0280001D02*
X0225749Y0309922D01*
X0256851Y0309922D01*
X0256851Y0280001D01*
X0254292Y0280001D01*
X0254292Y0286300D01*
X0263308Y0286300D02*
X0263308Y0280001D01*
X0260749Y0280001D01*
X0260749Y0309922D01*
X0291851Y0309922D01*
X0291851Y0280001D01*
X0289292Y0280001D01*
X0289292Y0286300D01*
X0295749Y0280001D02*
X0298308Y0280001D01*
X0298308Y0286300D01*
X0295749Y0280001D02*
X0295749Y0309922D01*
X0326851Y0309922D01*
X0326851Y0280001D01*
X0324292Y0280001D01*
X0324292Y0286300D01*
X0333308Y0286300D02*
X0333308Y0280001D01*
X0330749Y0280001D01*
X0330749Y0309922D01*
X0361851Y0309922D01*
X0361851Y0280001D01*
X0359292Y0280001D01*
X0359292Y0286300D01*
X0368308Y0286300D02*
X0368308Y0280001D01*
X0365749Y0280001D01*
X0365749Y0309922D01*
X0396851Y0309922D01*
X0396851Y0280001D01*
X0394292Y0280001D01*
X0394292Y0286300D01*
X0346300Y0093800D02*
X0346300Y0088800D01*
X0316615Y0081300D02*
X0316621Y0081783D01*
X0316639Y0082266D01*
X0316668Y0082748D01*
X0316710Y0083229D01*
X0316763Y0083710D01*
X0316828Y0084188D01*
X0316905Y0084665D01*
X0316993Y0085140D01*
X0317093Y0085613D01*
X0317205Y0086083D01*
X0317328Y0086550D01*
X0317463Y0087014D01*
X0317609Y0087475D01*
X0317766Y0087932D01*
X0317934Y0088385D01*
X0318113Y0088833D01*
X0318304Y0089277D01*
X0318505Y0089716D01*
X0318717Y0090151D01*
X0318939Y0090579D01*
X0319172Y0091003D01*
X0319416Y0091420D01*
X0319669Y0091831D01*
X0319933Y0092236D01*
X0320206Y0092635D01*
X0320489Y0093026D01*
X0320781Y0093411D01*
X0321083Y0093788D01*
X0321394Y0094158D01*
X0321714Y0094520D01*
X0322043Y0094874D01*
X0322381Y0095219D01*
X0322726Y0095557D01*
X0323080Y0095886D01*
X0323442Y0096206D01*
X0323812Y0096517D01*
X0324189Y0096819D01*
X0324574Y0097111D01*
X0324965Y0097394D01*
X0325364Y0097667D01*
X0325769Y0097931D01*
X0326180Y0098184D01*
X0326597Y0098428D01*
X0327021Y0098661D01*
X0327449Y0098883D01*
X0327884Y0099095D01*
X0328323Y0099296D01*
X0328767Y0099487D01*
X0329215Y0099666D01*
X0329668Y0099834D01*
X0330125Y0099991D01*
X0330586Y0100137D01*
X0331050Y0100272D01*
X0331517Y0100395D01*
X0331987Y0100507D01*
X0332460Y0100607D01*
X0332935Y0100695D01*
X0333412Y0100772D01*
X0333890Y0100837D01*
X0334371Y0100890D01*
X0334852Y0100932D01*
X0335334Y0100961D01*
X0335817Y0100979D01*
X0336300Y0100985D01*
X0336783Y0100979D01*
X0337266Y0100961D01*
X0337748Y0100932D01*
X0338229Y0100890D01*
X0338710Y0100837D01*
X0339188Y0100772D01*
X0339665Y0100695D01*
X0340140Y0100607D01*
X0340613Y0100507D01*
X0341083Y0100395D01*
X0341550Y0100272D01*
X0342014Y0100137D01*
X0342475Y0099991D01*
X0342932Y0099834D01*
X0343385Y0099666D01*
X0343833Y0099487D01*
X0344277Y0099296D01*
X0344716Y0099095D01*
X0345151Y0098883D01*
X0345579Y0098661D01*
X0346003Y0098428D01*
X0346420Y0098184D01*
X0346831Y0097931D01*
X0347236Y0097667D01*
X0347635Y0097394D01*
X0348026Y0097111D01*
X0348411Y0096819D01*
X0348788Y0096517D01*
X0349158Y0096206D01*
X0349520Y0095886D01*
X0349874Y0095557D01*
X0350219Y0095219D01*
X0350557Y0094874D01*
X0350886Y0094520D01*
X0351206Y0094158D01*
X0351517Y0093788D01*
X0351819Y0093411D01*
X0352111Y0093026D01*
X0352394Y0092635D01*
X0352667Y0092236D01*
X0352931Y0091831D01*
X0353184Y0091420D01*
X0353428Y0091003D01*
X0353661Y0090579D01*
X0353883Y0090151D01*
X0354095Y0089716D01*
X0354296Y0089277D01*
X0354487Y0088833D01*
X0354666Y0088385D01*
X0354834Y0087932D01*
X0354991Y0087475D01*
X0355137Y0087014D01*
X0355272Y0086550D01*
X0355395Y0086083D01*
X0355507Y0085613D01*
X0355607Y0085140D01*
X0355695Y0084665D01*
X0355772Y0084188D01*
X0355837Y0083710D01*
X0355890Y0083229D01*
X0355932Y0082748D01*
X0355961Y0082266D01*
X0355979Y0081783D01*
X0355985Y0081300D01*
X0355979Y0080817D01*
X0355961Y0080334D01*
X0355932Y0079852D01*
X0355890Y0079371D01*
X0355837Y0078890D01*
X0355772Y0078412D01*
X0355695Y0077935D01*
X0355607Y0077460D01*
X0355507Y0076987D01*
X0355395Y0076517D01*
X0355272Y0076050D01*
X0355137Y0075586D01*
X0354991Y0075125D01*
X0354834Y0074668D01*
X0354666Y0074215D01*
X0354487Y0073767D01*
X0354296Y0073323D01*
X0354095Y0072884D01*
X0353883Y0072449D01*
X0353661Y0072021D01*
X0353428Y0071597D01*
X0353184Y0071180D01*
X0352931Y0070769D01*
X0352667Y0070364D01*
X0352394Y0069965D01*
X0352111Y0069574D01*
X0351819Y0069189D01*
X0351517Y0068812D01*
X0351206Y0068442D01*
X0350886Y0068080D01*
X0350557Y0067726D01*
X0350219Y0067381D01*
X0349874Y0067043D01*
X0349520Y0066714D01*
X0349158Y0066394D01*
X0348788Y0066083D01*
X0348411Y0065781D01*
X0348026Y0065489D01*
X0347635Y0065206D01*
X0347236Y0064933D01*
X0346831Y0064669D01*
X0346420Y0064416D01*
X0346003Y0064172D01*
X0345579Y0063939D01*
X0345151Y0063717D01*
X0344716Y0063505D01*
X0344277Y0063304D01*
X0343833Y0063113D01*
X0343385Y0062934D01*
X0342932Y0062766D01*
X0342475Y0062609D01*
X0342014Y0062463D01*
X0341550Y0062328D01*
X0341083Y0062205D01*
X0340613Y0062093D01*
X0340140Y0061993D01*
X0339665Y0061905D01*
X0339188Y0061828D01*
X0338710Y0061763D01*
X0338229Y0061710D01*
X0337748Y0061668D01*
X0337266Y0061639D01*
X0336783Y0061621D01*
X0336300Y0061615D01*
X0335817Y0061621D01*
X0335334Y0061639D01*
X0334852Y0061668D01*
X0334371Y0061710D01*
X0333890Y0061763D01*
X0333412Y0061828D01*
X0332935Y0061905D01*
X0332460Y0061993D01*
X0331987Y0062093D01*
X0331517Y0062205D01*
X0331050Y0062328D01*
X0330586Y0062463D01*
X0330125Y0062609D01*
X0329668Y0062766D01*
X0329215Y0062934D01*
X0328767Y0063113D01*
X0328323Y0063304D01*
X0327884Y0063505D01*
X0327449Y0063717D01*
X0327021Y0063939D01*
X0326597Y0064172D01*
X0326180Y0064416D01*
X0325769Y0064669D01*
X0325364Y0064933D01*
X0324965Y0065206D01*
X0324574Y0065489D01*
X0324189Y0065781D01*
X0323812Y0066083D01*
X0323442Y0066394D01*
X0323080Y0066714D01*
X0322726Y0067043D01*
X0322381Y0067381D01*
X0322043Y0067726D01*
X0321714Y0068080D01*
X0321394Y0068442D01*
X0321083Y0068812D01*
X0320781Y0069189D01*
X0320489Y0069574D01*
X0320206Y0069965D01*
X0319933Y0070364D01*
X0319669Y0070769D01*
X0319416Y0071180D01*
X0319172Y0071597D01*
X0318939Y0072021D01*
X0318717Y0072449D01*
X0318505Y0072884D01*
X0318304Y0073323D01*
X0318113Y0073767D01*
X0317934Y0074215D01*
X0317766Y0074668D01*
X0317609Y0075125D01*
X0317463Y0075586D01*
X0317328Y0076050D01*
X0317205Y0076517D01*
X0317093Y0076987D01*
X0316993Y0077460D01*
X0316905Y0077935D01*
X0316828Y0078412D01*
X0316763Y0078890D01*
X0316710Y0079371D01*
X0316668Y0079852D01*
X0316639Y0080334D01*
X0316621Y0080817D01*
X0316615Y0081300D01*
X0343800Y0071300D02*
X0348800Y0071300D01*
X0346300Y0068800D02*
X0346300Y0073800D01*
D13*
X0371392Y0120770D02*
X0371392Y0124037D01*
X0373026Y0122403D02*
X0369759Y0122403D01*
X0372180Y0128309D02*
X0372180Y0131576D01*
X0371392Y0165770D02*
X0371392Y0169037D01*
X0373026Y0167403D02*
X0369759Y0167403D01*
X0372180Y0173309D02*
X0372180Y0176576D01*
X0371392Y0210770D02*
X0371392Y0214037D01*
X0373026Y0212403D02*
X0369759Y0212403D01*
X0372180Y0218309D02*
X0372180Y0221576D01*
D14*
X0339800Y0221300D03*
X0339800Y0176300D03*
X0339800Y0131300D03*
D15*
X0337300Y0148550D03*
X0337300Y0159050D03*
X0337300Y0193550D03*
X0337300Y0204050D03*
X0337300Y0238550D03*
X0337300Y0114050D03*
D16*
X0337300Y0126300D03*
X0337300Y0136300D03*
X0337300Y0171300D03*
X0337300Y0181300D03*
X0337300Y0216300D03*
X0337300Y0226300D03*
D17*
X0207300Y0146300D02*
X0205300Y0146300D01*
X0205300Y0126300D02*
X0207300Y0126300D01*
X0061300Y0160300D02*
X0061300Y0162300D01*
X0061300Y0180300D02*
X0061300Y0182300D01*
X0061300Y0205300D02*
X0061300Y0207300D01*
D18*
X0056300Y0211300D02*
X0056302Y0211441D01*
X0056308Y0211582D01*
X0056318Y0211722D01*
X0056332Y0211862D01*
X0056350Y0212002D01*
X0056371Y0212141D01*
X0056397Y0212280D01*
X0056426Y0212418D01*
X0056460Y0212554D01*
X0056497Y0212690D01*
X0056538Y0212825D01*
X0056583Y0212959D01*
X0056632Y0213091D01*
X0056684Y0213222D01*
X0056740Y0213351D01*
X0056800Y0213478D01*
X0056863Y0213604D01*
X0056929Y0213728D01*
X0057000Y0213851D01*
X0057073Y0213971D01*
X0057150Y0214089D01*
X0057230Y0214205D01*
X0057314Y0214318D01*
X0057400Y0214429D01*
X0057490Y0214538D01*
X0057583Y0214644D01*
X0057678Y0214747D01*
X0057777Y0214848D01*
X0057878Y0214946D01*
X0057982Y0215041D01*
X0058089Y0215133D01*
X0058198Y0215222D01*
X0058310Y0215307D01*
X0058424Y0215390D01*
X0058540Y0215470D01*
X0058659Y0215546D01*
X0058780Y0215618D01*
X0058902Y0215688D01*
X0059027Y0215753D01*
X0059153Y0215816D01*
X0059281Y0215874D01*
X0059411Y0215929D01*
X0059542Y0215981D01*
X0059675Y0216028D01*
X0059809Y0216072D01*
X0059944Y0216113D01*
X0060080Y0216149D01*
X0060217Y0216181D01*
X0060355Y0216210D01*
X0060493Y0216235D01*
X0060633Y0216255D01*
X0060773Y0216272D01*
X0060913Y0216285D01*
X0061054Y0216294D01*
X0061194Y0216299D01*
X0061335Y0216300D01*
X0061476Y0216297D01*
X0061617Y0216290D01*
X0061757Y0216279D01*
X0061897Y0216264D01*
X0062037Y0216245D01*
X0062176Y0216223D01*
X0062314Y0216196D01*
X0062452Y0216166D01*
X0062588Y0216131D01*
X0062724Y0216093D01*
X0062858Y0216051D01*
X0062992Y0216005D01*
X0063124Y0215956D01*
X0063254Y0215902D01*
X0063383Y0215845D01*
X0063510Y0215785D01*
X0063636Y0215721D01*
X0063759Y0215653D01*
X0063881Y0215582D01*
X0064001Y0215508D01*
X0064118Y0215430D01*
X0064233Y0215349D01*
X0064346Y0215265D01*
X0064457Y0215178D01*
X0064565Y0215087D01*
X0064670Y0214994D01*
X0064773Y0214897D01*
X0064873Y0214798D01*
X0064970Y0214696D01*
X0065064Y0214591D01*
X0065155Y0214484D01*
X0065243Y0214374D01*
X0065328Y0214262D01*
X0065410Y0214147D01*
X0065489Y0214030D01*
X0065564Y0213911D01*
X0065636Y0213790D01*
X0065704Y0213667D01*
X0065769Y0213542D01*
X0065831Y0213415D01*
X0065888Y0213286D01*
X0065943Y0213156D01*
X0065993Y0213025D01*
X0066040Y0212892D01*
X0066083Y0212758D01*
X0066122Y0212622D01*
X0066157Y0212486D01*
X0066189Y0212349D01*
X0066216Y0212211D01*
X0066240Y0212072D01*
X0066260Y0211932D01*
X0066276Y0211792D01*
X0066288Y0211652D01*
X0066296Y0211511D01*
X0066300Y0211370D01*
X0066300Y0211230D01*
X0066296Y0211089D01*
X0066288Y0210948D01*
X0066276Y0210808D01*
X0066260Y0210668D01*
X0066240Y0210528D01*
X0066216Y0210389D01*
X0066189Y0210251D01*
X0066157Y0210114D01*
X0066122Y0209978D01*
X0066083Y0209842D01*
X0066040Y0209708D01*
X0065993Y0209575D01*
X0065943Y0209444D01*
X0065888Y0209314D01*
X0065831Y0209185D01*
X0065769Y0209058D01*
X0065704Y0208933D01*
X0065636Y0208810D01*
X0065564Y0208689D01*
X0065489Y0208570D01*
X0065410Y0208453D01*
X0065328Y0208338D01*
X0065243Y0208226D01*
X0065155Y0208116D01*
X0065064Y0208009D01*
X0064970Y0207904D01*
X0064873Y0207802D01*
X0064773Y0207703D01*
X0064670Y0207606D01*
X0064565Y0207513D01*
X0064457Y0207422D01*
X0064346Y0207335D01*
X0064233Y0207251D01*
X0064118Y0207170D01*
X0064001Y0207092D01*
X0063881Y0207018D01*
X0063759Y0206947D01*
X0063636Y0206879D01*
X0063510Y0206815D01*
X0063383Y0206755D01*
X0063254Y0206698D01*
X0063124Y0206644D01*
X0062992Y0206595D01*
X0062858Y0206549D01*
X0062724Y0206507D01*
X0062588Y0206469D01*
X0062452Y0206434D01*
X0062314Y0206404D01*
X0062176Y0206377D01*
X0062037Y0206355D01*
X0061897Y0206336D01*
X0061757Y0206321D01*
X0061617Y0206310D01*
X0061476Y0206303D01*
X0061335Y0206300D01*
X0061194Y0206301D01*
X0061054Y0206306D01*
X0060913Y0206315D01*
X0060773Y0206328D01*
X0060633Y0206345D01*
X0060493Y0206365D01*
X0060355Y0206390D01*
X0060217Y0206419D01*
X0060080Y0206451D01*
X0059944Y0206487D01*
X0059809Y0206528D01*
X0059675Y0206572D01*
X0059542Y0206619D01*
X0059411Y0206671D01*
X0059281Y0206726D01*
X0059153Y0206784D01*
X0059027Y0206847D01*
X0058902Y0206912D01*
X0058780Y0206982D01*
X0058659Y0207054D01*
X0058540Y0207130D01*
X0058424Y0207210D01*
X0058310Y0207293D01*
X0058198Y0207378D01*
X0058089Y0207467D01*
X0057982Y0207559D01*
X0057878Y0207654D01*
X0057777Y0207752D01*
X0057678Y0207853D01*
X0057583Y0207956D01*
X0057490Y0208062D01*
X0057400Y0208171D01*
X0057314Y0208282D01*
X0057230Y0208395D01*
X0057150Y0208511D01*
X0057073Y0208629D01*
X0057000Y0208749D01*
X0056929Y0208872D01*
X0056863Y0208996D01*
X0056800Y0209122D01*
X0056740Y0209249D01*
X0056684Y0209378D01*
X0056632Y0209509D01*
X0056583Y0209641D01*
X0056538Y0209775D01*
X0056497Y0209910D01*
X0056460Y0210046D01*
X0056426Y0210182D01*
X0056397Y0210320D01*
X0056371Y0210459D01*
X0056350Y0210598D01*
X0056332Y0210738D01*
X0056318Y0210878D01*
X0056308Y0211018D01*
X0056302Y0211159D01*
X0056300Y0211300D01*
X0056300Y0186300D02*
X0056302Y0186441D01*
X0056308Y0186582D01*
X0056318Y0186722D01*
X0056332Y0186862D01*
X0056350Y0187002D01*
X0056371Y0187141D01*
X0056397Y0187280D01*
X0056426Y0187418D01*
X0056460Y0187554D01*
X0056497Y0187690D01*
X0056538Y0187825D01*
X0056583Y0187959D01*
X0056632Y0188091D01*
X0056684Y0188222D01*
X0056740Y0188351D01*
X0056800Y0188478D01*
X0056863Y0188604D01*
X0056929Y0188728D01*
X0057000Y0188851D01*
X0057073Y0188971D01*
X0057150Y0189089D01*
X0057230Y0189205D01*
X0057314Y0189318D01*
X0057400Y0189429D01*
X0057490Y0189538D01*
X0057583Y0189644D01*
X0057678Y0189747D01*
X0057777Y0189848D01*
X0057878Y0189946D01*
X0057982Y0190041D01*
X0058089Y0190133D01*
X0058198Y0190222D01*
X0058310Y0190307D01*
X0058424Y0190390D01*
X0058540Y0190470D01*
X0058659Y0190546D01*
X0058780Y0190618D01*
X0058902Y0190688D01*
X0059027Y0190753D01*
X0059153Y0190816D01*
X0059281Y0190874D01*
X0059411Y0190929D01*
X0059542Y0190981D01*
X0059675Y0191028D01*
X0059809Y0191072D01*
X0059944Y0191113D01*
X0060080Y0191149D01*
X0060217Y0191181D01*
X0060355Y0191210D01*
X0060493Y0191235D01*
X0060633Y0191255D01*
X0060773Y0191272D01*
X0060913Y0191285D01*
X0061054Y0191294D01*
X0061194Y0191299D01*
X0061335Y0191300D01*
X0061476Y0191297D01*
X0061617Y0191290D01*
X0061757Y0191279D01*
X0061897Y0191264D01*
X0062037Y0191245D01*
X0062176Y0191223D01*
X0062314Y0191196D01*
X0062452Y0191166D01*
X0062588Y0191131D01*
X0062724Y0191093D01*
X0062858Y0191051D01*
X0062992Y0191005D01*
X0063124Y0190956D01*
X0063254Y0190902D01*
X0063383Y0190845D01*
X0063510Y0190785D01*
X0063636Y0190721D01*
X0063759Y0190653D01*
X0063881Y0190582D01*
X0064001Y0190508D01*
X0064118Y0190430D01*
X0064233Y0190349D01*
X0064346Y0190265D01*
X0064457Y0190178D01*
X0064565Y0190087D01*
X0064670Y0189994D01*
X0064773Y0189897D01*
X0064873Y0189798D01*
X0064970Y0189696D01*
X0065064Y0189591D01*
X0065155Y0189484D01*
X0065243Y0189374D01*
X0065328Y0189262D01*
X0065410Y0189147D01*
X0065489Y0189030D01*
X0065564Y0188911D01*
X0065636Y0188790D01*
X0065704Y0188667D01*
X0065769Y0188542D01*
X0065831Y0188415D01*
X0065888Y0188286D01*
X0065943Y0188156D01*
X0065993Y0188025D01*
X0066040Y0187892D01*
X0066083Y0187758D01*
X0066122Y0187622D01*
X0066157Y0187486D01*
X0066189Y0187349D01*
X0066216Y0187211D01*
X0066240Y0187072D01*
X0066260Y0186932D01*
X0066276Y0186792D01*
X0066288Y0186652D01*
X0066296Y0186511D01*
X0066300Y0186370D01*
X0066300Y0186230D01*
X0066296Y0186089D01*
X0066288Y0185948D01*
X0066276Y0185808D01*
X0066260Y0185668D01*
X0066240Y0185528D01*
X0066216Y0185389D01*
X0066189Y0185251D01*
X0066157Y0185114D01*
X0066122Y0184978D01*
X0066083Y0184842D01*
X0066040Y0184708D01*
X0065993Y0184575D01*
X0065943Y0184444D01*
X0065888Y0184314D01*
X0065831Y0184185D01*
X0065769Y0184058D01*
X0065704Y0183933D01*
X0065636Y0183810D01*
X0065564Y0183689D01*
X0065489Y0183570D01*
X0065410Y0183453D01*
X0065328Y0183338D01*
X0065243Y0183226D01*
X0065155Y0183116D01*
X0065064Y0183009D01*
X0064970Y0182904D01*
X0064873Y0182802D01*
X0064773Y0182703D01*
X0064670Y0182606D01*
X0064565Y0182513D01*
X0064457Y0182422D01*
X0064346Y0182335D01*
X0064233Y0182251D01*
X0064118Y0182170D01*
X0064001Y0182092D01*
X0063881Y0182018D01*
X0063759Y0181947D01*
X0063636Y0181879D01*
X0063510Y0181815D01*
X0063383Y0181755D01*
X0063254Y0181698D01*
X0063124Y0181644D01*
X0062992Y0181595D01*
X0062858Y0181549D01*
X0062724Y0181507D01*
X0062588Y0181469D01*
X0062452Y0181434D01*
X0062314Y0181404D01*
X0062176Y0181377D01*
X0062037Y0181355D01*
X0061897Y0181336D01*
X0061757Y0181321D01*
X0061617Y0181310D01*
X0061476Y0181303D01*
X0061335Y0181300D01*
X0061194Y0181301D01*
X0061054Y0181306D01*
X0060913Y0181315D01*
X0060773Y0181328D01*
X0060633Y0181345D01*
X0060493Y0181365D01*
X0060355Y0181390D01*
X0060217Y0181419D01*
X0060080Y0181451D01*
X0059944Y0181487D01*
X0059809Y0181528D01*
X0059675Y0181572D01*
X0059542Y0181619D01*
X0059411Y0181671D01*
X0059281Y0181726D01*
X0059153Y0181784D01*
X0059027Y0181847D01*
X0058902Y0181912D01*
X0058780Y0181982D01*
X0058659Y0182054D01*
X0058540Y0182130D01*
X0058424Y0182210D01*
X0058310Y0182293D01*
X0058198Y0182378D01*
X0058089Y0182467D01*
X0057982Y0182559D01*
X0057878Y0182654D01*
X0057777Y0182752D01*
X0057678Y0182853D01*
X0057583Y0182956D01*
X0057490Y0183062D01*
X0057400Y0183171D01*
X0057314Y0183282D01*
X0057230Y0183395D01*
X0057150Y0183511D01*
X0057073Y0183629D01*
X0057000Y0183749D01*
X0056929Y0183872D01*
X0056863Y0183996D01*
X0056800Y0184122D01*
X0056740Y0184249D01*
X0056684Y0184378D01*
X0056632Y0184509D01*
X0056583Y0184641D01*
X0056538Y0184775D01*
X0056497Y0184910D01*
X0056460Y0185046D01*
X0056426Y0185182D01*
X0056397Y0185320D01*
X0056371Y0185459D01*
X0056350Y0185598D01*
X0056332Y0185738D01*
X0056318Y0185878D01*
X0056308Y0186018D01*
X0056302Y0186159D01*
X0056300Y0186300D01*
X0056300Y0166300D02*
X0056302Y0166441D01*
X0056308Y0166582D01*
X0056318Y0166722D01*
X0056332Y0166862D01*
X0056350Y0167002D01*
X0056371Y0167141D01*
X0056397Y0167280D01*
X0056426Y0167418D01*
X0056460Y0167554D01*
X0056497Y0167690D01*
X0056538Y0167825D01*
X0056583Y0167959D01*
X0056632Y0168091D01*
X0056684Y0168222D01*
X0056740Y0168351D01*
X0056800Y0168478D01*
X0056863Y0168604D01*
X0056929Y0168728D01*
X0057000Y0168851D01*
X0057073Y0168971D01*
X0057150Y0169089D01*
X0057230Y0169205D01*
X0057314Y0169318D01*
X0057400Y0169429D01*
X0057490Y0169538D01*
X0057583Y0169644D01*
X0057678Y0169747D01*
X0057777Y0169848D01*
X0057878Y0169946D01*
X0057982Y0170041D01*
X0058089Y0170133D01*
X0058198Y0170222D01*
X0058310Y0170307D01*
X0058424Y0170390D01*
X0058540Y0170470D01*
X0058659Y0170546D01*
X0058780Y0170618D01*
X0058902Y0170688D01*
X0059027Y0170753D01*
X0059153Y0170816D01*
X0059281Y0170874D01*
X0059411Y0170929D01*
X0059542Y0170981D01*
X0059675Y0171028D01*
X0059809Y0171072D01*
X0059944Y0171113D01*
X0060080Y0171149D01*
X0060217Y0171181D01*
X0060355Y0171210D01*
X0060493Y0171235D01*
X0060633Y0171255D01*
X0060773Y0171272D01*
X0060913Y0171285D01*
X0061054Y0171294D01*
X0061194Y0171299D01*
X0061335Y0171300D01*
X0061476Y0171297D01*
X0061617Y0171290D01*
X0061757Y0171279D01*
X0061897Y0171264D01*
X0062037Y0171245D01*
X0062176Y0171223D01*
X0062314Y0171196D01*
X0062452Y0171166D01*
X0062588Y0171131D01*
X0062724Y0171093D01*
X0062858Y0171051D01*
X0062992Y0171005D01*
X0063124Y0170956D01*
X0063254Y0170902D01*
X0063383Y0170845D01*
X0063510Y0170785D01*
X0063636Y0170721D01*
X0063759Y0170653D01*
X0063881Y0170582D01*
X0064001Y0170508D01*
X0064118Y0170430D01*
X0064233Y0170349D01*
X0064346Y0170265D01*
X0064457Y0170178D01*
X0064565Y0170087D01*
X0064670Y0169994D01*
X0064773Y0169897D01*
X0064873Y0169798D01*
X0064970Y0169696D01*
X0065064Y0169591D01*
X0065155Y0169484D01*
X0065243Y0169374D01*
X0065328Y0169262D01*
X0065410Y0169147D01*
X0065489Y0169030D01*
X0065564Y0168911D01*
X0065636Y0168790D01*
X0065704Y0168667D01*
X0065769Y0168542D01*
X0065831Y0168415D01*
X0065888Y0168286D01*
X0065943Y0168156D01*
X0065993Y0168025D01*
X0066040Y0167892D01*
X0066083Y0167758D01*
X0066122Y0167622D01*
X0066157Y0167486D01*
X0066189Y0167349D01*
X0066216Y0167211D01*
X0066240Y0167072D01*
X0066260Y0166932D01*
X0066276Y0166792D01*
X0066288Y0166652D01*
X0066296Y0166511D01*
X0066300Y0166370D01*
X0066300Y0166230D01*
X0066296Y0166089D01*
X0066288Y0165948D01*
X0066276Y0165808D01*
X0066260Y0165668D01*
X0066240Y0165528D01*
X0066216Y0165389D01*
X0066189Y0165251D01*
X0066157Y0165114D01*
X0066122Y0164978D01*
X0066083Y0164842D01*
X0066040Y0164708D01*
X0065993Y0164575D01*
X0065943Y0164444D01*
X0065888Y0164314D01*
X0065831Y0164185D01*
X0065769Y0164058D01*
X0065704Y0163933D01*
X0065636Y0163810D01*
X0065564Y0163689D01*
X0065489Y0163570D01*
X0065410Y0163453D01*
X0065328Y0163338D01*
X0065243Y0163226D01*
X0065155Y0163116D01*
X0065064Y0163009D01*
X0064970Y0162904D01*
X0064873Y0162802D01*
X0064773Y0162703D01*
X0064670Y0162606D01*
X0064565Y0162513D01*
X0064457Y0162422D01*
X0064346Y0162335D01*
X0064233Y0162251D01*
X0064118Y0162170D01*
X0064001Y0162092D01*
X0063881Y0162018D01*
X0063759Y0161947D01*
X0063636Y0161879D01*
X0063510Y0161815D01*
X0063383Y0161755D01*
X0063254Y0161698D01*
X0063124Y0161644D01*
X0062992Y0161595D01*
X0062858Y0161549D01*
X0062724Y0161507D01*
X0062588Y0161469D01*
X0062452Y0161434D01*
X0062314Y0161404D01*
X0062176Y0161377D01*
X0062037Y0161355D01*
X0061897Y0161336D01*
X0061757Y0161321D01*
X0061617Y0161310D01*
X0061476Y0161303D01*
X0061335Y0161300D01*
X0061194Y0161301D01*
X0061054Y0161306D01*
X0060913Y0161315D01*
X0060773Y0161328D01*
X0060633Y0161345D01*
X0060493Y0161365D01*
X0060355Y0161390D01*
X0060217Y0161419D01*
X0060080Y0161451D01*
X0059944Y0161487D01*
X0059809Y0161528D01*
X0059675Y0161572D01*
X0059542Y0161619D01*
X0059411Y0161671D01*
X0059281Y0161726D01*
X0059153Y0161784D01*
X0059027Y0161847D01*
X0058902Y0161912D01*
X0058780Y0161982D01*
X0058659Y0162054D01*
X0058540Y0162130D01*
X0058424Y0162210D01*
X0058310Y0162293D01*
X0058198Y0162378D01*
X0058089Y0162467D01*
X0057982Y0162559D01*
X0057878Y0162654D01*
X0057777Y0162752D01*
X0057678Y0162853D01*
X0057583Y0162956D01*
X0057490Y0163062D01*
X0057400Y0163171D01*
X0057314Y0163282D01*
X0057230Y0163395D01*
X0057150Y0163511D01*
X0057073Y0163629D01*
X0057000Y0163749D01*
X0056929Y0163872D01*
X0056863Y0163996D01*
X0056800Y0164122D01*
X0056740Y0164249D01*
X0056684Y0164378D01*
X0056632Y0164509D01*
X0056583Y0164641D01*
X0056538Y0164775D01*
X0056497Y0164910D01*
X0056460Y0165046D01*
X0056426Y0165182D01*
X0056397Y0165320D01*
X0056371Y0165459D01*
X0056350Y0165598D01*
X0056332Y0165738D01*
X0056318Y0165878D01*
X0056308Y0166018D01*
X0056302Y0166159D01*
X0056300Y0166300D01*
X0196300Y0126300D02*
X0196302Y0126441D01*
X0196308Y0126582D01*
X0196318Y0126722D01*
X0196332Y0126862D01*
X0196350Y0127002D01*
X0196371Y0127141D01*
X0196397Y0127280D01*
X0196426Y0127418D01*
X0196460Y0127554D01*
X0196497Y0127690D01*
X0196538Y0127825D01*
X0196583Y0127959D01*
X0196632Y0128091D01*
X0196684Y0128222D01*
X0196740Y0128351D01*
X0196800Y0128478D01*
X0196863Y0128604D01*
X0196929Y0128728D01*
X0197000Y0128851D01*
X0197073Y0128971D01*
X0197150Y0129089D01*
X0197230Y0129205D01*
X0197314Y0129318D01*
X0197400Y0129429D01*
X0197490Y0129538D01*
X0197583Y0129644D01*
X0197678Y0129747D01*
X0197777Y0129848D01*
X0197878Y0129946D01*
X0197982Y0130041D01*
X0198089Y0130133D01*
X0198198Y0130222D01*
X0198310Y0130307D01*
X0198424Y0130390D01*
X0198540Y0130470D01*
X0198659Y0130546D01*
X0198780Y0130618D01*
X0198902Y0130688D01*
X0199027Y0130753D01*
X0199153Y0130816D01*
X0199281Y0130874D01*
X0199411Y0130929D01*
X0199542Y0130981D01*
X0199675Y0131028D01*
X0199809Y0131072D01*
X0199944Y0131113D01*
X0200080Y0131149D01*
X0200217Y0131181D01*
X0200355Y0131210D01*
X0200493Y0131235D01*
X0200633Y0131255D01*
X0200773Y0131272D01*
X0200913Y0131285D01*
X0201054Y0131294D01*
X0201194Y0131299D01*
X0201335Y0131300D01*
X0201476Y0131297D01*
X0201617Y0131290D01*
X0201757Y0131279D01*
X0201897Y0131264D01*
X0202037Y0131245D01*
X0202176Y0131223D01*
X0202314Y0131196D01*
X0202452Y0131166D01*
X0202588Y0131131D01*
X0202724Y0131093D01*
X0202858Y0131051D01*
X0202992Y0131005D01*
X0203124Y0130956D01*
X0203254Y0130902D01*
X0203383Y0130845D01*
X0203510Y0130785D01*
X0203636Y0130721D01*
X0203759Y0130653D01*
X0203881Y0130582D01*
X0204001Y0130508D01*
X0204118Y0130430D01*
X0204233Y0130349D01*
X0204346Y0130265D01*
X0204457Y0130178D01*
X0204565Y0130087D01*
X0204670Y0129994D01*
X0204773Y0129897D01*
X0204873Y0129798D01*
X0204970Y0129696D01*
X0205064Y0129591D01*
X0205155Y0129484D01*
X0205243Y0129374D01*
X0205328Y0129262D01*
X0205410Y0129147D01*
X0205489Y0129030D01*
X0205564Y0128911D01*
X0205636Y0128790D01*
X0205704Y0128667D01*
X0205769Y0128542D01*
X0205831Y0128415D01*
X0205888Y0128286D01*
X0205943Y0128156D01*
X0205993Y0128025D01*
X0206040Y0127892D01*
X0206083Y0127758D01*
X0206122Y0127622D01*
X0206157Y0127486D01*
X0206189Y0127349D01*
X0206216Y0127211D01*
X0206240Y0127072D01*
X0206260Y0126932D01*
X0206276Y0126792D01*
X0206288Y0126652D01*
X0206296Y0126511D01*
X0206300Y0126370D01*
X0206300Y0126230D01*
X0206296Y0126089D01*
X0206288Y0125948D01*
X0206276Y0125808D01*
X0206260Y0125668D01*
X0206240Y0125528D01*
X0206216Y0125389D01*
X0206189Y0125251D01*
X0206157Y0125114D01*
X0206122Y0124978D01*
X0206083Y0124842D01*
X0206040Y0124708D01*
X0205993Y0124575D01*
X0205943Y0124444D01*
X0205888Y0124314D01*
X0205831Y0124185D01*
X0205769Y0124058D01*
X0205704Y0123933D01*
X0205636Y0123810D01*
X0205564Y0123689D01*
X0205489Y0123570D01*
X0205410Y0123453D01*
X0205328Y0123338D01*
X0205243Y0123226D01*
X0205155Y0123116D01*
X0205064Y0123009D01*
X0204970Y0122904D01*
X0204873Y0122802D01*
X0204773Y0122703D01*
X0204670Y0122606D01*
X0204565Y0122513D01*
X0204457Y0122422D01*
X0204346Y0122335D01*
X0204233Y0122251D01*
X0204118Y0122170D01*
X0204001Y0122092D01*
X0203881Y0122018D01*
X0203759Y0121947D01*
X0203636Y0121879D01*
X0203510Y0121815D01*
X0203383Y0121755D01*
X0203254Y0121698D01*
X0203124Y0121644D01*
X0202992Y0121595D01*
X0202858Y0121549D01*
X0202724Y0121507D01*
X0202588Y0121469D01*
X0202452Y0121434D01*
X0202314Y0121404D01*
X0202176Y0121377D01*
X0202037Y0121355D01*
X0201897Y0121336D01*
X0201757Y0121321D01*
X0201617Y0121310D01*
X0201476Y0121303D01*
X0201335Y0121300D01*
X0201194Y0121301D01*
X0201054Y0121306D01*
X0200913Y0121315D01*
X0200773Y0121328D01*
X0200633Y0121345D01*
X0200493Y0121365D01*
X0200355Y0121390D01*
X0200217Y0121419D01*
X0200080Y0121451D01*
X0199944Y0121487D01*
X0199809Y0121528D01*
X0199675Y0121572D01*
X0199542Y0121619D01*
X0199411Y0121671D01*
X0199281Y0121726D01*
X0199153Y0121784D01*
X0199027Y0121847D01*
X0198902Y0121912D01*
X0198780Y0121982D01*
X0198659Y0122054D01*
X0198540Y0122130D01*
X0198424Y0122210D01*
X0198310Y0122293D01*
X0198198Y0122378D01*
X0198089Y0122467D01*
X0197982Y0122559D01*
X0197878Y0122654D01*
X0197777Y0122752D01*
X0197678Y0122853D01*
X0197583Y0122956D01*
X0197490Y0123062D01*
X0197400Y0123171D01*
X0197314Y0123282D01*
X0197230Y0123395D01*
X0197150Y0123511D01*
X0197073Y0123629D01*
X0197000Y0123749D01*
X0196929Y0123872D01*
X0196863Y0123996D01*
X0196800Y0124122D01*
X0196740Y0124249D01*
X0196684Y0124378D01*
X0196632Y0124509D01*
X0196583Y0124641D01*
X0196538Y0124775D01*
X0196497Y0124910D01*
X0196460Y0125046D01*
X0196426Y0125182D01*
X0196397Y0125320D01*
X0196371Y0125459D01*
X0196350Y0125598D01*
X0196332Y0125738D01*
X0196318Y0125878D01*
X0196308Y0126018D01*
X0196302Y0126159D01*
X0196300Y0126300D01*
X0206300Y0146300D02*
X0206302Y0146441D01*
X0206308Y0146582D01*
X0206318Y0146722D01*
X0206332Y0146862D01*
X0206350Y0147002D01*
X0206371Y0147141D01*
X0206397Y0147280D01*
X0206426Y0147418D01*
X0206460Y0147554D01*
X0206497Y0147690D01*
X0206538Y0147825D01*
X0206583Y0147959D01*
X0206632Y0148091D01*
X0206684Y0148222D01*
X0206740Y0148351D01*
X0206800Y0148478D01*
X0206863Y0148604D01*
X0206929Y0148728D01*
X0207000Y0148851D01*
X0207073Y0148971D01*
X0207150Y0149089D01*
X0207230Y0149205D01*
X0207314Y0149318D01*
X0207400Y0149429D01*
X0207490Y0149538D01*
X0207583Y0149644D01*
X0207678Y0149747D01*
X0207777Y0149848D01*
X0207878Y0149946D01*
X0207982Y0150041D01*
X0208089Y0150133D01*
X0208198Y0150222D01*
X0208310Y0150307D01*
X0208424Y0150390D01*
X0208540Y0150470D01*
X0208659Y0150546D01*
X0208780Y0150618D01*
X0208902Y0150688D01*
X0209027Y0150753D01*
X0209153Y0150816D01*
X0209281Y0150874D01*
X0209411Y0150929D01*
X0209542Y0150981D01*
X0209675Y0151028D01*
X0209809Y0151072D01*
X0209944Y0151113D01*
X0210080Y0151149D01*
X0210217Y0151181D01*
X0210355Y0151210D01*
X0210493Y0151235D01*
X0210633Y0151255D01*
X0210773Y0151272D01*
X0210913Y0151285D01*
X0211054Y0151294D01*
X0211194Y0151299D01*
X0211335Y0151300D01*
X0211476Y0151297D01*
X0211617Y0151290D01*
X0211757Y0151279D01*
X0211897Y0151264D01*
X0212037Y0151245D01*
X0212176Y0151223D01*
X0212314Y0151196D01*
X0212452Y0151166D01*
X0212588Y0151131D01*
X0212724Y0151093D01*
X0212858Y0151051D01*
X0212992Y0151005D01*
X0213124Y0150956D01*
X0213254Y0150902D01*
X0213383Y0150845D01*
X0213510Y0150785D01*
X0213636Y0150721D01*
X0213759Y0150653D01*
X0213881Y0150582D01*
X0214001Y0150508D01*
X0214118Y0150430D01*
X0214233Y0150349D01*
X0214346Y0150265D01*
X0214457Y0150178D01*
X0214565Y0150087D01*
X0214670Y0149994D01*
X0214773Y0149897D01*
X0214873Y0149798D01*
X0214970Y0149696D01*
X0215064Y0149591D01*
X0215155Y0149484D01*
X0215243Y0149374D01*
X0215328Y0149262D01*
X0215410Y0149147D01*
X0215489Y0149030D01*
X0215564Y0148911D01*
X0215636Y0148790D01*
X0215704Y0148667D01*
X0215769Y0148542D01*
X0215831Y0148415D01*
X0215888Y0148286D01*
X0215943Y0148156D01*
X0215993Y0148025D01*
X0216040Y0147892D01*
X0216083Y0147758D01*
X0216122Y0147622D01*
X0216157Y0147486D01*
X0216189Y0147349D01*
X0216216Y0147211D01*
X0216240Y0147072D01*
X0216260Y0146932D01*
X0216276Y0146792D01*
X0216288Y0146652D01*
X0216296Y0146511D01*
X0216300Y0146370D01*
X0216300Y0146230D01*
X0216296Y0146089D01*
X0216288Y0145948D01*
X0216276Y0145808D01*
X0216260Y0145668D01*
X0216240Y0145528D01*
X0216216Y0145389D01*
X0216189Y0145251D01*
X0216157Y0145114D01*
X0216122Y0144978D01*
X0216083Y0144842D01*
X0216040Y0144708D01*
X0215993Y0144575D01*
X0215943Y0144444D01*
X0215888Y0144314D01*
X0215831Y0144185D01*
X0215769Y0144058D01*
X0215704Y0143933D01*
X0215636Y0143810D01*
X0215564Y0143689D01*
X0215489Y0143570D01*
X0215410Y0143453D01*
X0215328Y0143338D01*
X0215243Y0143226D01*
X0215155Y0143116D01*
X0215064Y0143009D01*
X0214970Y0142904D01*
X0214873Y0142802D01*
X0214773Y0142703D01*
X0214670Y0142606D01*
X0214565Y0142513D01*
X0214457Y0142422D01*
X0214346Y0142335D01*
X0214233Y0142251D01*
X0214118Y0142170D01*
X0214001Y0142092D01*
X0213881Y0142018D01*
X0213759Y0141947D01*
X0213636Y0141879D01*
X0213510Y0141815D01*
X0213383Y0141755D01*
X0213254Y0141698D01*
X0213124Y0141644D01*
X0212992Y0141595D01*
X0212858Y0141549D01*
X0212724Y0141507D01*
X0212588Y0141469D01*
X0212452Y0141434D01*
X0212314Y0141404D01*
X0212176Y0141377D01*
X0212037Y0141355D01*
X0211897Y0141336D01*
X0211757Y0141321D01*
X0211617Y0141310D01*
X0211476Y0141303D01*
X0211335Y0141300D01*
X0211194Y0141301D01*
X0211054Y0141306D01*
X0210913Y0141315D01*
X0210773Y0141328D01*
X0210633Y0141345D01*
X0210493Y0141365D01*
X0210355Y0141390D01*
X0210217Y0141419D01*
X0210080Y0141451D01*
X0209944Y0141487D01*
X0209809Y0141528D01*
X0209675Y0141572D01*
X0209542Y0141619D01*
X0209411Y0141671D01*
X0209281Y0141726D01*
X0209153Y0141784D01*
X0209027Y0141847D01*
X0208902Y0141912D01*
X0208780Y0141982D01*
X0208659Y0142054D01*
X0208540Y0142130D01*
X0208424Y0142210D01*
X0208310Y0142293D01*
X0208198Y0142378D01*
X0208089Y0142467D01*
X0207982Y0142559D01*
X0207878Y0142654D01*
X0207777Y0142752D01*
X0207678Y0142853D01*
X0207583Y0142956D01*
X0207490Y0143062D01*
X0207400Y0143171D01*
X0207314Y0143282D01*
X0207230Y0143395D01*
X0207150Y0143511D01*
X0207073Y0143629D01*
X0207000Y0143749D01*
X0206929Y0143872D01*
X0206863Y0143996D01*
X0206800Y0144122D01*
X0206740Y0144249D01*
X0206684Y0144378D01*
X0206632Y0144509D01*
X0206583Y0144641D01*
X0206538Y0144775D01*
X0206497Y0144910D01*
X0206460Y0145046D01*
X0206426Y0145182D01*
X0206397Y0145320D01*
X0206371Y0145459D01*
X0206350Y0145598D01*
X0206332Y0145738D01*
X0206318Y0145878D01*
X0206308Y0146018D01*
X0206302Y0146159D01*
X0206300Y0146300D01*
D19*
X0226300Y0176300D02*
X0226300Y0246300D01*
X0086300Y0246300D01*
X0086300Y0176300D01*
X0226300Y0176300D01*
M02*
